<svg width="16" height="16" viewBox="0 0 16 16" fill="none" xmlns="http://www.w3.org/2000/svg">
<path d="M13.1685 2.43172C12.0923 1.33033 10.721 0.580259 9.22816 0.276358C7.7353 -0.0275432 6.1879 0.128377 4.78164 0.724402C3.37538 1.32043 2.17343 2.32979 1.32778 3.62483C0.482127 4.91988 0.0307617 6.44245 0.0307617 8C0.0307617 9.55755 0.482127 11.0801 1.32778 12.3752C2.17343 13.6702 3.37538 14.6796 4.78164 15.2756C6.1879 15.8716 7.7353 16.0275 9.22816 15.7236C10.721 15.4197 12.0923 14.6697 13.1685 13.5683C14.6117 12.0915 15.4224 10.0885 15.4224 8C15.4224 5.91151 14.6117 3.90856 13.1685 2.43172ZM8.67015 13.1605H6.78238V5.76594H8.67015V13.1605ZM7.73565 4.72532C7.00272 4.72532 6.44431 4.17266 6.44431 3.5C6.44431 2.85125 7.0018 2.27469 7.73565 2.27469C8.4695 2.27469 9.00959 2.85125 9.00959 3.5C9.00959 4.17266 8.4695 4.72532 7.73565 4.72532Z" fill="#3B4B53"/>
</svg>
