<svg width="25" height="24" viewBox="0 0 25 24" fill="none" xmlns="http://www.w3.org/2000/svg">
<path d="M9.35 19H6.5C5.94772 19 5.5 18.5523 5.5 18V12C5.5 11.4477 5.94772 11 6.5 11H9.35C9.43284 11 9.5 11.0672 9.5 11.15V18.85C9.5 18.9328 9.43284 19 9.35 19Z" stroke="#F9F9F9" stroke-width="2" stroke-linecap="round"/>
<path d="M9.5 11L11.3321 8.25192C11.4416 8.08766 11.5 7.89465 11.5 7.69722V5C11.5 4.44772 11.9477 4 12.5 4H13.5C14.6046 4 15.5 4.89543 15.5 6V11" stroke="#F9F9F9" stroke-width="2" stroke-linecap="round"/>
<path d="M13.5 11H18.2655C19.4575 11 20.3849 12.0361 20.2532 13.2209L19.6977 18.2209C19.5851 19.2337 18.729 20 17.7099 20H13.9142C13.649 20 13.3946 19.8946 13.2071 19.7071L12.7929 19.2929C12.6054 19.1054 12.351 19 12.0858 19H9.5" stroke="#F9F9F9" stroke-width="2" stroke-linecap="round"/>
</svg>
