<svg width="200" height="200" viewBox="0 0 200 200" fill="none" xmlns="http://www.w3.org/2000/svg">
<path d="M100 200C155.228 200 200 155.228 200 100C200 44.7715 155.228 0 100 0C44.7715 0 0 44.7715 0 100C0 155.228 44.7715 200 100 200Z" fill="#4B86B4"/>
<mask id="mask0_3234_8831" style="mask-type:luminance" maskUnits="userSpaceOnUse" x="0" y="0" width="200" height="200">
<path d="M100 200C155.228 200 200 155.228 200 100C200 44.7715 155.228 0 100 0C44.7715 0 0 44.7715 0 100C0 155.228 44.7715 200 100 200Z" fill="white"/>
</mask>
<g mask="url(#mask0_3234_8831)">
<path d="M198.63 137.236C171.098 126.069 148.89 126.224 148.89 126.224C143.591 126.262 105.167 126.528 104.275 133.976C104.014 136.149 107.122 138.147 113.337 142.146C119.025 145.806 126.018 149.265 138.217 152.884C141.008 153.713 148.958 154.941 164.123 156.623C179.37 158.314 190.174 160.536 199.172 155.106C206.788 150.509 200.449 137.975 198.625 137.236H198.63Z" fill="#3845B8"/>
<path d="M177.361 146.265C167.981 140.802 162.039 132.212 158.607 126.901C156.761 126.688 155.14 126.544 153.783 126.442C154.292 135.466 170.369 147.448 170.075 153.554C170.012 154.871 169.184 156.114 167.823 157.049C181.15 158.629 190.926 160.088 199.18 155.106C200.438 154.347 201.315 153.367 201.895 152.262C194.084 152.326 185.41 150.95 177.364 146.265H177.361Z" fill="#283AA3"/>
<path d="M130.442 60.7004C127.689 59.2366 126.226 56.9344 125.443 55.7011C123.399 52.4821 123.761 50.5472 122.695 47.4549C120.601 41.3842 115.452 37.9576 113.947 36.9598C107.213 32.4796 100.132 32.9684 97.954 33.2115C92.7267 33.794 83.8626 36.5064 83.2092 41.4577C82.8825 43.9396 84.7059 46.3304 86.7067 48.9542C87.2664 49.6861 89.4824 52.4998 92.7039 54.4525C101.484 59.771 109.113 53.4572 113.697 57.7018C117.906 61.5995 116.085 71.193 114.945 77.1953C113.6 84.2866 110.873 89.557 113.446 92.1909C115.105 93.8877 111.595 91.4589 112.494 93.6091C113.089 95.035 108.388 92.9937 107.246 94.0574C105.792 95.4123 109.586 103.633 109.928 104.309C111.44 107.303 108.1 106.68 112.494 106.695C116.27 106.708 118.744 107.587 123.612 105.492C127.084 104 125.957 102.215 129.189 100.437C132.418 98.6591 133.236 98.8694 133.937 97.6892C135.011 95.8758 133.585 94.5411 134.687 92.1909C135.48 90.4991 136.412 90.7827 137.435 89.1923C139.078 86.6394 138.889 82.4682 136.936 79.9457C135.087 77.5575 132.529 77.7727 132.438 76.4482C132.314 74.6424 137.07 74.3942 138.937 70.6992C140.16 68.2805 139.96 64.7475 138.187 62.9519C136.293 61.0347 134.155 62.6784 130.44 60.703L130.442 60.7004Z" fill="#36476B"/>
<path d="M88.7074 44.2057C85.1871 43.6485 82.4341 46.1153 78.7112 49.4533C74.6261 53.1154 72.7849 56.927 71.7136 59.1988C69.8876 63.0762 68.6466 65.7101 69.7154 68.1946C70.5157 70.0611 71.9593 70.3068 72.9647 72.9432C73.3826 74.0424 74.0816 75.8785 73.4636 77.6919C72.4506 80.6601 69.0366 80.2447 67.7146 83.4409C66.7624 85.743 67.664 88.0654 67.7146 88.1895C68.9733 91.297 72.2151 91.1906 72.4633 93.4371C72.6481 95.1035 70.9209 95.6708 70.7132 98.6846C70.6676 99.3634 70.6043 100.268 70.964 101.184C71.5009 102.554 72.8963 103.745 77.2119 104.933C83.0647 106.543 85.9899 107.349 87.9577 105.933C90.9893 103.75 89.8344 97.7754 89.2063 92.6874C86.2913 69.0759 87.9957 65.4974 89.956 62.4481C92.6785 58.211 95.9405 57.7476 96.2039 53.9512C96.4876 49.8382 93.0407 44.8921 88.7074 44.2057Z" fill="#36476B"/>
<path d="M121.446 114.179C119.319 113.576 116.163 112.68 114.198 109.932C113.069 108.352 112.798 106.809 112.448 104.684C111.658 99.8648 112.727 97.7298 112.448 95.6885C111.303 87.3081 87.5095 80.9842 84.4577 85.943C83.6979 87.1764 84.8579 88.0755 85.957 92.9406C86.8434 96.8637 88.8442 105.73 84.7084 110.185C83.1863 111.821 81.2058 112.467 77.4601 113.683C72.5038 115.293 70.308 114.693 69.9636 115.681C69.2038 117.846 78.3541 124.732 89.2063 127.427C91.4426 127.982 102.971 130.649 115.447 125.429C122.819 122.344 129.146 117.081 128.441 115.433C128.054 114.526 125.843 115.433 121.444 114.184L121.446 114.179Z" fill="#EA9488"/>
<path d="M112.451 95.6856C111.306 87.3052 87.512 80.9813 84.4602 85.9401C83.7004 87.1735 84.8603 88.0726 85.9595 92.9377C86.3698 94.7536 87.0181 97.6306 87.1878 100.639C90.1256 106.003 94.1246 109.498 98.1363 109.982C102.627 110.524 108.056 107.409 112.154 101.516C112.111 98.7956 112.658 97.2153 112.448 95.6856H112.451Z" fill="#C36252"/>
<path d="M139.717 168.569C140.763 161.06 144.959 142.954 147.178 135.706C149.905 126.786 160.178 127.055 157.523 122.516C156.898 121.447 153.172 118.532 145.939 115.929C138.03 113.082 129.695 111.912 118.501 112.371C115.171 112.507 116.994 120.938 99.8129 121.432C82.2113 121.939 81.2793 111.428 78.7137 111.927C70.9665 113.434 62.4342 115.341 53.9727 119.675C50.6854 121.356 47.7146 123.243 47.1448 123.967C40.3802 132.591 63.1661 144.013 61.8061 202.068C61.72 205.771 61.4566 212.748 59.7724 223.375H140.798C138.238 205.462 137.184 186.738 139.719 168.564L139.717 168.569Z" fill="#3845B8"/>
<path d="M99.8103 121.435C82.2087 121.942 81.2767 111.431 78.7112 111.93C76.8522 112.292 74.9477 112.677 73.0103 113.113C77.7513 118.842 85.729 125.862 96.799 126.665C99.5646 126.865 112.185 127.782 119.289 118.794C120.998 116.633 122.034 114.346 122.665 112.277C121.32 112.282 119.932 112.315 118.498 112.374C115.168 112.51 116.992 120.941 99.8103 121.435Z" fill="white"/>
<path d="M119.197 64.1981C118.873 63.0863 118.04 60.6272 116.199 58.2009C113.053 54.055 108.864 52.5025 106.702 51.7022C101.289 49.699 96.7029 50.208 94.7072 50.4537C92.3088 50.7475 89.9383 51.0666 87.4588 52.7026C86.4509 53.3687 84.6958 54.7338 82.9609 57.702C81.5173 60.1713 79.1899 65.2897 79.4634 74.6958C79.6787 82.1391 79.8863 89.3748 84.9617 96.1875C86.4736 98.2186 91.7845 105.345 99.7065 105.434C103.267 105.475 105.985 104.079 107.203 103.436C112.668 100.551 115.016 95.5341 116.7 91.9403C118.704 87.6653 119.296 84.0208 119.699 81.4452C120.403 76.9194 120.205 73.5333 119.95 69.2C119.828 67.1385 119.661 65.7835 119.2 64.2007L119.197 64.1981Z" fill="#EA9488"/>
<path d="M101.806 93.5932C101.234 93.6717 99.7572 93.8414 97.9109 93.5932C95.3707 93.2513 94.5096 92.2662 94.0157 92.5853C92.9926 93.2437 95.5201 96.3361 100.104 96.3209C104.096 96.3082 106.805 93.5628 106.046 92.6536C105.585 92.1015 104.536 93.2159 101.809 93.5958L101.806 93.5932Z" fill="#DD7472"/>
<path d="M102.292 84.2487L102.249 84.2639C102.006 84.35 101.864 84.5957 101.897 84.8514C101.925 85.0794 101.917 85.3478 101.803 85.6087C101.469 86.3837 100.433 86.5483 100.003 86.5837C99.1214 86.6547 97.9564 86.29 97.4828 85.32C97.3359 85.0211 97.2828 84.7172 97.2777 84.4488C97.2701 84.1854 97.0802 83.9676 96.8193 83.927L96.7737 83.9194C96.4445 83.8688 96.1456 84.1271 96.1532 84.4614C96.1633 84.9401 96.2722 85.3985 96.4749 85.8113C97.1257 87.1435 98.5972 87.7133 99.8027 87.7133C99.9015 87.7133 100 87.7082 100.096 87.7006C101.434 87.5917 102.434 86.9915 102.839 86.0519C103.05 85.5656 103.065 85.0819 103.014 84.6894C102.968 84.3449 102.621 84.1297 102.297 84.2462L102.292 84.2487Z" fill="#DD7472"/>
<path d="M107.152 73.118C106.167 73.156 105.41 74.3514 105.466 75.7924C105.519 77.2309 106.365 78.3681 107.35 78.3326C108.335 78.2946 109.092 77.0993 109.037 75.6582C108.983 74.2197 108.138 73.0825 107.152 73.118Z" fill="#543434"/>
<path d="M113.253 67.308C111.975 67.0978 110.148 67.0395 108.168 67.7335C106.937 68.1665 105.79 68.8427 104.802 69.7114C104.359 70.1015 104.341 70.7878 104.779 71.1879L104.817 71.2234C105.187 71.5602 105.752 71.5729 106.127 71.2411C106.775 70.6662 107.674 70.0508 108.839 69.6405C110.419 69.0859 111.878 69.1315 112.907 69.2986C113.408 69.3797 113.892 69.0808 114.028 68.592L114.041 68.5439C114.198 67.9791 113.831 67.4042 113.251 67.308H113.253Z" fill="#36476B"/>
<path d="M90.6323 73.1181C89.6471 73.0801 88.8012 74.2173 88.748 75.6583C88.6948 77.0968 89.4495 78.2948 90.4347 78.3327C91.4199 78.3707 92.2658 77.2336 92.319 75.7925C92.3722 74.354 91.6174 73.1561 90.6323 73.1181Z" fill="#49302A"/>
<path d="M94.0765 70.4001C92.9293 69.7543 91.668 69.3314 90.3739 69.1642C88.2921 68.8958 86.5193 69.3314 85.3112 69.8024C84.7642 70.0152 84.5261 70.6534 84.7945 71.1751L84.8173 71.2207C85.0503 71.6715 85.5872 71.864 86.0608 71.6791C87.0334 71.3017 88.4516 70.9548 90.113 71.17C91.3363 71.3271 92.3442 71.7449 93.099 72.1729C93.5346 72.4186 94.0842 72.292 94.3754 71.8842L94.4058 71.8412C94.7502 71.36 94.5907 70.6914 94.0765 70.4027V70.4001Z" fill="#36476B"/>
<path d="M111.331 80.0162C109.885 80.115 108.763 80.9305 108.824 81.8346C108.887 82.7388 110.11 83.3922 111.557 83.2909C113.003 83.1921 114.125 82.3766 114.064 81.4725C114.001 80.5683 112.78 79.9149 111.331 80.0162Z" fill="#EA847D"/>
<path d="M87.4487 80.0057C85.8633 79.6967 84.4197 80.2488 84.2272 81.2416C84.0347 82.2318 85.1617 83.2879 86.7497 83.5969C88.3351 83.9059 89.7787 83.3538 89.9712 82.361C90.1636 81.3708 89.0366 80.3147 87.4487 80.0057Z" fill="#EA847D"/>
<path d="M117.25 51.0715C110.569 45.2187 101.165 44.7451 94.6337 47.574C92.9064 48.3211 88.2338 50.3447 87.8868 53.8219C87.5196 57.4815 92.1112 61.0424 95.7581 62.3188C100.327 63.9194 106.337 62.952 107.13 62.8178C108.728 62.5468 110.199 62.1415 112.253 62.567C112.4 62.5974 115.12 63.1926 117.252 65.1908C122.049 69.6862 120.175 77.8133 121.251 77.9349C122.277 78.0514 125.582 70.8613 123.999 62.9393C123.475 60.3155 121.925 55.1617 117.252 51.069L117.25 51.0715Z" fill="#36476B"/>
<path d="M123.622 74.6299C121.626 73.9487 119.646 76.1622 119.537 76.2913C116.452 79.9611 116.554 88.6226 118.899 89.4482C119.42 89.6331 120.707 88.2326 121.479 87.7666C123.82 86.3534 126.162 83.6333 126.246 80.1434C126.291 78.2034 125.544 75.2859 123.622 74.6299Z" fill="#F6A698"/>
<path d="M120.621 84.7426C120.621 84.7426 120.684 84.6818 120.77 84.5957C120.682 84.6793 120.621 84.735 120.621 84.7426Z" fill="#C36252"/>
<path d="M120.859 78.6488C120.104 78.8311 119.474 79.4491 119.149 80.2899C119.03 80.5964 119.2 80.9433 119.491 81.0092C119.714 81.0573 119.927 80.9155 120.018 80.6825C120.223 80.1582 120.601 79.7783 121.049 79.6719C121.659 79.5251 122.295 79.9379 122.533 80.4039C122.791 80.9104 122.68 81.7487 122.226 82.701C121.892 83.4025 121.393 83.9749 121.039 84.3345C121.297 84.0812 121.492 83.8862 121.024 84.3497C120.945 84.4282 120.877 84.4966 120.818 84.5523C120.758 84.6131 120.694 84.6739 120.621 84.7473C119.709 85.6464 120.454 85.7781 120.522 85.7806C121.17 85.8161 121.885 85.0031 122.275 84.4814C123.212 83.2227 124.058 81.265 123.354 79.8822C122.951 79.092 121.935 78.393 120.856 78.6513L120.859 78.6488Z" fill="#DD7472"/>
<path d="M120.818 84.5498C120.897 84.4713 120.965 84.4055 121.023 84.3472C121.029 84.3422 121.034 84.3371 121.039 84.332C120.948 84.4232 120.849 84.5194 120.768 84.598C120.783 84.5828 120.798 84.5676 120.818 84.5498Z" fill="#C36252"/>
<path d="M124.473 74.7841C123.508 74.156 122.503 74.3611 122.123 74.4371C120.712 74.7208 119.785 75.7642 119.291 76.4986C119.124 76.7468 119.187 77.0963 119.426 77.2559C119.631 77.3927 119.899 77.3344 120.043 77.1191C120.441 76.524 121.181 75.6882 122.28 75.4653C122.591 75.402 123.323 75.2551 123.987 75.6882C124.61 76.0934 124.848 76.8051 125.02 77.3217C125.456 78.6336 125.473 80.1102 125.068 81.7133C124.313 84.6992 122.348 87.0191 121.391 87.128C121.095 87.1609 120.983 87.4142 120.851 87.7054C120.494 88.5007 120.051 89.2301 119.228 89.1845C118.815 89.1617 118.653 89.0452 118.605 88.3842C118.585 88.1107 118.382 87.8979 118.134 87.9004C117.858 87.9055 117.643 88.1689 117.665 88.4728C117.721 89.2427 117.977 90.1621 119.172 90.2254C120.732 90.309 121.431 88.7463 121.695 88.1588C121.702 88.1436 121.707 88.1284 121.715 88.1157C123.141 87.7105 125.175 85.145 125.975 81.9817C126.547 79.7125 126.253 77.9904 125.904 76.9469C125.709 76.3594 125.38 75.3742 124.47 74.7815L124.473 74.7841Z" fill="#DD7472"/>
<path d="M119.208 80.7861C119.137 80.9355 119.595 81.1584 119.914 81.7561C120.53 82.9109 119.983 84.276 120.168 84.3292C120.304 84.3697 120.692 83.6378 120.773 82.8198C120.811 82.4449 120.887 81.6852 120.444 81.1736C120.021 80.6848 119.291 80.6139 119.208 80.7861Z" fill="#E5837C"/>
<path d="M75.2113 74.6299C73.2916 75.2859 72.5419 78.2034 72.5875 80.1434C72.6711 83.6308 75.0138 86.3508 77.3539 87.7666C78.1238 88.2326 79.4104 89.6306 79.9346 89.4482C82.2798 88.6226 82.3811 79.9611 79.2964 76.2913C79.1875 76.1622 77.207 73.9487 75.2113 74.6299Z" fill="#F6A698"/>
<path d="M78.063 84.5957C78.1491 84.6818 78.2124 84.7426 78.2124 84.7426C78.2124 84.735 78.1516 84.6818 78.063 84.5957Z" fill="#C36252"/>
<path d="M77.9743 78.6493C76.8954 78.3885 75.8824 79.0875 75.4772 79.8802C74.7731 81.263 75.619 83.2232 76.5561 84.4794C76.9461 85.0036 77.6603 85.8141 78.3086 85.7786C78.3795 85.7735 79.1241 85.6444 78.2098 84.7453C78.1339 84.6719 78.0731 84.6111 78.0123 84.5503C77.9541 84.4946 77.8831 84.4262 77.8072 84.3477C77.3386 83.8842 77.5336 84.0792 77.792 84.3325C77.4374 83.9729 76.9359 83.4005 76.6042 82.699C76.1508 81.7467 76.0394 80.9084 76.2977 80.4019C76.5358 79.9359 77.1715 79.5231 77.7818 79.67C78.2301 79.7789 78.6075 80.1588 78.8126 80.6805C78.9038 80.9135 79.1165 81.0578 79.3394 81.0072C79.6332 80.9413 79.8003 80.5944 79.6813 80.2879C79.3571 79.4471 78.7265 78.8291 77.9718 78.6468L77.9743 78.6493Z" fill="#DD7472"/>
<path d="M77.8072 84.3472C77.8654 84.4055 77.9338 84.4713 78.0123 84.5498C78.0301 84.5676 78.0453 84.5828 78.063 84.598C77.9845 84.5194 77.8857 84.4232 77.792 84.332C77.7971 84.3371 77.8021 84.3422 77.8072 84.3472Z" fill="#C36252"/>
<path d="M80.6994 87.9034C80.4512 87.8983 80.2486 88.111 80.2283 88.3871C80.1827 89.0481 80.0181 89.1646 79.6053 89.1874C78.7797 89.2305 78.3365 88.5036 77.9819 87.7084C77.8502 87.4171 77.7388 87.1639 77.4425 87.1309C76.4877 87.022 74.5224 84.7022 73.7651 81.7162C73.3599 80.1131 73.3751 78.634 73.8132 77.3247C73.9855 76.8055 74.2235 76.0964 74.8465 75.6911C75.5101 75.2581 76.242 75.405 76.5535 75.4683C77.6552 75.6911 78.3922 76.5294 78.7898 77.1221C78.9342 77.3373 79.2026 77.3956 79.4078 77.2588C79.6458 77.1018 79.7091 76.7498 79.542 76.5016C79.0481 75.7671 78.1212 74.7237 76.7105 74.44C76.3332 74.3641 75.3252 74.1589 74.3603 74.787C73.4511 75.3796 73.1218 76.3623 72.9268 76.9524C72.5773 77.9983 72.2835 79.7205 72.8559 81.9872C73.6562 85.1504 75.6924 87.716 77.1157 88.1212C77.1208 88.1338 77.1284 88.149 77.136 88.1642C77.3994 88.7518 78.1009 90.3144 79.6585 90.2308C80.8539 90.165 81.1097 89.2457 81.1654 88.4783C81.1882 88.1744 80.9729 87.911 80.6969 87.9059L80.6994 87.9034Z" fill="#DD7472"/>
<path d="M78.3871 81.1746C77.9439 81.6861 78.0199 82.4485 78.0579 82.8207C78.1389 83.6362 78.5264 84.3682 78.6632 84.3302C78.848 84.277 78.301 82.9119 78.9164 81.7571C79.2355 81.1594 79.6965 80.9365 79.623 80.7871C79.5394 80.6148 78.81 80.6858 78.3871 81.1746Z" fill="#E5837C"/>
<path d="M100 79.5229C103.028 79.5229 105.483 76.7823 105.483 73.4016C105.483 70.0209 103.028 67.2803 100 67.2803C96.972 67.2803 94.5171 70.0209 94.5171 73.4016C94.5171 76.7823 96.972 79.5229 100 79.5229Z" fill="#021549"/>
<path d="M87.9172 68.9994C86.1419 68.2548 84.3792 68.389 80.8538 68.6626C77.7083 68.9057 76.7307 69.3489 76.3458 69.5363C75.0237 70.1847 72.7419 71.7549 72.9825 72.8338C73.6029 75.6196 91.159 75.412 91.7516 72.4311C91.9947 71.2154 89.3963 69.6224 87.9172 68.9994Z" fill="#C36252"/>
<path d="M88.4288 86.2827C84.2829 86.1738 83.5333 87.1235 79.9522 86.9893C77.5386 86.8981 75.1579 86.8069 73.8967 85.1734C73.0027 84.0134 73.1673 82.5496 73.494 79.6244C73.6662 78.0872 74.2665 73.1815 77.1258 70.6438C77.8425 70.0081 78.3997 69.7878 78.539 69.7346C79.9015 69.218 80.6765 69.8055 82.5759 69.7346C84.4754 69.6637 84.3893 69.0483 85.5011 69.2306C87.4664 69.5523 87.6564 71.4568 89.4368 71.6518C90.8956 71.8114 92.4025 70.7122 92.3619 70.0385C92.3341 69.5903 91.6401 69.5092 90.2421 68.2226C89.8217 67.8352 89.7964 67.7617 89.4342 67.4147C89.4342 67.4147 88.2135 66.2472 86.7092 65.4976C85.6911 64.9885 85.5315 65.2494 82.0669 64.791C80.3903 64.5681 78.7036 64.4592 77.0219 64.287C76.5433 64.2389 75.8544 64.1654 75.1048 64.4896C74.9072 64.5757 74.6514 64.7099 73.4915 65.8015C72.8659 66.389 72.557 66.7107 71.8656 67.3844C71.8656 67.3844 71.2552 67.9795 70.5663 68.6279C69.5077 69.6257 68.7226 70.2665 67.5399 71.2516C66.2457 72.328 64.7768 73.569 64.3108 73.9767C61.8339 76.1294 61.2818 77.6617 58.8606 80.8376C57.6323 82.4508 57.6754 82.1849 53.0078 87.2957C49.5204 91.1123 50.0649 90.6388 46.1469 94.9644C41.302 100.313 39.8078 101.77 36.9637 105.358C35.2972 107.46 34.464 108.511 34.1373 109.091C29.4469 117.429 35.0769 131.467 38.6783 131.391C40.6765 131.35 40.4815 127.002 47.0536 115.75C47.0536 115.75 49.9306 110.826 54.7223 105.86C55.9456 104.591 57.1384 103.492 58.8606 102.529C60.4334 101.651 60.9576 101.719 64.8148 100.41C67.2942 99.5662 69.1202 98.9482 71.3742 97.8871C73.608 96.836 73.5092 96.6461 76.0165 95.4659C77.645 94.6985 79.2836 93.9337 81.5654 93.2448C83.8549 92.5559 85.3795 92.095 87.5196 92.0342C88.1224 92.0165 89.7559 92.0038 92.0606 91.8316C93.7447 91.7075 94.3602 91.6037 94.6843 91.125C95.2516 90.2842 94.6312 88.7216 93.7751 87.7946C93.1876 87.1589 92.0783 86.3764 88.4263 86.2801L88.4288 86.2827Z" fill="#F6A698"/>
<path d="M88.4287 86.2818C87.9222 86.2691 87.4689 86.2716 87.0535 86.2843C86.0709 87.0086 85.5263 87.7861 84.065 88.6953C77.8627 92.5449 70.1889 89.3589 69.89 90.5619C69.7102 91.2786 72.3568 92.7399 74.7678 93.2338C77.5942 93.8112 79.9065 93.0236 80.9322 92.6589C83.9333 91.5952 83.8472 90.3973 87.132 89.3184C88.3553 88.9157 89.9457 88.4142 91.9516 88.7587C93.1571 88.9663 94.1347 89.4146 94.8539 89.8451C94.7121 89.1284 94.2866 88.3484 93.775 87.7963C93.1875 87.1606 92.0782 86.378 88.4262 86.2818H88.4287Z" fill="#DD7472"/>
<path d="M86.8509 71.5468C86.1721 70.9339 85.2452 70.6832 84.3512 70.868L79.8178 71.4176C78.8048 71.5392 78.1336 72.5294 78.3894 73.5172L82.1402 87.8618H87.5803C89.8444 87.8618 92.0377 87.0641 93.7725 85.6053C95.9657 83.7616 96.181 80.5173 94.3778 78.4L99.9014 76.7614V70.4375L87.2561 71.9089L86.8534 71.5442L86.8509 71.5468Z" fill="#03133F"/>
<path d="M89.0618 70.4118C88.259 70.0091 88.2995 69.4874 87.1117 68.8644C86.8053 68.7049 85.3136 67.9223 83.6142 68.2591C82.8696 68.406 82.8645 68.6137 82.0668 68.7302C80.9803 68.8897 80.3269 68.6035 79.6456 68.5276C78.3844 68.3883 77.384 69.0138 76.0138 69.8724C73.9143 71.1868 68.1324 75.7784 68.9504 78.1464C69.2416 78.9898 70.4269 79.7014 73.4635 79.9243C73.4736 79.8255 73.4863 79.7242 73.4964 79.6229C73.6686 78.0856 74.2689 73.18 77.1282 70.6423C77.8449 70.0066 78.4021 69.7863 78.5414 69.7331C79.9039 69.2164 80.6789 69.804 82.5783 69.7331C84.4778 69.6622 84.3917 69.0468 85.5035 69.2291C87.4688 69.5507 87.6588 71.4553 89.4392 71.6503C90.7587 71.7946 92.1161 70.9108 92.3365 70.2422C90.7105 70.8854 89.7076 70.7335 89.0644 70.4118H89.0618Z" fill="#EA9488"/>
<path d="M83.2749 66.4978L83.0723 66.5054C82.0288 66.5408 81.6489 66.4826 81.2488 66.4193C80.8081 66.3509 80.3067 66.2749 78.939 66.3028C77.6423 66.3306 76.3026 66.3585 74.5956 66.7131C73.8814 66.8625 73.1672 67.0524 72.4758 67.2804C72.3163 67.3336 72.2327 67.5083 72.2859 67.6679C72.3416 67.8249 72.5113 67.9059 72.6683 67.8553C73.3394 67.6349 74.0258 67.4501 74.7172 67.3057C76.371 66.9638 77.6829 66.9359 78.9517 66.9081C80.2687 66.8802 80.7195 66.9511 81.1576 67.017C81.5856 67.0828 81.9934 67.1461 83.0925 67.1082L83.2977 67.1006C84.0119 67.0752 84.6273 67.0524 84.9185 67.4019C85.0933 67.6147 85.2604 68.0756 85.0832 68.4378C85.0578 68.4884 85.0274 68.534 84.9894 68.5796C84.9033 68.6834 84.8983 68.8329 84.9768 68.9443C85.0907 69.1038 85.3263 69.119 85.4529 68.9696C85.5213 68.8886 85.577 68.8025 85.6251 68.7088C85.9113 68.1339 85.7214 67.4247 85.3845 67.0195C84.9033 66.4395 84.1132 66.4674 83.2749 66.5003V66.4978Z" fill="#DD7472"/>
<path d="M90.5713 68.8431C90.4851 68.7823 90.3864 68.7139 90.2749 68.6329C89.9812 68.4176 89.8748 68.3189 89.7254 68.1821C89.5835 68.0504 89.4088 67.8883 89.0238 67.5819C88.2083 66.931 87.6208 66.4599 86.8053 66.037C86.2329 65.7381 85.6175 65.5001 84.9717 65.3304C84.8045 65.2873 84.6348 65.3861 84.5968 65.5558C84.5614 65.7153 84.6551 65.8749 84.8121 65.9154C85.4174 66.075 85.9923 66.2978 86.5267 66.5764C87.289 66.974 87.8588 67.4274 88.6465 68.058C89.0137 68.3518 89.1733 68.5012 89.3151 68.6304C89.4721 68.7747 89.5962 68.8912 89.9178 69.1268C90.0343 69.2129 90.1356 69.2838 90.2243 69.3446C90.5231 69.5522 90.6194 69.6257 90.6726 69.7548C90.7688 69.9878 90.6928 70.3272 90.4497 70.7426C90.3687 70.8793 90.4092 71.0541 90.5383 71.1452C90.6827 71.244 90.8828 71.1984 90.9714 71.0465C91.3158 70.4538 91.4045 69.9397 91.2297 69.5218C91.1056 69.223 90.8904 69.0736 90.5687 68.8482L90.5713 68.8431Z" fill="#DD7472"/>
<path d="M68.9555 89.1081C67.3625 87.0972 67.4233 84.6304 66.8357 84.6684C66.3824 84.6963 66.4203 86.155 65.7264 87.8975C64.3081 91.4507 60.7068 92.6436 61.1854 93.4464C61.7451 94.386 62.9203 91.9395 65.4225 91.7318C66.6888 91.6255 67.8994 91.9218 68.3477 92.0358C69.5785 92.3447 69.8799 92.6613 70.7688 92.945C73.0127 93.6592 75.558 93.0589 75.6112 92.5423C75.6821 91.8585 71.3463 92.1345 68.9504 89.1106L68.9555 89.1081Z" fill="#CC6F62"/>
<path d="M91.2221 78.5299L99.8989 75.9567V69.6328L85.772 71.2765L91.2221 78.5299Z" fill="#0E2F77"/>
<path d="M93.9067 77.1098L86.8509 70.7403C86.1721 70.1274 85.2452 69.8766 84.3512 70.0615L79.8178 70.6111C78.8048 70.7327 78.1336 71.7229 78.3894 72.7106L82.1402 87.0553H87.5803C89.8444 87.0553 92.0377 86.2575 93.7725 84.7988C96.143 82.8081 96.2063 79.1814 93.9092 77.1072L93.9067 77.1098Z" fill="#07195B"/>
<path d="M84.4181 90.3411C88.7788 85.9804 88.7788 78.9103 84.4181 74.5496C80.0574 70.1889 72.9873 70.1889 68.6266 74.5496C64.2659 78.9103 64.2659 85.9804 68.6266 90.3411C72.9873 94.7018 80.0574 94.7018 84.4181 90.3411Z" fill="#0E2F77"/>
<path d="M78.6457 91.4521C83.6173 90.2787 86.6963 85.2973 85.5229 80.3258C84.3495 75.3542 79.3681 72.2752 74.3965 73.4486C69.425 74.622 66.346 79.6035 67.5194 84.575C68.6928 89.5465 73.6742 92.6255 78.6457 91.4521Z" fill="#07195B"/>
<path d="M85.5695 81.184C85.5695 86.2922 81.4286 90.433 76.3204 90.433C71.939 90.433 68.2692 87.3863 67.3119 83.2962C67.7424 88.0068 71.7009 91.6943 76.523 91.6943C81.6313 91.6943 85.7721 87.5535 85.7721 82.4452C85.7721 81.7183 85.6885 81.0117 85.5289 80.333C85.5543 80.6141 85.5695 80.8978 85.5695 81.184Z" fill="#021549"/>
<path d="M77.1282 89.6177C81.5356 89.6177 85.1084 86.0448 85.1084 81.6375C85.1084 77.2301 81.5356 73.6572 77.1282 73.6572C72.7208 73.6572 69.1479 77.2301 69.1479 81.6375C69.1479 86.0448 72.7208 89.6177 77.1282 89.6177Z" fill="#258AEF"/>
<path d="M79.8128 74.1201C81.3729 75.5764 82.3505 77.6506 82.3505 79.9552C82.3505 84.362 78.777 87.9355 74.3702 87.9355C73.4281 87.9355 72.524 87.7709 71.6857 87.472C73.1115 88.8016 75.0237 89.6171 77.1282 89.6171C81.535 89.6171 85.1085 86.0436 85.1085 81.6369C85.1085 78.1723 82.8975 75.2218 79.8128 74.1201Z" fill="#1978E0"/>
<path d="M103.879 75.2468C104.79 73.0487 103.746 70.5287 101.548 69.6182C99.3497 68.7077 96.8297 69.7515 95.9192 71.9496C95.0087 74.1478 96.0526 76.6678 98.2507 77.5783C100.449 78.4888 102.969 77.4449 103.879 75.2468Z" fill="#031544"/>
<path d="M89.4038 74.2061C89.0315 74.2061 88.7301 74.5074 88.7301 74.8797C88.7301 75.252 89.0315 75.5534 89.4038 75.5534C89.7761 75.5534 90.0775 75.252 90.0775 74.8797C90.0775 74.5074 89.7761 74.2061 89.4038 74.2061Z" fill="#183B93"/>
<path d="M71.7059 78.3677C72.4404 80.5053 76.8522 77.5472 76.0443 76.1467C75.1857 74.6625 71.1513 76.7519 71.7059 78.3677Z" fill="#6EC4FF"/>
<path d="M70.5459 83.3624C70.0799 83.2433 69.6595 83.2611 69.3278 83.3219C69.7178 85.1327 70.7182 86.7156 72.1086 87.84C72.7392 86.8675 72.8456 85.6924 72.3644 84.7756C71.7996 83.7018 70.6447 83.3877 70.5485 83.3624H70.5459Z" fill="#2A99F4"/>
<path d="M71.9617 73.1789C71.8502 72.9484 71.5666 72.8547 71.3412 72.9763C70.28 73.5537 68.92 74.5363 67.8006 76.1395C66.7141 77.6945 66.2582 79.2597 66.0708 80.4221C66.0303 80.6754 66.2127 80.9109 66.4659 80.9413H66.4685C66.709 80.9692 66.9269 80.7995 66.9674 80.5614C67.1396 79.5003 67.5549 78.0744 68.5452 76.6612C69.5633 75.2024 70.8017 74.3084 71.7692 73.7791C71.9819 73.6626 72.068 73.4017 71.9617 73.1839V73.1789Z" fill="#134191"/>
<path d="M123.652 69.5362C123.27 69.3488 122.29 68.9056 119.144 68.6624C115.619 68.3889 113.856 68.2521 112.081 68.9993C110.602 69.6198 108.003 71.2128 108.246 72.4309C108.839 75.4118 126.395 75.6195 127.016 72.8336C127.256 71.7573 124.974 70.1871 123.652 69.5362Z" fill="#C36252"/>
<path d="M163.034 105.355C160.19 101.767 158.696 100.31 153.851 94.9615C149.93 90.6358 150.478 91.1094 146.99 87.2928C142.323 82.182 142.366 82.4479 141.137 80.8346C138.716 77.6562 138.164 76.1265 135.687 73.9738C135.221 73.5686 133.752 72.3276 132.458 71.2487C131.275 70.2635 130.49 69.6228 129.432 68.6249C128.743 67.9766 128.132 67.3814 128.132 67.3814C127.441 66.7077 127.129 66.3861 126.506 65.7985C125.344 64.707 125.088 64.5728 124.893 64.4867C124.143 64.1625 123.455 64.2359 122.976 64.284C121.294 64.4588 119.605 64.5677 117.931 64.788C114.466 65.2464 114.309 64.9856 113.289 65.4946C111.784 66.2443 110.564 67.4118 110.564 67.4118C110.201 67.7588 110.176 67.8322 109.756 68.2197C108.358 69.5063 107.664 69.5873 107.636 70.0356C107.595 70.7118 109.102 71.811 110.561 71.6489C112.342 71.4539 112.531 69.5468 114.497 69.2277C115.609 69.0453 115.522 69.6608 117.422 69.7317C119.319 69.8026 120.094 69.215 121.459 69.7317C121.598 69.7849 122.155 70.0052 122.872 70.6409C125.734 73.1786 126.334 78.0842 126.504 79.6215C126.831 82.5492 126.993 84.0105 126.101 85.1705C124.842 86.804 122.462 86.8952 120.046 86.9863C116.465 87.1231 115.715 86.1708 111.569 86.2797C107.917 86.376 106.808 87.1586 106.22 87.7942C105.367 88.7186 104.744 90.2838 105.311 91.1246C105.635 91.6033 106.251 91.7071 107.935 91.8312C110.239 92.0009 111.873 92.0161 112.476 92.0338C114.613 92.0946 116.14 92.5555 118.43 93.2444C120.712 93.9333 122.353 94.6981 123.979 95.4655C126.486 96.6457 126.385 96.8356 128.621 97.8867C130.875 98.9478 132.701 99.5658 135.181 100.409C139.038 101.719 139.559 101.648 141.135 102.529C142.854 103.491 144.047 104.59 145.273 105.859C150.065 110.823 152.942 115.749 152.942 115.749C159.514 127.002 159.319 131.347 161.317 131.391C164.918 131.464 170.548 117.426 165.858 109.091C165.531 108.511 164.698 107.46 163.032 105.358L163.034 105.355Z" fill="#F6A698"/>
<path d="M115.935 88.6982C114.474 87.7915 113.93 87.0115 112.947 86.2872C112.532 86.272 112.076 86.2694 111.572 86.2846C107.92 86.3809 106.81 87.1634 106.223 87.7991C105.714 88.3512 105.286 89.1313 105.144 89.848C105.863 89.4175 106.838 88.9692 108.046 88.7615C110.05 88.4171 111.643 88.9211 112.866 89.3212C116.151 90.4001 116.067 91.5955 119.066 92.6617C120.094 93.0264 122.406 93.8141 125.23 93.2366C127.644 92.7428 130.288 91.284 130.108 90.5647C129.809 89.3617 122.135 92.5478 115.933 88.6982H115.935Z" fill="#DD7472"/>
<path d="M120.182 71.4209L115.649 70.8714C114.755 70.6865 113.826 70.9372 113.149 71.5501L112.747 71.9148L100.101 70.4434V76.7673L105.625 78.4059C103.819 80.5231 104.035 83.7674 106.23 85.6111C107.965 87.0674 110.156 87.8677 112.423 87.8677H117.863L121.613 73.523C121.872 72.5353 121.198 71.5476 120.185 71.4235L120.182 71.4209Z" fill="#03133F"/>
<path d="M123.989 69.8734C122.616 69.0149 121.619 68.3893 120.357 68.5286C119.676 68.6046 119.023 68.8908 117.936 68.7312C117.141 68.6147 117.133 68.4071 116.389 68.2602C114.689 67.9259 113.198 68.7059 112.891 68.8655C111.703 69.486 111.744 70.0102 110.941 70.4129C110.298 70.7345 109.295 70.8865 107.669 70.2432C107.889 70.9143 109.247 71.7982 110.566 71.6513C112.347 71.4563 112.537 69.5493 114.502 69.2302C115.614 69.0478 115.528 69.6632 117.427 69.7341C119.324 69.8051 120.099 69.2175 121.464 69.7341C121.603 69.7873 122.161 70.0077 122.877 70.6434C125.739 73.181 126.339 78.0867 126.509 79.624C126.522 79.7278 126.532 79.8266 126.542 79.9254C129.579 79.7025 130.764 78.9908 131.055 78.1475C131.873 75.7795 126.091 71.1879 123.992 69.8734H123.989Z" fill="#EA9488"/>
<path d="M127.527 67.2833C126.833 67.0554 126.121 66.8629 125.407 66.716C123.7 66.3614 122.361 66.3336 121.064 66.3057C119.694 66.2779 119.195 66.3538 118.754 66.4222C118.354 66.483 117.974 66.5413 116.931 66.5083L116.728 66.5007C115.89 66.4703 115.1 66.4399 114.618 67.0199C114.284 67.4251 114.094 68.1368 114.378 68.7092C114.423 68.8029 114.482 68.889 114.55 68.97C114.677 69.1194 114.912 69.1068 115.026 68.9447C115.105 68.8333 115.1 68.6838 115.013 68.58C114.975 68.5369 114.945 68.4888 114.92 68.4382C114.74 68.0785 114.907 67.6151 115.084 67.4023C115.373 67.0528 115.991 67.0756 116.705 67.101L116.91 67.1086C118.012 67.144 118.417 67.0832 118.845 67.0174C119.283 66.949 119.734 66.8806 121.051 66.9085C122.32 66.9363 123.632 66.9617 125.286 67.3061C125.977 67.4505 126.666 67.6328 127.335 67.8557C127.492 67.9089 127.661 67.8253 127.717 67.6683C127.773 67.5087 127.689 67.334 127.527 67.2808V67.2833Z" fill="#DD7472"/>
<path d="M115.406 65.5527C115.368 65.3855 115.198 65.2842 115.031 65.3273C114.385 65.4995 113.77 65.735 113.198 66.0339C112.385 66.4568 111.794 66.9279 110.979 67.5788C110.594 67.8878 110.417 68.0498 110.277 68.179C110.131 68.3158 110.024 68.4145 109.728 68.6298C109.616 68.7109 109.518 68.7818 109.432 68.84C109.107 69.0654 108.895 69.2148 108.771 69.5137C108.596 69.9341 108.682 70.4457 109.029 71.0383C109.118 71.1903 109.318 71.2359 109.462 71.1371C109.594 71.0485 109.632 70.8712 109.551 70.7344C109.307 70.3191 109.231 69.9797 109.328 69.7467C109.381 69.6175 109.48 69.5441 109.776 69.3364C109.865 69.2731 109.968 69.2022 110.082 69.1186C110.407 68.8831 110.528 68.7691 110.685 68.6222C110.827 68.4931 110.987 68.3436 111.354 68.0498C112.141 67.4192 112.711 66.9659 113.474 66.5683C114.008 66.2897 114.585 66.0693 115.188 65.9073C115.345 65.8667 115.439 65.7072 115.403 65.5476L115.406 65.5527Z" fill="#DD7472"/>
<path d="M134.274 87.8975C133.58 86.155 133.616 84.6963 133.165 84.6684C132.577 84.6304 132.638 87.0972 131.045 89.1081C128.652 92.132 124.313 91.8559 124.384 92.5398C124.44 93.0589 126.983 93.6566 129.227 92.9424C130.115 92.6613 130.417 92.3447 131.648 92.0332C132.098 91.9193 133.307 91.6255 134.573 91.7293C137.075 91.937 138.25 94.386 138.81 93.4439C139.289 92.641 135.687 91.4482 134.269 87.8949L134.274 87.8975Z" fill="#CC6F62"/>
<path d="M100.101 75.9567L108.778 78.5299L114.228 71.2765L100.101 69.6328V75.9567Z" fill="#0E2F77"/>
<path d="M120.183 70.6121L115.649 70.0625C114.755 69.8776 113.826 70.1283 113.149 70.7412L106.094 77.1107C103.797 79.1849 103.86 82.8091 106.23 84.8023C107.965 86.2585 110.156 87.0588 112.423 87.0588H117.863L121.613 72.7141C121.872 71.7264 121.198 70.7387 120.185 70.6146L120.183 70.6121Z" fill="#07195B"/>
<path d="M126.456 93.2101C132.4 91.5641 135.883 85.4118 134.237 79.4686C132.591 73.5253 126.439 70.0417 120.496 71.6877C114.552 73.3336 111.069 79.4859 112.715 85.4292C114.361 91.3724 120.513 94.856 126.456 93.2101Z" fill="#0E2F77"/>
<path d="M127.841 90.6145C132.345 88.2046 134.042 82.5998 131.632 78.0959C129.222 73.592 123.618 71.8945 119.114 74.3044C114.61 76.7143 112.912 82.3191 115.322 86.823C117.732 91.3269 123.337 93.0245 127.841 90.6145Z" fill="#07195B"/>
<path d="M123.68 90.433C118.572 90.433 114.431 86.2922 114.431 81.184C114.431 80.8978 114.444 80.6141 114.472 80.333C114.312 81.0117 114.228 81.7183 114.228 82.4452C114.228 87.5535 118.369 91.6943 123.477 91.6943C128.3 91.6943 132.258 88.0043 132.689 83.2962C131.734 87.3863 128.064 90.433 123.68 90.433Z" fill="#021549"/>
<path d="M125.189 89.2638C129.407 87.9863 131.791 83.5311 130.514 79.313C129.236 75.0948 124.781 72.711 120.563 73.9885C116.345 75.2661 113.961 79.7212 115.238 83.9394C116.516 88.1575 120.971 90.5414 125.189 89.2638Z" fill="#258AEF"/>
<path d="M117.65 79.9552C117.65 77.6506 118.627 75.5764 120.188 74.1201C117.1 75.2218 114.892 78.1723 114.892 81.6369C114.892 86.0436 118.465 89.6171 122.872 89.6171C124.977 89.6171 126.889 88.8016 128.315 87.472C127.476 87.7709 126.572 87.9355 125.63 87.9355C121.223 87.9355 117.65 84.362 117.65 79.9552Z" fill="#1978E0"/>
<path d="M110.594 74.2061C110.222 74.2061 109.92 74.5074 109.92 74.8797C109.92 75.252 110.222 75.5534 110.594 75.5534C110.966 75.5534 111.268 75.252 111.268 74.8797C111.268 74.5074 110.966 74.2061 110.594 74.2061Z" fill="#183B93"/>
<path d="M123.956 76.1473C123.148 77.5453 127.56 80.5034 128.295 78.3684C128.849 76.7551 124.812 74.6632 123.956 76.1473Z" fill="#6EC4FF"/>
<path d="M129.454 83.3624C129.356 83.3877 128.203 83.7017 127.638 84.7756C127.157 85.6924 127.261 86.8675 127.894 87.84C129.282 86.7155 130.285 85.1326 130.675 83.3218C130.343 83.2636 129.923 83.2433 129.457 83.3624H129.454Z" fill="#2A99F4"/>
<path d="M132.197 76.1401C131.08 74.5395 129.72 73.5568 128.657 72.9769C128.431 72.8528 128.148 72.9465 128.036 73.1795C127.93 73.3998 128.016 73.6632 128.229 73.7797C129.196 74.3065 130.435 75.203 131.453 76.6618C132.44 78.0775 132.858 79.5034 133.03 80.562C133.068 80.8026 133.286 80.9698 133.529 80.9419H133.532C133.788 80.9115 133.97 80.676 133.927 80.4227C133.74 79.2603 133.284 77.6926 132.197 76.1401Z" fill="#134191"/>
<path d="M100.793 76.9933C102.888 76.4989 104.185 74.3996 103.691 72.3045C103.196 70.2095 101.097 68.9119 99.002 69.4064C96.9069 69.9009 95.6094 72.0001 96.1038 74.0952C96.5983 76.1903 98.6976 77.4878 100.793 76.9933Z" fill="#07195B"/>
<path d="M189.657 117.794C188.786 116.814 188.386 116.459 184.47 112.881C179.162 108.028 176.272 105.366 172.286 102.163C171.035 101.157 170.245 100.554 169.219 99.8807C167.626 98.8322 166.603 98.356 162.766 96.3603C160.596 95.2308 154.039 88.0787 154.039 88.0787C151.549 87.4962 151.493 91.9409 145.542 97.7558C138.866 104.277 137.052 101.942 136.662 104.244C136.445 105.536 143.052 112.176 144.402 115.183C146.887 120.714 155.429 133.767 166.233 145.501C186.79 167.825 217.693 157.497 198.402 127.767C197.425 126.26 192.486 120.977 189.652 117.794H189.657Z" fill="#3E51C1"/>
<path d="M157.83 101.03C157.539 100.855 157.161 100.944 156.982 101.232C156.374 102.197 155.708 103.127 154.993 104.003C152.215 107.412 148.675 110.127 144.458 112.08C144.149 112.221 144.015 112.586 144.151 112.898C144.293 113.219 144.671 113.359 144.99 113.212C149.376 111.178 153.064 108.349 155.961 104.793C156.708 103.876 157.404 102.907 158.038 101.901C158.225 101.605 158.131 101.212 157.83 101.03Z" fill="#283AA3"/>
<path d="M51.1082 126.224C51.1082 126.224 28.9023 126.069 1.36783 137.236C-0.455647 137.975 -6.79476 150.509 0.820787 155.106C9.81914 160.536 20.6232 158.314 35.8695 156.623C51.0373 154.938 58.9846 153.71 61.7756 152.884C73.9777 149.265 80.9677 145.806 86.6559 142.146C92.8709 138.15 95.9784 136.152 95.7176 133.976C94.8286 126.528 56.4014 126.262 51.1032 126.224H51.1082Z" fill="#3845B8"/>
<path d="M41.3933 126.901C37.9616 132.212 32.0201 140.802 22.6394 146.265C14.5933 150.95 5.91908 152.326 -1.89148 152.262C-1.31151 153.369 -0.43523 154.347 0.823476 155.106C9.07724 160.088 18.8531 158.629 32.1797 157.049C30.8171 156.114 29.9915 154.871 29.9282 153.554C29.6344 147.448 45.7114 135.466 46.2205 126.442C44.8605 126.541 43.2421 126.688 41.3958 126.901H41.3933Z" fill="#283AA3"/>
<path d="M54.4564 97.7558C48.5048 91.9409 48.4491 87.4962 45.9595 88.0787C45.9595 88.0787 39.4026 95.2308 37.2322 96.3603C33.3978 98.356 32.3721 98.8322 30.7791 99.8807C29.7534 100.554 28.9632 101.157 27.7121 102.163C23.7258 105.366 20.8361 108.026 15.5277 112.881C11.6149 116.459 11.2147 116.814 10.341 117.794C7.50696 120.977 2.56838 126.26 1.59079 127.767C-17.7001 157.495 13.2028 167.823 33.76 145.501C44.5641 133.767 53.104 120.714 55.591 115.183C56.9409 112.176 63.551 105.538 63.3307 104.244C62.9407 101.942 61.1299 104.277 54.4514 97.7558H54.4564Z" fill="#3E51C1"/>
<path d="M55.5429 112.079C51.3287 110.126 47.7855 107.411 45.0073 104.003C44.2931 103.126 43.6245 102.194 43.0192 101.232C42.8394 100.946 42.462 100.855 42.1707 101.029C41.8694 101.209 41.7757 101.602 41.9631 101.9C42.5962 102.906 43.2927 103.878 44.0398 104.793C46.9371 108.348 50.6271 111.18 55.0111 113.211C55.3302 113.358 55.7075 113.219 55.8494 112.897C55.9861 112.586 55.8494 112.223 55.5429 112.079Z" fill="#283AA3"/>
<path d="M139.717 168.569C140.188 165.188 141.297 159.66 142.578 153.939C140.927 152.503 139.36 150.978 138.498 151.051C136.232 151.241 135.052 161.726 134.811 163.411C131.291 188.06 130.964 205.741 132.104 217.289C132.294 219.204 132.516 221.238 132.78 223.38H140.793C138.233 205.467 137.179 186.743 139.714 168.569H139.717Z" fill="#283AA3"/>
<path d="M64.1665 163.281C63.9259 161.596 62.7482 151.109 60.479 150.921C59.5496 150.843 57.7919 152.633 55.9938 154.158C59.4381 165.122 62.3152 180.325 61.8061 202.07C61.72 205.773 61.4566 212.75 59.7724 223.377H66.1825C66.4534 221.189 66.6839 219.112 66.8764 217.159C68.0161 205.611 67.6919 187.933 64.169 163.281H64.1665Z" fill="#283AA3"/>
<path d="M167.644 147.708H32.1796V157.048H167.644V147.708Z" fill="#3845B8"/>
</g>
</svg>
