<svg width="17" height="21" viewBox="0 0 17 21" fill="none" xmlns="http://www.w3.org/2000/svg">
<path d="M1.93103 17.2422C1.6477 17.2422 1.41003 17.1462 1.21803 16.9542C1.0267 16.7629 0.93103 16.5255 0.93103 16.2422C0.93103 15.9589 1.0267 15.7215 1.21803 15.5302C1.41003 15.3382 1.6477 15.2422 1.93103 15.2422H2.93103V8.24219C2.93103 6.85885 3.3477 5.62952 4.18103 4.55419C5.01436 3.47952 6.0977 2.77552 7.43103 2.44219V1.74219C7.43103 1.32552 7.57703 0.971521 7.86903 0.680187C8.16036 0.388187 8.51436 0.242188 8.93103 0.242188C9.3477 0.242188 9.7017 0.388187 9.99303 0.680187C10.285 0.971521 10.431 1.32552 10.431 1.74219V2.44219C11.7644 2.77552 12.8477 3.47952 13.681 4.55419C14.5144 5.62952 14.931 6.85885 14.931 8.24219V15.2422H15.931C16.2144 15.2422 16.4517 15.3382 16.643 15.5302C16.835 15.7215 16.931 15.9589 16.931 16.2422C16.931 16.5255 16.835 16.7629 16.643 16.9542C16.4517 17.1462 16.2144 17.2422 15.931 17.2422H1.93103ZM8.93103 20.2422C8.38103 20.2422 7.91036 20.0465 7.51903 19.6552C7.12703 19.2632 6.93103 18.7922 6.93103 18.2422H10.931C10.931 18.7922 10.7354 19.2632 10.344 19.6552C9.95203 20.0465 9.48103 20.2422 8.93103 20.2422ZM4.93103 15.2422H12.931V8.24219C12.931 7.14219 12.5394 6.20052 11.756 5.41719C10.9727 4.63385 10.031 4.24219 8.93103 4.24219C7.83103 4.24219 6.88936 4.63385 6.10603 5.41719C5.3227 6.20052 4.93103 7.14219 4.93103 8.24219V15.2422Z" fill="#4B86B4"/>
</svg>
