<svg width="70" height="70" viewBox="0 0 70 70" fill="none" xmlns="http://www.w3.org/2000/svg">
<g clip-path="url(#clip0_1676_7077)">
<rect width="360" height="768" transform="translate(-144 -343)" fill="#F9F9F9"/>
<g filter="url(#filter0_d_1676_7077)">
<rect x="6" y="5" width="60" height="60" rx="30" fill="white"/>
</g>
<path fill-rule="evenodd" clip-rule="evenodd" d="M21.8032 26.5007C21.9808 26.5029 22.16 26.5525 22.3214 26.6539L35.408 34.8725L48.4946 26.6539C48.6559 26.5525 48.8351 26.5029 49.0127 26.5007C48.9716 24.8676 48.8069 23.907 48.1477 23.2478C47.269 22.3691 45.8548 22.3691 43.0264 22.3691H27.7896C24.9611 22.3691 23.5469 22.3691 22.6682 23.2478C22.009 23.907 21.8444 24.8676 21.8032 26.5007ZM49.0264 28.6816L36.4716 36.5662C35.8213 36.9746 34.9946 36.9746 34.3443 36.5662L21.7896 28.6816V40.3165C21.7896 43.1449 21.7896 44.5592 22.6682 45.4378C23.5469 46.3165 24.9611 46.3165 27.7896 46.3165H43.0264C45.8548 46.3165 47.269 46.3165 48.1477 45.4378C49.0264 44.5592 49.0264 43.1449 49.0264 40.3165V28.6816Z" fill="#FEB739"/>
</g>
<defs>
<filter id="filter0_d_1676_7077" x="-19.3333" y="-15.2667" width="110.667" height="110.667" filterUnits="userSpaceOnUse" color-interpolation-filters="sRGB">
<feFlood flood-opacity="0" result="BackgroundImageFix"/>
<feColorMatrix in="SourceAlpha" type="matrix" values="0 0 0 0 0 0 0 0 0 0 0 0 0 0 0 0 0 0 127 0" result="hardAlpha"/>
<feOffset dy="5.06667"/>
<feGaussianBlur stdDeviation="12.6667"/>
<feColorMatrix type="matrix" values="0 0 0 0 0 0 0 0 0 0 0 0 0 0 0 0 0 0 0.25 0"/>
<feBlend mode="normal" in2="BackgroundImageFix" result="effect1_dropShadow_1676_7077"/>
<feBlend mode="normal" in="SourceGraphic" in2="effect1_dropShadow_1676_7077" result="shape"/>
</filter>
<clipPath id="clip0_1676_7077">
<rect width="360" height="768" fill="white" transform="translate(-144 -343)"/>
</clipPath>
</defs>
</svg>
