<svg width="13" height="13" viewBox="0 0 13 13" fill="none" xmlns="http://www.w3.org/2000/svg">
<path d="M6.50716 0.755136C6.28919 0.806699 6.21888 0.869981 5.01184 2.0817C3.89153 3.20436 3.82122 3.27936 3.772 3.41295C3.697 3.60748 3.697 3.87467 3.76966 4.06451C3.83997 4.24264 4.03684 4.45592 4.21028 4.54029C4.36731 4.61764 4.66731 4.64342 4.84075 4.59654L4.94856 4.56607L5.28606 4.90357L5.62356 5.24107L3.34075 7.52623C1.23841 9.63092 1.05325 9.82311 0.985282 9.96607C0.839969 10.2661 0.832938 10.5708 0.966532 10.8637C1.03684 11.0161 1.22669 11.227 1.36731 11.309C1.66028 11.4801 2.10559 11.4825 2.38919 11.3184C2.43372 11.2903 3.50481 10.2379 4.76809 8.97701L7.06497 6.68248L7.4095 7.02701L7.75638 7.37389L7.71887 7.49107C7.59934 7.87779 7.822 8.34654 8.21106 8.52701C8.33528 8.58561 8.38216 8.59264 8.57669 8.59264C8.96106 8.59264 8.88606 8.65123 10.2361 7.30592C11.6142 5.93482 11.565 5.99811 11.565 5.60436C11.565 5.38639 11.5579 5.34186 11.504 5.22936C11.354 4.91529 11.0868 4.73482 10.7493 4.71842C10.6228 4.71373 10.5197 4.72311 10.4493 4.7442L10.3392 4.77701L8.93997 3.37779L7.54075 1.97857L7.57122 1.88717C7.58763 1.83561 7.60169 1.71139 7.60169 1.60826C7.60169 1.44654 7.58997 1.39732 7.52903 1.26607C7.44466 1.08326 7.34856 0.968418 7.19856 0.874668C6.997 0.745762 6.73684 0.70123 6.50716 0.755136ZM6.90794 1.24732C7.08841 1.33639 7.17747 1.53795 7.12356 1.73951C7.10013 1.83092 6.98294 1.95748 5.99153 2.95123C5.38216 3.56295 4.84544 4.08092 4.79856 4.1067C4.47044 4.27545 4.10247 3.98482 4.19388 3.63092C4.21731 3.54186 4.35091 3.39889 5.33763 2.40748C6.08763 1.65514 6.48606 1.27311 6.54934 1.24264C6.67356 1.18639 6.78137 1.18639 6.90794 1.24732ZM9.01028 6.02623L8.04934 6.98717L6.68997 5.62779L5.33059 4.26842L6.29153 3.30748L7.25247 2.34654L8.61184 3.70592L9.97122 5.06529L9.01028 6.02623ZM10.9134 5.24107C11.0868 5.3442 11.1595 5.58092 11.0751 5.77545C11.0329 5.87154 8.82278 8.07701 8.73372 8.10982C8.48294 8.20357 8.18997 8.03248 8.16184 7.77701C8.13606 7.55904 8.12434 7.57545 9.31262 6.38248C9.91966 5.77311 10.454 5.25279 10.4986 5.22936C10.6204 5.16373 10.7868 5.16842 10.9134 5.24107ZM6.46028 6.62857L6.18606 6.90514L5.79934 6.51842L5.41263 6.1317L5.68684 5.85748L5.96341 5.58092L6.35013 5.96764L6.73684 6.35436L6.46028 6.62857ZM4.02981 9.06373C2.78997 10.3059 2.18294 10.8965 2.11966 10.927C1.93216 11.0137 1.66028 10.9739 1.51263 10.8356C1.42356 10.7512 1.3345 10.559 1.3345 10.4465C1.3345 10.2075 1.25013 10.3012 3.23059 8.31607L5.07278 6.47154L5.4595 6.85826L5.84622 7.24498L4.02981 9.06373Z" fill="#3B4B53"/>
<path d="M6.6525 3.68069C6.55407 3.77913 6.55875 3.88929 6.66657 4.00882C6.73922 4.08851 6.74625 4.10726 6.72516 4.16351C6.68766 4.26429 6.69703 4.50335 6.74625 4.60882C6.80016 4.73069 6.94547 4.8596 7.0861 4.91351C7.24078 4.97444 7.4236 4.95101 7.66735 4.84319C7.89703 4.74007 7.94625 4.72835 8.02594 4.7471C8.0986 4.76585 8.16657 4.90179 8.14547 4.98616C8.11969 5.08929 7.99313 5.20413 7.84782 5.25569C7.77047 5.28382 7.6861 5.33304 7.66266 5.36585C7.54782 5.51116 7.65797 5.7221 7.85016 5.7221C7.90407 5.7221 8.01657 5.69398 8.10094 5.66116L8.25328 5.60023L8.31422 5.65882C8.3986 5.73382 8.4736 5.75023 8.56735 5.71038C8.6611 5.67054 8.73141 5.54632 8.70797 5.45491C8.70094 5.4221 8.66344 5.36116 8.62594 5.31663L8.55797 5.24163L8.59313 5.10335C8.62125 4.98851 8.6236 4.93929 8.60016 4.8221C8.53453 4.47991 8.29547 4.27132 7.97203 4.26898C7.84782 4.26898 7.78453 4.28538 7.58297 4.37444C7.33219 4.48226 7.24782 4.50101 7.1986 4.45179C7.11422 4.36741 7.21969 4.17991 7.39782 4.10023C7.52203 4.04632 7.56891 3.98069 7.56891 3.86351C7.56891 3.79554 7.5525 3.75569 7.50094 3.70413C7.41422 3.61976 7.31344 3.61507 7.16578 3.69007L7.05797 3.74398L6.98532 3.67835C6.88219 3.5846 6.7486 3.58694 6.6525 3.68069Z" fill="#3B4B53"/>
<path d="M11.7689 7.29668C11.4431 7.62246 11.1642 7.9084 11.1501 7.93418C11.1384 7.95762 11.1267 8.01621 11.1267 8.06074C11.1267 8.17559 11.2345 8.27637 11.3587 8.27637C11.4431 8.27637 11.4783 8.24355 12.0783 7.6459L12.7087 7.01543L12.6947 6.9123C12.6759 6.77871 12.5939 6.70605 12.4603 6.70605C12.3666 6.70605 12.3548 6.71543 11.7689 7.29668Z" fill="#3B4B53"/>
<path d="M11.2462 8.78949C11.1571 8.8809 11.1524 9.01684 11.2345 9.11293L11.2907 9.17856L11.9774 9.18559C12.7228 9.19262 12.772 9.18559 12.8306 9.07074C12.8728 8.99106 12.8751 8.93012 12.8376 8.85043C12.7813 8.72856 12.7392 8.72153 11.9985 8.72153H11.3142L11.2462 8.78949Z" fill="#3B4B53"/>
<path d="M6.20241 10.0576C6.11101 10.1302 6.09226 10.238 6.09226 10.7068V11.1357H5.57663C5.02116 11.1357 4.96491 11.1451 4.90632 11.2552C4.86179 11.3419 4.8571 12.5068 4.90163 12.6005C4.96257 12.7365 4.72585 12.7294 8.8696 12.7294C13.0133 12.7294 12.7766 12.7365 12.8376 12.6005C12.8774 12.5161 12.8774 11.349 12.8376 11.2646C12.7837 11.1474 12.7274 11.1357 12.1508 11.1357H11.6235V10.6458C11.6235 10.1607 11.6235 10.1536 11.5673 10.088L11.511 10.0224L8.88601 10.0154C6.27038 10.0107 6.26335 10.0107 6.20241 10.0576ZM11.1548 10.8076V11.1357H10.4962H9.83757L9.7696 11.2036C9.68054 11.2951 9.67585 11.431 9.75788 11.5271L9.81413 11.5927L11.1055 11.5997L12.3969 11.6044V11.9326V12.2607H8.8696H5.34226V11.9326V11.6044L6.63366 11.5997L7.92507 11.5927L7.98132 11.5271C8.05866 11.438 8.05866 11.3021 7.98132 11.213L7.92507 11.1474L7.24304 11.1404L6.56101 11.1333V10.8076V10.4794H8.85788H11.1548V10.8076Z" fill="#3B4B53"/>
<path d="M8.77355 11.1568C8.6423 11.2131 8.6048 11.4123 8.70324 11.5271C8.75011 11.5811 8.77824 11.5928 8.86964 11.5928C9.01027 11.5928 9.0923 11.5107 9.0923 11.3701C9.0923 11.2061 8.92355 11.0936 8.77355 11.1568Z" fill="#3B4B53"/>
</svg>
