<svg width="20" height="20" viewBox="0 0 20 20" fill="none" xmlns="http://www.w3.org/2000/svg">
<g clip-path="url(#clip0_1315_7800)">
<path d="M7.78125 0.0621738C7.35156 0.175455 6.96094 0.511393 6.76562 0.929361C6.67187 1.12467 6.66016 1.2028 6.65625 1.5778L6.65234 1.99967L4.32031 4.33171L1.99219 6.65983H1.57422C1.19922 6.65983 1.12891 6.67155 0.929687 6.7653C0.667969 6.88639 0.355469 7.16764 0.214844 7.40202C0.09375 7.60905 0 7.96452 0 8.20671C0 8.44889 0.125 8.84733 0.269531 9.06217C0.335937 9.15983 1.19141 10.0387 2.17578 11.0192C4.12109 12.9567 4.14062 12.9723 4.63672 13.0387C5.18359 13.109 5.66016 12.9372 6.02734 12.5387C6.33203 12.2106 6.42187 11.9684 6.42187 11.4567L6.42578 11.0583L6.63672 10.8434L6.85156 10.6286L6.91406 10.734C7.02734 10.9176 7.33984 11.1637 7.54687 11.234C7.88672 11.3473 8.34766 11.2653 8.65234 11.0387C8.72656 10.984 8.89844 11.1715 12.3594 15.1481C14.3555 17.4411 16.0781 19.3903 16.1875 19.4762C17.1211 20.2301 18.4414 20.1559 19.2969 19.2965C20.2109 18.3825 20.2344 16.984 19.3437 16.0583C19.1992 15.9098 18.0273 14.8669 16.7383 13.7458C10.7656 8.55046 10.9766 8.73796 11.0391 8.65202C11.2773 8.31999 11.3516 7.90202 11.2344 7.54655C11.1641 7.33952 10.918 7.02702 10.7344 6.91374L10.6289 6.85124L10.8437 6.63639L11.0586 6.42546H11.4375C11.9375 6.42546 12.2227 6.32389 12.543 6.02311C13.0586 5.54655 13.1992 4.82389 12.9062 4.18717C12.8164 3.99577 12.543 3.7028 10.9609 2.12077C9.67578 0.835611 9.06641 0.25358 8.94531 0.19108C8.55859 -0.000326157 8.16797 -0.0432949 7.78125 0.0621738ZM8.49609 0.855143C8.60156 0.905924 9.23828 1.51921 10.4375 2.71842C12.1445 4.43717 12.2187 4.51921 12.2578 4.69889C12.3789 5.29264 11.8711 5.77702 11.2852 5.62467C11.1289 5.58561 10.9336 5.40202 9.34375 3.81608C8.37109 2.84342 7.53906 1.98405 7.49609 1.90592C7.45312 1.81608 7.42187 1.68327 7.42187 1.56217C7.42187 0.995768 7.99219 0.620768 8.49609 0.855143ZM8.76953 4.33561L10.4102 5.97624L8.19141 8.19108L5.97656 10.4098L4.33594 8.76921C3.43359 7.86686 2.69531 7.11296 2.69531 7.08952C2.69531 7.03874 7.03906 2.69499 7.08984 2.69499C7.11328 2.69499 7.86719 3.43327 8.76953 4.33561ZM1.90625 7.49577C1.98437 7.53874 2.84375 8.37077 3.81641 9.34342C5.40234 10.9333 5.58594 11.1286 5.625 11.2848C5.77734 11.8708 5.29297 12.3786 4.69922 12.2575C4.51953 12.2184 4.4375 12.1442 2.71875 10.4372C1.51953 9.23796 0.90625 8.60124 0.855469 8.49577C0.679687 8.12077 0.839844 7.69499 1.23047 7.48796C1.39453 7.39811 1.72656 7.40592 1.90625 7.49577ZM10.3945 7.65202C10.4805 7.73796 10.5078 7.80436 10.5078 7.91764C10.5078 8.05827 10.4609 8.11296 9.28516 9.28483C8.11328 10.4606 8.05859 10.5075 7.91797 10.5075C7.69922 10.5075 7.53906 10.3395 7.53906 10.109V9.94108L8.74219 8.74186L9.94141 7.53874H10.1094C10.2461 7.53874 10.3047 7.56217 10.3945 7.65202ZM11.7852 10.4684C12.5117 11.1012 13.5859 12.0387 14.1758 12.5544L15.2422 13.488L14.3711 14.359C13.8906 14.8395 13.4844 15.2301 13.4727 15.2262C13.4609 15.2184 12.6094 14.2458 11.582 13.0661C10.5547 11.8825 9.61719 10.8083 9.5 10.6715L9.28125 10.4255L9.84766 9.85905C10.1562 9.55046 10.4219 9.30046 10.4375 9.30436C10.4531 9.31217 11.0586 9.83561 11.7852 10.4684ZM16.1523 14.277L16.4258 14.527L15.4687 15.484L14.5117 16.4411L14.2617 16.1481L14.0117 15.8512L14.9258 14.9372C15.4297 14.4333 15.8477 14.0231 15.8594 14.0231C15.8711 14.027 16.0039 14.1403 16.1523 14.277ZM17.9687 15.863C18.4531 16.2887 18.8867 16.695 18.9336 16.7653C19.1406 17.0778 19.1992 17.2653 19.1992 17.6559C19.1992 17.9762 19.1836 18.0583 19.0977 18.2419C18.7266 19.0309 17.8984 19.3981 17.1094 19.1208C16.8086 19.0153 16.5937 18.82 15.8984 18.0192C15.5273 17.5934 15.1758 17.195 15.1211 17.1364L15.0234 17.027L16.0156 16.0348C16.5625 15.488 17.0273 15.0544 17.0469 15.07C17.0703 15.0817 17.4844 15.4411 17.9687 15.863Z" fill="white"/>
<path d="M6.81283 4.05825C6.53158 4.26528 5.08627 5.75747 5.05893 5.87075C4.98471 6.16763 5.23862 6.42153 5.5394 6.34731C5.6058 6.33169 5.96908 5.99966 6.55502 5.41763C7.45737 4.51528 7.46127 4.50747 7.46127 4.3395C7.46127 4.20669 7.43783 4.1481 7.34799 4.05825C7.19565 3.90591 7.01596 3.90591 6.81283 4.05825Z" fill="white"/>
<path d="M4.23047 6.70703C4.09375 6.73438 3.94531 6.9375 3.94531 7.09766C3.94531 7.29297 4.12109 7.46094 4.32422 7.46094C4.51562 7.46094 4.62891 7.37891 4.6875 7.21094C4.75 7.01953 4.66016 6.8125 4.47656 6.73828C4.39844 6.70703 4.33203 6.68359 4.32812 6.68359C4.32031 6.6875 4.27734 6.69922 4.23047 6.70703Z" fill="white"/>
<path d="M1.76958 15.3671C1.37114 15.496 1.08208 15.746 0.902393 16.1327C0.816455 16.3124 0.80083 16.4022 0.80083 16.6796C0.80083 16.9726 0.816455 17.0429 0.918018 17.2538L1.03521 17.4921L0.871143 17.5976C0.48833 17.8358 0.140674 18.3515 0.0430175 18.8202C-0.0155762 19.0936 -0.01167 19.6561 0.0469238 19.7851C0.148486 20.0116 -0.140576 19.9999 5.4688 19.9999C11.0782 19.9999 10.7891 20.0116 10.8907 19.7851C10.9493 19.6561 10.9532 19.0936 10.8946 18.8202C10.7969 18.3515 10.4493 17.8358 10.0665 17.5976L9.90239 17.4921L10.0196 17.2538C10.1211 17.0429 10.1368 16.9726 10.1368 16.6796C10.1368 16.3827 10.125 16.3163 10.0079 16.0858C9.85942 15.7851 9.64849 15.578 9.33989 15.4335L9.12114 15.3319L5.52739 15.3241C2.63286 15.3202 1.90239 15.328 1.76958 15.3671ZM9.06255 16.1718C9.23833 16.2616 9.37505 16.4843 9.37505 16.6835C9.37505 16.8593 9.23442 17.0858 9.06255 17.1835C8.91411 17.2655 8.9063 17.2655 5.4688 17.2655C2.0313 17.2655 2.02349 17.2655 1.87505 17.1835C1.47661 16.9608 1.4688 16.4218 1.85942 16.1874L2.01177 16.0936H5.46099C8.83989 16.0936 8.91411 16.0936 9.06255 16.1718ZM9.50005 18.1757C9.8477 18.3476 10.0782 18.6601 10.1407 19.0546L10.168 19.2186H5.4727C0.964892 19.2186 0.781299 19.2147 0.781299 19.1483C0.781299 19.0038 0.902393 18.6796 1.01177 18.5272C1.1563 18.3319 1.32817 18.203 1.58208 18.1171C1.76177 18.0546 2.04692 18.0507 5.52739 18.0585L9.27739 18.0663L9.50005 18.1757Z" fill="white"/>
</g>
<defs>
<clipPath id="clip0_1315_7800">
<rect width="20" height="20" fill="white"/>
</clipPath>
</defs>
</svg>
