<svg width="18" height="14" viewBox="0 0 18 14" fill="none" xmlns="http://www.w3.org/2000/svg">
<path fill-rule="evenodd" clip-rule="evenodd" d="M0.0602535 3.17743C-6.41657e-10 3.92153 0 4.8423 0 6V8C0 10.8284 0 12.2426 0.87868 13.1213C1.75736 14 3.17157 14 6 14H12C14.8284 14 16.2426 14 17.1213 13.1213C18 12.2426 18 10.8284 18 8V6C18 4.8423 18 3.92153 17.9397 3.17743L9.97129 7.60436C9.36724 7.93994 8.63276 7.93994 8.02871 7.60436L0.0602535 3.17743ZM0.614006 1.19716L9 5.85604L17.386 1.19716C17.3081 1.08337 17.2203 0.977629 17.1213 0.87868C16.2426 0 14.8284 0 12 0H6C3.17157 0 1.75736 0 0.87868 0.87868C0.77973 0.977629 0.691924 1.08337 0.614006 1.19716Z" fill="#3B4B53"/>
</svg>
