<svg width="174" height="174" viewBox="0 0 174 174" fill="none" xmlns="http://www.w3.org/2000/svg">
<circle cx="87" cy="87" r="85.7936" fill="#4B86B4" stroke="#4B86B4" stroke-width="2.4128"/>
<path d="M23.5679 96.1602L35.6126 69.1368H41.7893L53.8726 96.1602H47.3098L37.427 72.3024H39.8977L29.9763 96.1602H23.5679ZM29.5902 90.3694L31.2502 85.621H45.1479L46.8466 90.3694H29.5902ZM64.4972 96.469C62.7728 96.469 61.2287 96.1344 59.8646 95.4653C58.5263 94.7961 57.484 93.7795 56.7376 92.4155C55.9913 91.0257 55.6181 89.2628 55.6181 87.1266V75.3908H61.6404V86.2387C61.6404 87.9631 62.0007 89.237 62.7214 90.0606C63.4677 90.8584 64.5101 91.2573 65.8484 91.2573C66.7749 91.2573 67.5984 91.0643 68.3191 90.6783C69.0397 90.2665 69.6059 89.6488 70.0177 88.8252C70.4295 87.9759 70.6354 86.9207 70.6354 85.6597V75.3908H76.6577V96.1602H70.9442V90.4466L71.9865 92.1067C71.2916 93.5479 70.2622 94.6417 68.8981 95.3881C67.5598 96.1087 66.0929 96.469 64.4972 96.469ZM79.4711 96.1602L88.7749 83.961L88.6591 87.2811L79.7414 75.3908H86.4972L92.1335 83.1503L89.5856 83.2275L95.4149 75.3908H101.823L92.867 87.1652V83.9224L102.132 96.1602H95.2991L89.3926 87.8987L91.9019 88.2462L86.0339 96.1602H79.4711ZM117.191 96.469C115.364 96.469 113.794 96.0829 112.481 95.3109C111.169 94.5388 110.165 93.3677 109.47 91.7978C108.775 90.2021 108.428 88.1947 108.428 85.7755C108.428 83.3305 108.788 81.323 109.509 79.7531C110.255 78.1832 111.285 77.0122 112.597 76.2401C113.91 75.468 115.441 75.0819 117.191 75.0819C119.147 75.0819 120.897 75.5195 122.441 76.3945C124.011 77.2695 125.247 78.5049 126.147 80.1006C127.074 81.6962 127.537 83.5879 127.537 85.7755C127.537 87.9373 127.074 89.8161 126.147 91.4118C125.247 93.0074 124.011 94.2557 122.441 95.1564C120.897 96.0315 119.147 96.469 117.191 96.469ZM104.915 96.1602V67.5154H110.937V79.5987L110.551 85.7369L110.667 91.9136V96.1602H104.915ZM116.149 91.5276C117.153 91.5276 118.04 91.296 118.813 90.8327C119.61 90.3694 120.241 89.7132 120.704 88.8638C121.193 87.9888 121.438 86.9593 121.438 85.7755C121.438 84.5658 121.193 83.5364 120.704 82.6871C120.241 81.8378 119.61 81.1815 118.813 80.7182C118.04 80.255 117.153 80.0234 116.149 80.0234C115.145 80.0234 114.244 80.255 113.446 80.7182C112.649 81.1815 112.018 81.8378 111.555 82.6871C111.092 83.5364 110.86 84.5658 110.86 85.7755C110.86 86.9593 111.092 87.9888 111.555 88.8638C112.018 89.7132 112.649 90.3694 113.446 90.8327C114.244 91.296 115.145 91.5276 116.149 91.5276ZM133.488 103.958C132.407 103.958 131.339 103.791 130.283 103.456C129.228 103.122 128.366 102.659 127.697 102.067L129.897 97.7816C130.361 98.1933 130.888 98.515 131.48 98.7467C132.098 98.9783 132.703 99.0941 133.295 99.0941C134.144 99.0941 134.813 98.8882 135.302 98.4764C135.817 98.0904 136.28 97.4341 136.692 96.5076L137.773 93.9597L138.236 93.3034L145.687 75.3908H151.477L142.096 97.4341C141.427 99.107 140.655 100.42 139.78 101.372C138.931 102.324 137.979 102.993 136.923 103.379C135.894 103.765 134.749 103.958 133.488 103.958ZM137.039 96.9709L127.774 75.3908H133.989L141.17 92.7629L137.039 96.9709Z" fill="white"/>
</svg>
