<svg width="35" height="34" viewBox="0 0 35 34" fill="none" xmlns="http://www.w3.org/2000/svg">
<path d="M17.5 33.808C27.165 33.808 35 26.2396 35 16.9035C35 7.56743 27.165 -0.000976562 17.5 -0.000976562C7.83502 -0.000976562 0 7.56743 0 16.9035C0 26.2396 7.83502 33.808 17.5 33.808Z" fill="#797979"/>
<path d="M14.6248 20.8095C14.1392 22.0277 13.6554 23.2459 13.1698 24.4641C12.7205 25.5913 11.6007 26.3352 10.3504 26.3352C8.17242 26.3352 6.70835 24.1753 7.58172 22.2465L13.4742 9.2259C13.9544 8.16346 15.0416 7.47559 16.2429 7.47559H18.7598C19.9611 7.47559 21.0483 8.16171 21.5284 9.2259L27.421 22.2482C28.2943 24.1771 26.8303 26.3369 24.6523 26.3369H24.5417C23.2915 26.3369 22.1699 25.5931 21.7223 24.4659L20.2673 20.8112C19.2744 18.317 15.6196 18.317 14.6267 20.8112L14.6248 20.8095Z" fill="white"/>
<path d="M16.6715 20.7411C16.4649 21.0562 16.1061 21.2452 15.722 21.2452H14.3141C13.3882 21.2452 12.8555 20.23 13.4045 19.5072L14.9718 17.4418C15.0552 17.3315 15.115 17.209 15.1512 17.083C15.1838 16.9675 15.1838 16.8432 15.1512 16.7277C15.115 16.6016 15.0552 16.4791 14.9718 16.3689L13.4045 14.3035C12.8573 13.5824 13.39 12.5654 14.3141 12.5654H15.722C16.1061 12.5654 16.4649 12.7545 16.6715 13.0695C17.1027 13.7189 18.0739 13.7416 18.5414 13.1168L18.6103 13.0205C18.8223 12.7352 19.1647 12.5654 19.529 12.5654H20.6904C21.6254 12.5654 22.1563 13.6016 21.5873 14.3192L20.087 16.2183C19.9276 16.4196 19.8497 16.6629 19.8569 16.9045C19.8497 17.146 19.9258 17.3893 20.087 17.5906L21.5873 19.4897C22.1563 20.2073 21.6254 21.2435 20.6904 21.2435H19.529C19.1666 21.2435 18.8241 21.0737 18.6103 20.7884L18.5414 20.6921C18.0758 20.0673 17.1027 20.09 16.6715 20.7394V20.7411Z" fill="#BEBEBE"/>
</svg>
