<svg width="112" height="30" viewBox="0 0 112 30" fill="none" xmlns="http://www.w3.org/2000/svg">
<path d="M43.7219 20.4399H38.0086C37.8764 20.4399 37.7577 20.5238 37.7097 20.6511L36.7812 23.1439C36.7331 23.2713 36.6145 23.3551 36.4823 23.3551H31.6403C31.4089 23.3551 31.2542 23.1097 31.3473 22.8923L38.1453 6.81599C38.1964 6.69484 38.3121 6.61719 38.4383 6.61719H43.3854C43.5131 6.61719 43.6273 6.69484 43.6784 6.81599L50.4763 22.8923C50.5695 23.1113 50.4133 23.3551 50.1834 23.3551H45.2483C45.1161 23.3551 44.9974 23.2713 44.9493 23.1439L44.0194 20.6511C43.9713 20.5238 43.8526 20.4399 43.7204 20.4399H43.7219ZM42.2707 15.925L41.165 12.9663C41.0598 12.6837 40.6737 12.6837 40.5671 12.9663L39.4614 15.925C39.3802 16.1425 39.535 16.3754 39.7603 16.3754H41.9717C42.1971 16.3754 42.3518 16.1425 42.2707 15.925Z" fill="#FEB739"/>
<path d="M64.9902 10.6072V23.0259C64.9902 23.2092 64.8475 23.3567 64.6702 23.3567H60.3376C60.1603 23.3567 60.0176 23.2092 60.0176 23.0259V22.8488C60.0176 22.5724 59.7126 22.4217 59.4993 22.5895C59.1642 22.8535 58.7977 23.0647 58.3981 23.2247C57.7806 23.4716 57.1256 23.5959 56.4315 23.5959C54.827 23.5959 53.5396 23.0896 52.5691 22.0769C51.5971 21.0643 51.1118 19.5392 51.1118 17.4984V10.6072C51.1118 10.4239 51.2545 10.2764 51.4318 10.2764H56.0184C56.1957 10.2764 56.3384 10.4239 56.3384 10.6072V16.5649C56.3384 17.458 56.4766 18.0948 56.7545 18.4784C57.0325 18.862 57.4411 19.053 57.9804 19.053C58.4897 19.053 58.9134 18.8418 59.2529 18.4194C59.5924 17.9969 59.7622 17.3306 59.7622 16.422V10.6072C59.7622 10.4239 59.9049 10.2764 60.0822 10.2764H64.6702C64.8475 10.2764 64.9902 10.4239 64.9902 10.6072Z" fill="#FEB739"/>
<path d="M75.1879 23.2045L73.8028 20.9696C73.6811 20.7723 73.4047 20.7646 73.2725 20.9556L71.7011 23.22C71.641 23.307 71.5448 23.3583 71.4412 23.3583H66.5857C66.3213 23.3583 66.171 23.0445 66.3318 22.8271L70.5818 17.0744C70.6675 16.9579 70.669 16.7964 70.5863 16.6783L66.4475 10.8044C66.2927 10.5854 66.4445 10.2779 66.7059 10.2779H71.8047C71.9114 10.2779 72.0105 10.3323 72.0706 10.4239L73.5204 12.6526C73.6451 12.8452 73.9185 12.8483 74.0477 12.6588L75.5801 10.4161C75.6401 10.3292 75.7378 10.2764 75.8415 10.2764H80.5152C80.7796 10.2764 80.9298 10.5885 80.7706 10.8075L76.6527 16.4407C76.5671 16.5572 76.5656 16.7187 76.6497 16.8352L80.8998 22.8287C81.0545 23.0476 80.9043 23.3552 80.6414 23.3552H75.4569C75.3472 23.3552 75.2465 23.2977 75.1879 23.203V23.2045Z" fill="#FEB739"/>
<path d="M93.7295 10.8622C94.6625 11.412 95.4031 12.201 95.9499 13.2292C96.4968 14.2574 96.7717 15.4501 96.7717 16.8045C96.7717 18.1588 96.4983 19.3547 95.9499 20.3922C95.4016 21.4281 94.6625 22.2217 93.7295 22.7715C92.7966 23.3213 91.775 23.5962 90.6648 23.5962C89.4209 23.5962 88.4323 23.3167 87.7007 22.7576C87.4919 22.5976 87.1959 22.7576 87.1959 23.0262C87.1959 23.2095 87.0532 23.3571 86.8759 23.3571H82.5433C82.366 23.3571 82.2233 23.2095 82.2233 23.0262V5.94507C82.2233 5.7618 82.366 5.61426 82.5433 5.61426H87.1313C87.3086 5.61426 87.4513 5.7618 87.4513 5.94507V10.474C87.4513 10.7411 87.7368 10.8917 87.9531 10.7458C88.6487 10.2752 89.5531 10.0391 90.6663 10.0391C91.7795 10.0391 92.7981 10.314 93.731 10.8638L93.7295 10.8622ZM90.8961 18.7055C91.2807 18.2504 91.4745 17.6183 91.4745 16.8045C91.4745 15.9906 91.2822 15.3616 90.8961 14.9159C90.51 14.4701 90.0173 14.2465 89.4164 14.2465C88.8154 14.2465 88.3212 14.4701 87.9366 14.9159C87.5505 15.3632 87.3582 15.9922 87.3582 16.8045C87.3582 17.6167 87.5505 18.252 87.9366 18.7055C88.3212 19.1605 88.8154 19.3873 89.4164 19.3873C90.0173 19.3873 90.5116 19.1605 90.8961 18.7055Z" fill="#4B86B4"/>
<path d="M111.679 10.2769C111.906 10.2769 112.061 10.5146 111.977 10.732L106.95 23.6213C106.286 25.3266 105.461 26.5225 104.476 27.2075C103.489 27.8924 102.278 28.2356 100.845 28.2356C100.136 28.2356 99.4219 28.1285 98.7053 27.9126C98.1104 27.734 97.6191 27.5088 97.23 27.237C97.0978 27.1438 97.0512 26.9652 97.1203 26.8161L98.5776 23.7005C98.6602 23.5235 98.8721 23.4629 99.0358 23.5654C99.2191 23.6803 99.4174 23.7782 99.6292 23.8589C99.9612 23.9863 100.28 24.05 100.589 24.05C101.058 24.05 101.434 23.9319 101.714 23.6943C101.821 23.6042 101.854 23.4474 101.8 23.3154L96.7478 10.7336C96.6606 10.5161 96.8154 10.2754 97.0437 10.2754H101.711C101.844 10.2754 101.962 10.3593 102.01 10.4866L104.249 16.4879C104.354 16.769 104.739 16.7705 104.845 16.4894L107.124 10.4851C107.172 10.3577 107.291 10.2754 107.422 10.2754H111.679V10.2769Z" fill="#4B86B4"/>
<path d="M14.5094 30C22.5227 30 29.0188 23.2843 29.0188 15C29.0188 6.71573 22.5227 0 14.5094 0C6.49607 0 0 6.71573 0 15C0 23.2843 6.49607 30 14.5094 30Z" fill="#4B86B4"/>
<path d="M12.1252 18.4645C11.7226 19.5454 11.3215 20.6264 10.9188 21.7074C10.5463 22.7076 9.61782 23.3676 8.58122 23.3676C6.77544 23.3676 5.56156 21.4511 6.28568 19.7396L11.1712 8.18593C11.5693 7.24319 12.4707 6.63281 13.4668 6.63281H15.5535C16.5495 6.63281 17.4509 7.24163 17.849 8.18593L22.7346 19.7411C23.4587 21.4527 22.2448 23.3692 20.439 23.3692H20.3474C19.3108 23.3692 18.3808 22.7091 18.0098 21.7089L16.8034 18.466C15.9801 16.2528 12.95 16.2528 12.1267 18.466L12.1252 18.4645Z" fill="#F9F9F9"/>
<path d="M13.8213 18.403C13.65 18.6826 13.3526 18.8503 13.0341 18.8503H11.8668C11.0991 18.8503 10.6574 17.9495 11.1126 17.3081L12.4121 15.4754C12.4812 15.3776 12.5308 15.2689 12.5608 15.157C12.5879 15.0545 12.5879 14.9443 12.5608 14.8417C12.5308 14.7299 12.4812 14.6212 12.4121 14.5234L11.1126 12.6907C10.6589 12.0508 11.1006 11.1484 11.8668 11.1484H13.0341C13.3526 11.1484 13.65 11.3162 13.8213 11.5957C14.1788 12.1719 14.9841 12.1921 15.3717 11.6377L15.4288 11.5522C15.6045 11.2991 15.8885 11.1484 16.1904 11.1484H17.1534C17.9286 11.1484 18.3688 12.0679 17.8971 12.7047L16.6532 14.3898C16.521 14.5684 16.4564 14.7843 16.4624 14.9986C16.4564 15.2129 16.5195 15.4288 16.6532 15.6074L17.8971 17.2926C18.3688 17.9293 17.9286 18.8488 17.1534 18.8488H16.1904C15.89 18.8488 15.606 18.6981 15.4288 18.445L15.3717 18.3596C14.9856 17.8051 14.1788 17.8253 13.8213 18.4015V18.403Z" fill="#FEB739"/>
</svg>
