<svg width="21" height="20" viewBox="0 0 21 20" fill="none" xmlns="http://www.w3.org/2000/svg">
<path fill-rule="evenodd" clip-rule="evenodd" d="M18.4278 10.8129C20.4834 8.64421 20.4834 5.12813 18.4278 2.95947C16.3723 0.790798 13.0394 0.790885 10.9839 2.95954C8.92828 0.790885 5.59554 0.790885 3.53997 2.95954C1.4844 5.1282 1.4844 8.64431 3.53997 10.8129C3.54713 10.8205 3.55431 10.8281 3.5615 10.8356L10.9839 18.6663L18.4278 10.8129Z" fill="white"/>
<path d="M18.4278 10.8129L19.1535 11.5009L19.1535 11.5009L18.4278 10.8129ZM18.4278 2.95947L17.702 3.64739L17.702 3.6474L18.4278 2.95947ZM10.9839 2.95954L10.2581 3.64748L10.9839 4.41318L11.7097 3.64746L10.9839 2.95954ZM3.53997 2.95954L4.26575 3.64748L4.26575 3.64747L3.53997 2.95954ZM3.53997 10.8129L4.26716 10.1265L4.26574 10.125L3.53997 10.8129ZM3.5615 10.8356L4.2873 10.1476L4.28228 10.1424L3.5615 10.8356ZM10.9839 18.6663L10.2581 19.3543C10.447 19.5535 10.7094 19.6663 10.9839 19.6663C11.2584 19.6663 11.5208 19.5535 11.7097 19.3543L10.9839 18.6663ZM19.1535 11.5009C21.5748 8.94639 21.5748 4.82595 19.1535 2.27153L17.702 3.6474C19.392 5.43031 19.392 8.34202 17.702 10.125L19.1535 11.5009ZM19.1536 2.27155C16.7036 -0.313252 12.708 -0.31312 10.2581 2.27163L11.7097 3.64746C13.3708 1.89489 16.0409 1.89485 17.702 3.64739L19.1536 2.27155ZM11.7097 2.27161C9.25966 -0.313131 5.26416 -0.313144 2.8142 2.27162L4.26575 3.64747C5.92692 1.89491 8.5969 1.8949 10.2581 3.64748L11.7097 2.27161ZM2.8142 2.27161C0.392993 4.82602 0.392983 8.9465 2.8142 11.5009L4.26574 10.125C2.57581 8.34213 2.5758 5.43039 4.26575 3.64748L2.8142 2.27161ZM2.81279 11.4994C2.82033 11.5074 2.83015 11.5177 2.84071 11.5287L4.28228 10.1424C4.27847 10.1385 4.27393 10.1337 4.26715 10.1265L2.81279 11.4994ZM2.83572 11.5235L10.2581 19.3543L11.7097 17.9784L4.28728 10.1476L2.83572 11.5235ZM11.7097 19.3543L19.1535 11.5009L17.702 10.125L10.2581 17.9784L11.7097 19.3543Z" fill="#F9F9F9"/>
</svg>
