<svg width="23" height="20" viewBox="0 0 23 20" fill="none" xmlns="http://www.w3.org/2000/svg">
<path d="M11.7142 17.4997L10.6142 16.8586L13.143 12.3715H16.9361C17.2714 12.3715 17.593 12.2364 17.8301 11.996C18.0672 11.7555 18.2005 11.4294 18.2005 11.0894V3.39711C18.2005 3.05709 18.0672 2.73099 17.8301 2.49056C17.593 2.25013 17.2714 2.11506 16.9361 2.11506H4.29241C3.95708 2.11506 3.63548 2.25013 3.39836 2.49056C3.16125 2.73099 3.02804 3.05709 3.02804 3.39711V11.0894C3.02804 11.4294 3.16125 11.7555 3.39836 11.996C3.63548 12.2364 3.95708 12.3715 4.29241 12.3715H9.98206V13.6535H4.29241C3.62175 13.6535 2.97855 13.3834 2.50432 12.9025C2.03009 12.4216 1.76367 11.7695 1.76367 11.0894V3.39711C1.76367 2.71707 2.03009 2.06488 2.50432 1.58402C2.97855 1.10315 3.62175 0.833008 4.29241 0.833008H16.9361C17.6067 0.833008 18.2499 1.10315 18.7242 1.58402C19.1984 2.06488 19.4648 2.71707 19.4648 3.39711V11.0894C19.4648 11.7695 19.1984 12.4216 18.7242 12.9025C18.2499 13.3834 17.6067 13.6535 16.9361 13.6535H13.8763L11.7142 17.4997Z" fill="white"/>
<path d="M5.74707 4.58301H16.3678V5.83301H5.74707V4.58301ZM5.74707 8.33301H12.385V9.58301H5.74707V8.33301Z" fill="white"/>
</svg>
