<svg width="14" height="14" viewBox="0 0 14 14" fill="none" xmlns="http://www.w3.org/2000/svg">
<g clip-path="url(#clip0_1700_7642)">
<path fill-rule="evenodd" clip-rule="evenodd" d="M11.0833 5.71667C11.0833 8.02579 7.96993 10.8389 7.18033 11.5153C7.07573 11.6048 6.92418 11.6048 6.81959 11.5153C6.02999 10.8389 2.91663 8.02579 2.91663 5.71667C2.91663 3.52594 4.7448 1.75 6.99996 1.75C9.25513 1.75 11.0833 3.52594 11.0833 5.71667Z" stroke="#3B4B53" stroke-linecap="round"/>
<path d="M7.00004 7.00033C7.64437 7.00033 8.16671 6.47799 8.16671 5.83366C8.16671 5.18933 7.64437 4.66699 7.00004 4.66699C6.35571 4.66699 5.83337 5.18933 5.83337 5.83366C5.83337 6.47799 6.35571 7.00033 7.00004 7.00033Z" stroke="#3B4B53" stroke-linecap="round"/>
</g>
<defs>
<clipPath id="clip0_1700_7642">
<rect width="14" height="14" fill="white"/>
</clipPath>
</defs>
</svg>
