<svg width="216" height="147" viewBox="0 0 216 147" fill="none" xmlns="http://www.w3.org/2000/svg">
<path d="M4.61273 8.76668L0 10.3779L4.23275 22.5018L8.84548 20.8905L4.61273 8.76668Z" fill="#E1ECFB"/>
<path d="M12.6368 133.263L8.02441 134.875L12.2545 147L16.8668 145.388L12.6368 133.263Z" fill="#4B86B4"/>
<path d="M159.599 74.1963L154.986 75.8086L159.216 87.9334L163.829 86.3211L159.599 74.1963Z" fill="#E1ECFB"/>
<path d="M215.791 97.5559L212.674 93.79L202.794 101.983L205.91 105.749L215.791 97.5559Z" fill="#FEB739"/>
<path d="M150.429 4.33535L148.169 0L136.794 5.94209L139.055 10.2774L150.429 4.33535Z" fill="#DA1212"/>
<path d="M189.946 109.73L186.974 111.315C185.761 109.042 186.442 107.153 186.934 105.77C187.385 104.509 187.607 103.868 187.095 102.951C186.583 102.033 185.963 101.844 184.663 101.521C183.241 101.163 181.293 100.677 180.08 98.4044C178.867 96.1312 179.548 94.2358 180.04 92.8598C180.491 91.5985 180.714 90.9577 180.202 90.0403C179.689 89.123 179.069 88.9341 177.776 88.6104C176.354 88.2596 174.406 87.7672 173.193 85.4941C171.98 83.2209 172.654 81.3323 173.153 79.9495C173.604 78.6949 173.827 78.0474 173.315 77.1368L176.286 75.5449C177.499 77.8181 176.819 79.7134 176.32 81.0895C175.869 82.3508 175.646 82.9984 176.165 83.909C176.684 84.8196 177.29 85.0152 178.591 85.3389C180.013 85.6964 181.96 86.1821 183.173 88.4552C184.386 90.7283 183.706 92.617 183.214 93.9998C182.762 95.2544 182.54 95.9019 183.052 96.8125C183.564 97.7231 184.184 97.9255 185.478 98.2492C186.9 98.6 188.847 99.0856 190.067 101.366C191.287 103.645 190.599 105.527 190.107 106.91C189.636 108.165 189.44 108.812 189.946 109.73Z" fill="#4B86B4"/>
<path d="M66.3054 7.42285L68.5493 9.93881C66.6288 11.6588 64.6342 11.443 63.1584 11.2878C61.8107 11.1462 61.1368 11.1057 60.3821 11.7937C59.6274 12.4817 59.5735 13.1428 59.5667 14.4918C59.5667 15.9555 59.5667 17.9656 57.6193 19.6856C55.6718 21.4056 53.7041 21.1898 52.2283 21.0347C50.8806 20.893 50.2067 20.8593 49.4587 21.5473C48.7107 22.2353 48.6501 22.8963 48.6434 24.2454C48.6434 25.7091 48.6434 27.7191 46.6959 29.4392C44.7484 31.1592 42.7807 30.9434 41.305 30.7882C39.9572 30.6398 39.2834 30.6061 38.5354 31.2941L36.3857 28.7579C38.3063 27.0379 40.3009 27.2537 41.7767 27.4089C43.1244 27.5573 43.7983 27.591 44.5462 26.903C45.2942 26.215 45.3549 25.5539 45.3684 24.2049C45.3684 22.7344 45.3684 20.7244 47.3091 19.0111C49.2498 17.2978 51.2243 17.5069 52.7 17.6621C54.0478 17.8037 54.7216 17.8442 55.4696 17.1562C56.2176 16.4682 56.285 15.8071 56.2917 14.4581C56.2917 12.9876 56.2917 10.9776 58.2325 9.25755C60.1732 7.53752 62.1544 7.76011 63.6234 7.90851C64.8633 8.07714 65.5372 8.11086 66.3054 7.42285Z" fill="#FEB739"/>
<path d="M50.0221 94.7201L47.7617 90.3848L36.3872 96.3269L38.6477 100.662L50.0221 94.7201Z" fill="#E1ECFB"/>
<g filter="url(#filter0_f_1506_6939)">
<ellipse cx="104.52" cy="141.372" rx="47.8786" ry="1.34869" fill="#4B86B4"/>
</g>
<circle cx="106.117" cy="76.1172" r="42.5193" fill="#4B86B4" stroke="#4B86B4" stroke-width="1.19578"/>
<path d="M74.68 80.3203L80.6493 66.9275H83.7105L89.699 80.3203H86.4465L81.5485 68.4964H82.773L77.856 80.3203H74.68ZM77.6646 77.4504L78.4873 75.0971H85.375L86.2169 77.4504H77.6646ZM94.9645 80.4734C94.1099 80.4734 93.3446 80.3076 92.6686 79.9759C92.0054 79.6443 91.4888 79.1405 91.1189 78.4645C90.749 77.7757 90.564 76.902 90.564 75.8433V70.027H93.5487V75.4033C93.5487 76.2578 93.7273 76.8892 94.0844 77.2974C94.4543 77.6928 94.9709 77.8905 95.6342 77.8905C96.0933 77.8905 96.5015 77.7948 96.8586 77.6035C97.2158 77.3994 97.4964 77.0933 97.7005 76.6851C97.9046 76.2642 98.0066 75.7413 98.0066 75.1163V70.027H100.991V80.3203H98.1597V77.4887L98.6762 78.3114C98.3319 79.0257 97.8217 79.5678 97.1456 79.9377C96.4824 80.2948 95.7553 80.4734 94.9645 80.4734ZM102.386 80.3203L106.997 74.2744L106.939 75.9198L102.52 70.027H105.868L108.661 73.8726L107.398 73.9109L110.287 70.027H113.463L109.025 75.8624V74.2553L113.616 80.3203H110.23L107.303 76.226L108.546 76.3981L105.638 80.3203H102.386ZM121.08 80.4734C120.174 80.4734 119.396 80.282 118.745 79.8994C118.095 79.5167 117.598 78.9364 117.253 78.1583C116.909 77.3675 116.737 76.3726 116.737 75.1737C116.737 73.9619 116.915 72.967 117.272 72.189C117.642 71.4109 118.152 70.8306 118.803 70.4479C119.453 70.0653 120.212 69.874 121.08 69.874C122.049 69.874 122.916 70.0908 123.682 70.5245C124.46 70.9581 125.072 71.5704 125.518 72.3612C125.978 73.152 126.207 74.0895 126.207 75.1737C126.207 76.2451 125.978 77.1762 125.518 77.967C125.072 78.7578 124.46 79.3764 123.682 79.8229C122.916 80.2565 122.049 80.4734 121.08 80.4734ZM114.995 80.3203V66.124H117.98V72.1125L117.789 75.1545L117.846 78.2157V80.3203H114.995ZM120.563 78.0244C121.06 78.0244 121.501 77.9096 121.883 77.68C122.279 77.4504 122.591 77.1252 122.821 76.7043C123.063 76.2706 123.184 75.7604 123.184 75.1737C123.184 74.5742 123.063 74.064 122.821 73.6431C122.591 73.2221 122.279 72.8969 121.883 72.6673C121.501 72.4377 121.06 72.3229 120.563 72.3229C120.066 72.3229 119.619 72.4377 119.224 72.6673C118.828 72.8969 118.516 73.2221 118.286 73.6431C118.057 74.064 117.942 74.5742 117.942 75.1737C117.942 75.7604 118.057 76.2706 118.286 76.7043C118.516 77.1252 118.828 77.4504 119.224 77.68C119.619 77.9096 120.066 78.0244 120.563 78.0244ZM129.156 84.1851C128.62 84.1851 128.091 84.1022 127.568 83.9364C127.045 83.7705 126.618 83.541 126.286 83.2476L127.377 81.1239C127.606 81.328 127.868 81.4874 128.161 81.6022C128.467 81.717 128.767 81.7744 129.06 81.7744C129.481 81.7744 129.813 81.6723 130.055 81.4683C130.31 81.2769 130.54 80.9517 130.744 80.4925L131.28 79.2298L131.509 78.9045L135.202 70.027H138.072L133.423 80.9517C133.091 81.7808 132.708 82.4313 132.275 82.9032C131.854 83.3751 131.382 83.7068 130.859 83.8981C130.349 84.0894 129.781 84.1851 129.156 84.1851ZM130.916 80.7221L126.325 70.027H129.405L132.964 78.6366L130.916 80.7221Z" fill="white"/>
<defs>
<filter id="filter0_f_1506_6939" x="52.7535" y="136.135" width="103.533" height="10.4735" filterUnits="userSpaceOnUse" color-interpolation-filters="sRGB">
<feFlood flood-opacity="0" result="BackgroundImageFix"/>
<feBlend mode="normal" in="SourceGraphic" in2="BackgroundImageFix" result="shape"/>
<feGaussianBlur stdDeviation="1.94407" result="effect1_foregroundBlur_1506_6939"/>
</filter>
</defs>
</svg>
