<svg width="380" height="279" viewBox="0 0 380 279" fill="none" xmlns="http://www.w3.org/2000/svg">
<rect opacity="0.2" width="380" height="279" fill="#BABFCE"/>
<path d="M133.054 196.503H121.515C121.246 196.503 121.008 196.666 120.913 196.918L119.035 201.791C118.94 202.039 118.699 202.206 118.433 202.206H108.647C108.179 202.206 107.868 201.727 108.055 201.299L121.791 169.882C121.894 169.648 122.127 169.496 122.382 169.496H132.378C132.636 169.496 132.867 169.648 132.969 169.882L146.705 201.299C146.893 201.727 146.577 202.206 146.113 202.206H136.143C135.874 202.206 135.636 202.043 135.541 201.791L133.663 196.918C133.568 196.67 133.327 196.503 133.061 196.503H133.054ZM130.122 187.68L127.887 181.896C127.674 181.344 126.891 181.344 126.679 181.896L124.444 187.68C124.281 188.105 124.593 188.559 125.046 188.559H129.516C129.969 188.559 130.285 188.102 130.118 187.68H130.122Z" fill="#BEBEBE"/>
<path d="M176.025 177.288V201.558C176.025 201.915 175.735 202.206 175.377 202.206H166.625C166.267 202.206 165.977 201.915 165.977 201.558V201.211C165.977 200.669 165.36 200.378 164.932 200.704C164.255 201.218 163.515 201.632 162.707 201.947C161.461 202.429 160.136 202.67 158.737 202.67C155.496 202.67 152.896 201.682 150.934 199.702C148.972 197.725 147.991 194.739 147.991 190.751V177.285C147.991 176.927 148.281 176.637 148.639 176.637H157.908C158.266 176.637 158.556 176.927 158.556 177.285V188.927C158.556 190.673 158.836 191.917 159.396 192.667C159.955 193.415 160.781 193.79 161.871 193.79C162.899 193.79 163.756 193.379 164.443 192.551C165.126 191.725 165.47 190.425 165.47 188.647V177.285C165.47 176.927 165.76 176.637 166.118 176.637H175.387C175.745 176.637 176.036 176.927 176.036 177.285L176.025 177.288Z" fill="#BEBEBE"/>
<path d="M196.632 201.904L193.833 197.536C193.585 197.15 193.029 197.136 192.764 197.508L189.587 201.932C189.466 202.102 189.268 202.201 189.062 202.201H179.251C178.717 202.201 178.412 201.588 178.738 201.163L187.323 189.921C187.497 189.695 187.5 189.379 187.33 189.149L178.968 177.67C178.656 177.241 178.961 176.643 179.492 176.643H189.792C190.008 176.643 190.21 176.749 190.33 176.929L193.26 181.286C193.511 181.661 194.064 181.669 194.326 181.3L197.421 176.919C197.542 176.749 197.74 176.646 197.949 176.646H207.392C207.927 176.646 208.231 177.255 207.909 177.684L199.589 188.692C199.415 188.919 199.415 189.234 199.582 189.464L208.171 201.177C208.483 201.606 208.178 202.208 207.65 202.208H197.177C196.957 202.208 196.752 202.095 196.632 201.911V201.904Z" fill="#BEBEBE"/>
<path d="M234.091 177.787C235.975 178.86 237.47 180.404 238.579 182.413C239.684 184.421 240.236 186.752 240.236 189.397C240.236 192.043 239.684 194.381 238.579 196.407C237.473 198.433 235.975 199.981 234.091 201.057C232.207 202.13 230.142 202.669 227.9 202.669C225.385 202.669 223.391 202.123 221.91 201.029C221.489 200.717 220.89 201.029 220.89 201.553C220.89 201.911 220.6 202.201 220.242 202.201H211.49C211.132 202.201 210.842 201.911 210.842 201.553V168.171C210.842 167.813 211.132 167.522 211.49 167.522H220.759C221.117 167.522 221.407 167.813 221.407 168.171V177.022C221.407 177.543 221.985 177.84 222.42 177.553C223.826 176.632 225.654 176.172 227.903 176.172C230.152 176.172 232.21 176.71 234.094 177.783L234.091 177.787ZM228.367 193.116C229.146 192.227 229.536 190.991 229.536 189.401C229.536 187.811 229.146 186.581 228.367 185.71C227.588 184.839 226.593 184.403 225.378 184.403C224.163 184.403 223.164 184.839 222.388 185.71C221.609 186.581 221.22 187.814 221.22 189.401C221.22 190.988 221.609 192.227 222.388 193.116C223.168 194.005 224.163 194.448 225.378 194.448C226.593 194.448 227.588 194.005 228.367 193.116Z" fill="#797979"/>
<path d="M270.353 176.64C270.81 176.64 271.125 177.104 270.952 177.529L260.797 202.716C259.458 206.049 257.79 208.386 255.796 209.725C253.802 211.064 251.358 211.734 248.46 211.734C247.026 211.734 245.588 211.525 244.139 211.103C242.935 210.752 241.943 210.313 241.161 209.782C240.891 209.601 240.799 209.251 240.941 208.96L243.888 202.872C244.054 202.525 244.483 202.408 244.812 202.606C245.184 202.829 245.584 203.02 246.013 203.18C246.682 203.428 247.327 203.555 247.954 203.555C248.9 203.555 249.658 203.325 250.228 202.861C250.444 202.684 250.508 202.379 250.401 202.121L240.194 177.533C240.017 177.108 240.328 176.637 240.792 176.637H250.221C250.486 176.637 250.727 176.8 250.823 177.051L255.346 188.778C255.558 189.327 256.338 189.331 256.55 188.782L261.155 177.048C261.25 176.8 261.491 176.637 261.757 176.637H270.357L270.353 176.64Z" fill="#797979"/>
<path d="M189.498 161.932C215.437 161.932 236.464 140.904 236.464 114.966C236.464 89.0273 215.437 68 189.498 68C163.56 68 142.532 89.0273 142.532 114.966C142.532 140.904 163.56 161.932 189.498 161.932Z" fill="#797979"/>
<path d="M181.78 125.813C180.48 129.199 179.177 132.582 177.877 135.968C176.673 139.099 173.662 141.167 170.308 141.167C164.46 141.167 160.536 135.167 162.877 129.812L178.691 93.6349C179.981 90.6809 182.899 88.7754 186.122 88.7754H192.877C196.1 88.7754 199.015 90.6845 200.308 93.6349L216.122 129.812C218.464 135.171 214.539 141.167 208.691 141.167H208.394C205.04 141.167 202.029 139.102 200.825 135.968L196.918 125.813C194.251 118.882 184.447 118.882 181.78 125.813Z" fill="white"/>
<path d="M187.27 125.626C186.714 126.501 185.751 127.025 184.72 127.025H180.944C178.462 127.025 177.031 124.203 178.501 122.198L182.705 116.456C182.928 116.148 183.091 115.812 183.186 115.461C183.275 115.139 183.275 114.795 183.186 114.476C183.091 114.126 182.931 113.786 182.705 113.481L178.501 107.74C177.031 105.735 178.462 102.912 180.944 102.912H184.72C185.751 102.912 186.714 103.436 187.27 104.311C188.425 106.114 191.035 106.178 192.289 104.442L192.477 104.173C193.047 103.38 193.965 102.912 194.942 102.912H198.055C200.563 102.912 201.987 105.788 200.464 107.782L196.437 113.056C196.008 113.616 195.799 114.292 195.82 114.965C195.799 115.638 196.008 116.315 196.437 116.874L200.464 122.148C201.987 124.142 200.563 127.018 198.055 127.018H194.942C193.968 127.018 193.051 126.547 192.477 125.757L192.289 125.488C191.039 123.753 188.429 123.816 187.27 125.619V125.626Z" fill="#BEBEBE"/>
</svg>
