<svg width="116" height="30" viewBox="0 0 116 30" fill="none" xmlns="http://www.w3.org/2000/svg">
<path d="M45.2004 20.4409H39.2939C39.1572 20.4409 39.0345 20.5248 38.9848 20.6521L38.025 23.1449C37.9753 23.2722 37.8526 23.3561 37.7159 23.3561H32.7102C32.471 23.3561 32.3111 23.1107 32.4073 22.8933L39.4352 6.81696C39.488 6.69582 39.6076 6.61816 39.7381 6.61816H44.8525C44.9845 6.61816 45.1025 6.69582 45.1553 6.81696L52.1832 22.8933C52.2795 23.1123 52.118 23.3561 51.8803 23.3561H46.7783C46.6417 23.3561 46.519 23.2722 46.4693 23.1449L45.5079 20.6521C45.4582 20.5248 45.3355 20.4409 45.1988 20.4409H45.2004ZM43.7001 15.926L42.557 12.9673C42.4482 12.6846 42.0491 12.6846 41.9388 12.9673L40.7957 15.926C40.7119 16.1434 40.8718 16.3764 41.1048 16.3764H43.391C43.624 16.3764 43.7839 16.1434 43.7001 15.926Z" fill="#BABFCE"/>
<path d="M67.1878 10.6072V23.0259C67.1878 23.2092 67.0402 23.3567 66.857 23.3567H62.3778C62.1945 23.3567 62.047 23.2092 62.047 23.0259V22.8488C62.047 22.5724 61.7317 22.4217 61.5111 22.5895C61.1648 22.8535 60.7858 23.0647 60.3727 23.2247C59.7344 23.4716 59.0572 23.5959 58.3397 23.5959C56.6809 23.5959 55.3499 23.0896 54.3466 22.0769C53.3417 21.0643 52.8401 19.5392 52.8401 17.4984V10.6072C52.8401 10.4239 52.9876 10.2764 53.1709 10.2764H57.9126C58.0958 10.2764 58.2434 10.4239 58.2434 10.6072V16.5649C58.2434 17.458 58.3863 18.0948 58.6736 18.4784C58.9609 18.862 59.3834 19.053 59.9409 19.053C60.4674 19.053 60.9054 18.8418 61.2564 18.4194C61.6074 17.9969 61.7829 17.3306 61.7829 16.422V10.6072C61.7829 10.4239 61.9305 10.2764 62.1137 10.2764H66.857C67.0402 10.2764 67.1878 10.4239 67.1878 10.6072Z" fill="#BABFCE"/>
<path d="M77.7304 23.2045L76.2985 20.9696C76.1727 20.7723 75.8869 20.7646 75.7502 20.9556L74.1256 23.22C74.0635 23.307 73.9641 23.3583 73.857 23.3583H68.8373C68.5639 23.3583 68.4086 23.0445 68.5748 22.8271L72.9686 17.0744C73.0571 16.9579 73.0587 16.7964 72.9732 16.6783L68.6944 10.8044C68.5344 10.5854 68.6913 10.2779 68.9615 10.2779H74.2328C74.3431 10.2779 74.4456 10.3323 74.5077 10.4239L76.0065 12.6526C76.1354 12.8452 76.418 12.8483 76.5516 12.6588L78.1358 10.4161C78.1979 10.3292 78.2989 10.2764 78.406 10.2764H83.2378C83.5111 10.2764 83.6664 10.5885 83.5018 10.8075L79.2447 16.4407C79.1562 16.5572 79.1546 16.7187 79.2416 16.8352L83.6354 22.8287C83.7953 23.0476 83.64 23.3552 83.3682 23.3552H78.0084C77.8951 23.3552 77.791 23.2977 77.7304 23.203V23.2045Z" fill="#BABFCE"/>
<path d="M96.899 10.8622C97.8635 11.412 98.6292 12.201 99.1945 13.2292C99.7598 14.2574 100.044 15.4501 100.044 16.8045C100.044 18.1588 99.7614 19.3547 99.1945 20.3922C98.6276 21.4281 97.8635 22.2217 96.899 22.7715C95.9345 23.3213 94.8784 23.5962 93.7306 23.5962C92.4446 23.5962 91.4227 23.3167 90.6663 22.7576C90.4504 22.5976 90.1445 22.7576 90.1445 23.0262C90.1445 23.2095 89.9969 23.3571 89.8137 23.3571H85.3345C85.1512 23.3571 85.0037 23.2095 85.0037 23.0262V5.94507C85.0037 5.7618 85.1512 5.61426 85.3345 5.61426H90.0777C90.261 5.61426 90.4085 5.7618 90.4085 5.94507V10.474C90.4085 10.7411 90.7036 10.8917 90.9273 10.7458C91.6463 10.2752 92.5813 10.0391 93.7322 10.0391C94.883 10.0391 95.936 10.314 96.9005 10.8638L96.899 10.8622ZM93.9698 18.7055C94.3674 18.2504 94.5678 17.6183 94.5678 16.8045C94.5678 15.9906 94.369 15.3616 93.9698 14.9159C93.5706 14.4701 93.0612 14.2465 92.44 14.2465C91.8187 14.2465 91.3078 14.4701 90.9102 14.9159C90.511 15.3632 90.3122 15.9922 90.3122 16.8045C90.3122 17.6167 90.511 18.252 90.9102 18.7055C91.3078 19.1605 91.8187 19.3873 92.44 19.3873C93.0612 19.3873 93.5722 19.1605 93.9698 18.7055Z" fill="#2A4D69"/>
<path d="M115.456 10.2877C115.69 10.2877 115.85 10.5253 115.763 10.7427L110.567 23.6321C109.88 25.3374 109.027 26.5333 108.009 27.2182C106.988 27.9031 105.736 28.2464 104.255 28.2464C103.522 28.2464 102.784 28.1392 102.043 27.9233C101.428 27.7447 100.92 27.5195 100.518 27.2477C100.381 27.1545 100.333 26.9759 100.405 26.8268L101.911 23.7113C101.996 23.5342 102.215 23.4736 102.385 23.5762C102.574 23.6911 102.779 23.7889 102.998 23.8697C103.341 23.997 103.671 24.0607 103.991 24.0607C104.475 24.0607 104.864 23.9427 105.154 23.7051C105.264 23.615 105.298 23.4581 105.242 23.3261L100.019 10.7443C99.9293 10.5269 100.089 10.2861 100.325 10.2861H105.151C105.288 10.2861 105.41 10.37 105.46 10.4974L107.774 16.4986C107.883 16.7797 108.28 16.7813 108.391 16.5002L110.747 10.4958C110.796 10.3684 110.919 10.2861 111.054 10.2861H115.456V10.2877Z" fill="#2A4D69"/>
<path d="M15 30C23.2843 30 30 23.2843 30 15C30 6.71573 23.2843 0 15 0C6.71573 0 0 6.71573 0 15C0 23.2843 6.71573 30 15 30Z" fill="#2A4D69"/>
<path d="M12.5352 18.4645C12.1189 19.5454 11.7042 20.6264 11.288 21.7074C10.9028 22.7076 9.94301 23.3676 8.87136 23.3676C7.00451 23.3676 5.74959 21.4511 6.4982 19.7396L11.5489 8.18593C11.9605 7.24319 12.8924 6.63281 13.9221 6.63281H16.0794C17.1091 6.63281 18.041 7.24163 18.4525 8.18593L23.5033 19.7411C24.2519 21.4526 22.997 23.3692 21.1301 23.3692H21.0354C19.9637 23.3692 19.0023 22.7091 18.6187 21.7089L17.3716 18.466C16.5205 16.2528 13.3878 16.2528 12.5367 18.466L12.5352 18.4645Z" fill="#F9F9F9"/>
<path d="M14.2885 18.404C14.1115 18.6836 13.804 18.8513 13.4747 18.8513H12.2679C11.4743 18.8513 11.0177 17.9505 11.4883 17.3091L12.8317 15.4764C12.9032 15.3786 12.9544 15.2698 12.9855 15.158C13.0134 15.0555 13.0134 14.9452 12.9855 14.8427C12.9544 14.7309 12.9032 14.6222 12.8317 14.5243L11.4883 12.6917C11.0192 12.0518 11.4759 11.1494 12.2679 11.1494H13.4747C13.804 11.1494 14.1115 11.3172 14.2885 11.5967C14.6582 12.1729 15.4907 12.1931 15.8914 11.6386L15.9504 11.5532C16.1321 11.3001 16.4256 11.1494 16.7378 11.1494H17.7334C18.5348 11.1494 18.9898 12.0689 18.5022 12.7056L17.2162 14.3908C17.0795 14.5694 17.0127 14.7853 17.0189 14.9996C17.0127 15.2139 17.0779 15.4298 17.2162 15.6084L18.5022 17.2935C18.9898 17.9303 18.5348 18.8498 17.7334 18.8498H16.7378C16.4272 18.8498 16.1336 18.6991 15.9504 18.446L15.8914 18.3605C15.4922 17.8061 14.6582 17.8263 14.2885 18.4025V18.404Z" fill="#FEB739"/>
</svg>
