<svg width="19" height="16" viewBox="0 0 19 16" fill="none" xmlns="http://www.w3.org/2000/svg">
<path fill-rule="evenodd" clip-rule="evenodd" d="M0.8825 4.85255C0.875 5.31997 0.875 5.83895 0.875 6.417V9.58366C0.875 12.4121 0.875 13.8263 1.75368 14.705C2.63236 15.5837 4.04657 15.5837 6.875 15.5837H12.125C14.9534 15.5837 16.3676 15.5837 17.2463 14.705C18.125 13.8263 18.125 12.4121 18.125 9.58366V6.41699C18.125 5.83894 18.125 5.31996 18.1175 4.85255L10.5637 9.5965C9.91336 10.0049 9.08664 10.0049 8.43633 9.5965L0.8825 4.85255ZM1.06033 2.68404C1.17998 2.70657 1.29749 2.75148 1.40684 2.82015L9.5 7.90281L17.5932 2.82015C17.7025 2.75148 17.82 2.70657 17.9397 2.68405C17.8137 2.09468 17.602 1.65131 17.2463 1.29567C16.3676 0.416992 14.9534 0.416992 12.125 0.416992H6.875C4.04657 0.416992 2.63236 0.416992 1.75368 1.29567C1.39804 1.65131 1.18634 2.09468 1.06033 2.68404Z" fill="white"/>
</svg>
