<svg width="35" height="35" viewBox="0 0 35 35" fill="none" xmlns="http://www.w3.org/2000/svg">
<g clip-path="url(#clip0_1315_7521)">
<path d="M23.0469 5H13.2031C8.67336 5 5 8.67336 5 13.2031V23.0469C5 27.5766 8.67336 31.25 13.2031 31.25H23.0469C27.5766 31.25 31.25 27.5766 31.25 23.0469V13.2031C31.25 8.67336 27.5766 5 23.0469 5ZM28.7891 23.0469C28.7891 26.2133 26.2133 28.7891 23.0469 28.7891H13.2031C10.0367 28.7891 7.46094 26.2133 7.46094 23.0469V13.2031C7.46094 10.0367 10.0367 7.46094 13.2031 7.46094H23.0469C26.2133 7.46094 28.7891 10.0367 28.7891 13.2031V23.0469Z" fill="url(#paint0_linear_1315_7521)"/>
<path d="M18.125 11.5625C14.5009 11.5625 11.5625 14.5009 11.5625 18.125C11.5625 21.7491 14.5009 24.6875 18.125 24.6875C21.7491 24.6875 24.6875 21.7491 24.6875 18.125C24.6875 14.5009 21.7491 11.5625 18.125 11.5625ZM18.125 22.2266C15.8642 22.2266 14.0234 20.3858 14.0234 18.125C14.0234 15.8626 15.8642 14.0234 18.125 14.0234C20.3858 14.0234 22.2266 15.8626 22.2266 18.125C22.2266 20.3858 20.3858 22.2266 18.125 22.2266Z" fill="url(#paint1_linear_1315_7521)"/>
<path d="M25.1801 11.9452C25.6631 11.9452 26.0546 11.5537 26.0546 11.0707C26.0546 10.5878 25.6631 10.1963 25.1801 10.1963C24.6972 10.1963 24.3057 10.5878 24.3057 11.0707C24.3057 11.5537 24.6972 11.9452 25.1801 11.9452Z" fill="url(#paint2_linear_1315_7521)"/>
</g>
<defs>
<linearGradient id="paint0_linear_1315_7521" x1="7.40294" y1="28.8472" x2="28.8471" y2="7.40278" gradientUnits="userSpaceOnUse">
<stop stop-color="#FFC107"/>
<stop offset="0.507" stop-color="#F44336"/>
<stop offset="0.99" stop-color="#9C27B0"/>
</linearGradient>
<linearGradient id="paint1_linear_1315_7521" x1="13.4847" y1="22.7653" x2="22.7653" y2="13.4847" gradientUnits="userSpaceOnUse">
<stop stop-color="#FFC107"/>
<stop offset="0.507" stop-color="#F44336"/>
<stop offset="0.99" stop-color="#9C27B0"/>
</linearGradient>
<linearGradient id="paint2_linear_1315_7521" x1="24.5618" y1="11.6892" x2="25.7984" y2="10.4525" gradientUnits="userSpaceOnUse">
<stop stop-color="#FFC107"/>
<stop offset="0.507" stop-color="#F44336"/>
<stop offset="0.99" stop-color="#9C27B0"/>
</linearGradient>
<clipPath id="clip0_1315_7521">
<rect width="26.25" height="26.25" fill="white" transform="translate(5 5)"/>
</clipPath>
</defs>
</svg>
