<svg width="174" height="152" viewBox="0 0 174 152" fill="none" xmlns="http://www.w3.org/2000/svg">
<g clip-path="url(#clip0_3257_8711)">
<path d="M86.6001 99.3826C114.044 99.3826 136.291 77.135 136.291 49.6913C136.291 22.2476 114.044 0 86.6001 0C59.1564 0 36.9088 22.2476 36.9088 49.6913C36.9088 77.135 59.1564 99.3826 86.6001 99.3826Z" fill="#2A4D69"/>
<path d="M78.6215 61.3026C77.2437 64.8842 75.8683 68.4636 74.4905 72.0453C73.2166 75.3593 70.0319 77.5448 66.4825 77.5448C60.2976 77.5448 56.1436 71.196 58.6222 65.5281L75.3536 27.2534C76.7198 24.1287 79.8054 22.1094 83.214 22.1094H90.3612C93.7698 22.1094 96.8576 24.1287 98.2215 27.2534L114.953 65.5281C117.432 71.196 113.278 77.5448 107.093 77.5448H106.776C103.227 77.5448 100.042 75.3593 98.7685 72.0453L94.6375 61.3026C91.8174 53.9707 81.4416 53.9707 78.6215 61.3026Z" fill="#F9F9F9"/>
<path d="M84.2415 60.9653C83.653 61.8884 82.633 62.4446 81.5437 62.4446H77.5489C74.9204 62.4446 73.4088 59.4583 74.9642 57.3375L79.4136 51.2634C79.6513 50.938 79.8221 50.5803 79.9214 50.2087C80.0137 49.8695 80.0137 49.5048 79.9214 49.1656C79.8198 48.794 79.6513 48.4363 79.4136 48.1109L74.9642 42.0391C73.4088 39.9183 74.9204 36.932 77.5489 36.932H81.5437C82.633 36.932 83.653 37.4882 84.2415 38.4113C85.4647 40.3175 88.2271 40.3868 89.5518 38.5498L89.7502 38.2659C90.3549 37.4282 91.3264 36.9297 92.3557 36.9297H95.6512C98.3052 36.9297 99.8122 39.9737 98.199 42.083L93.9366 47.6655C93.4819 48.2586 93.2627 48.974 93.2858 49.6848C93.265 50.3956 93.4842 51.111 93.9366 51.7041L98.199 57.2867C99.8122 59.396 98.3052 62.44 95.6512 62.44H92.3557C91.3241 62.44 90.3526 61.9438 89.7502 61.1038L89.5518 60.8199C88.2271 58.9829 85.4647 59.0522 84.2415 60.9584V60.9653Z" fill="#FEB739"/>
</g>
<path d="M26.6823 135.209H14.3905C14.1061 135.209 13.8507 135.382 13.7473 135.646L11.7499 140.8C11.6464 141.063 11.3911 141.237 11.1067 141.237H0.689459C0.191709 141.237 -0.1412 140.729 0.0591924 140.28L14.6846 107.038C14.7945 106.788 15.0434 106.627 15.3149 106.627H25.9584C26.2331 106.627 26.4787 106.788 26.5886 107.038L41.2141 140.28C41.4145 140.733 41.0783 141.237 40.5838 141.237H29.9662C29.6818 141.237 29.4264 141.063 29.323 140.8L27.3223 135.646C27.2189 135.382 26.9635 135.209 26.6791 135.209H26.6823ZM23.5601 125.873L21.1812 119.755C20.955 119.171 20.1243 119.171 19.8948 119.755L17.516 125.873C17.3415 126.323 17.6744 126.804 18.1592 126.804H22.9169C23.4017 126.804 23.7346 126.323 23.5601 125.873Z" fill="#BABFCE"/>
<path d="M72.4398 114.877V140.556C72.4398 140.935 72.1328 141.24 71.7514 141.24H62.4299C62.0485 141.24 61.7414 140.935 61.7414 140.556V140.19C61.7414 139.618 61.0853 139.307 60.6263 139.654C59.9056 140.2 59.1169 140.636 58.2572 140.967C56.9288 141.478 55.5196 141.735 54.0263 141.735C50.5744 141.735 47.8044 140.688 45.7165 138.594C43.6253 136.5 42.5813 133.346 42.5813 129.127V114.877C42.5813 114.498 42.8884 114.193 43.2697 114.193H53.1375C53.5189 114.193 53.8259 114.498 53.8259 114.877V127.197C53.8259 129.043 54.1233 130.36 54.7212 131.153C55.3192 131.946 56.1983 132.341 57.3587 132.341C58.4544 132.341 59.3658 131.904 60.0963 131.031C60.8267 130.157 61.192 128.78 61.192 126.901V114.877C61.192 114.498 61.499 114.193 61.8804 114.193H71.7514C72.1328 114.193 72.4398 114.498 72.4398 114.877Z" fill="#BABFCE"/>
<path d="M94.3795 140.925L91.3995 136.304C91.1377 135.896 90.543 135.88 90.2586 136.275L86.8777 140.958C86.7484 141.137 86.5416 141.243 86.3186 141.243H75.8723C75.3034 141.243 74.9802 140.595 75.3261 140.145L84.4698 128.25C84.654 128.009 84.6573 127.675 84.4795 127.431L75.5749 115.285C75.242 114.832 75.5685 114.197 76.1309 114.197H87.1008C87.3302 114.197 87.5436 114.309 87.6728 114.498L90.7919 119.107C91.0601 119.505 91.6484 119.512 91.9263 119.12L95.2231 114.482C95.3524 114.303 95.5625 114.193 95.7855 114.193H105.841C106.41 114.193 106.733 114.839 106.39 115.292L97.5309 126.94C97.3466 127.18 97.3434 127.514 97.5244 127.755L106.668 140.148C107.001 140.601 106.678 141.237 106.112 141.237H94.9581C94.7221 141.237 94.5056 141.118 94.3795 140.922V140.925Z" fill="#BABFCE"/>
<path d="M134.271 115.404C136.278 116.541 137.871 118.172 139.048 120.298C140.224 122.424 140.816 124.891 140.816 127.691C140.816 130.492 140.228 132.964 139.048 135.11C137.868 137.252 136.278 138.893 134.271 140.03C132.264 141.166 130.066 141.735 127.677 141.735C125.001 141.735 122.874 141.157 121.3 140.001C120.851 139.67 120.214 140.001 120.214 140.556C120.214 140.935 119.907 141.24 119.526 141.24H110.204C109.823 141.24 109.516 140.935 109.516 140.556V105.237C109.516 104.858 109.823 104.553 110.204 104.553H120.075C120.456 104.553 120.764 104.858 120.764 105.237V114.601C120.764 115.154 121.378 115.465 121.843 115.163C123.34 114.19 125.285 113.702 127.68 113.702C130.075 113.702 132.267 114.271 134.274 115.407L134.271 115.404ZM128.175 131.622C129.002 130.681 129.419 129.374 129.419 127.691C129.419 126.008 129.006 124.708 128.175 123.786C127.344 122.864 126.284 122.402 124.991 122.402C123.698 122.402 122.635 122.864 121.808 123.786C120.977 124.711 120.563 126.012 120.563 127.691C120.563 129.371 120.977 130.684 121.808 131.622C122.635 132.563 123.698 133.032 124.991 133.032C126.284 133.032 127.347 132.563 128.175 131.622Z" fill="#2A4D69"/>
<path d="M172.888 114.194C173.376 114.194 173.709 114.685 173.528 115.135L162.713 141.786C161.285 145.313 159.51 147.785 157.39 149.202C155.267 150.618 152.661 151.328 149.578 151.328C148.052 151.328 146.517 151.106 144.975 150.66C143.695 150.29 142.639 149.825 141.801 149.263C141.517 149.07 141.417 148.701 141.565 148.392L144.701 141.95C144.878 141.584 145.334 141.459 145.686 141.671C146.081 141.908 146.507 142.111 146.963 142.278C147.677 142.541 148.363 142.673 149.029 142.673C150.037 142.673 150.845 142.429 151.449 141.937C151.679 141.751 151.75 141.427 151.634 141.154L140.764 115.138C140.576 114.688 140.909 114.19 141.401 114.19H151.443C151.727 114.19 151.983 114.364 152.086 114.627L156.902 127.036C157.128 127.617 157.956 127.621 158.185 127.039L163.088 114.624C163.192 114.361 163.447 114.19 163.728 114.19H172.888V114.194Z" fill="#2A4D69"/>
<defs>
<clipPath id="clip0_3257_8711">
<rect width="99.3803" height="99.3803" fill="white" transform="translate(36.9088)"/>
</clipPath>
</defs>
</svg>
