<svg width="150" height="150" viewBox="0 0 150 150" fill="none" xmlns="http://www.w3.org/2000/svg">
<path d="M40.2985 49.8108C42.2632 32.1289 57.2088 18.752 74.9995 18.752V18.752C92.7902 18.752 107.736 32.129 109.7 49.8108L111.274 63.9747C111.454 65.594 111.544 66.4036 111.663 67.2011C112.421 72.2912 114.08 77.2057 116.562 81.714C116.951 82.4204 117.37 83.1189 118.208 84.516L121.821 90.5372C125.8 97.1696 127.79 100.486 126.615 103.074C126.482 103.367 126.323 103.648 126.14 103.913C124.525 106.252 120.658 106.252 112.923 106.252H37.076C29.3412 106.252 25.4739 106.252 23.8589 103.913C23.676 103.648 23.5171 103.367 23.3841 103.074C22.2092 100.486 24.1989 97.1696 28.1784 90.5372L31.7911 84.516C32.6293 83.1189 33.0485 82.4204 33.4373 81.714C35.9191 77.2057 37.5779 72.2912 38.3361 67.2011C38.4549 66.4036 38.5448 65.594 38.7248 63.9747L40.2985 49.8108Z" stroke="#3B4B53" stroke-width="10.8333"/>
<path d="M49.9995 106.248C49.9995 109.531 50.6462 112.782 51.9025 115.815C53.1589 118.848 55.0004 121.604 57.3218 123.926C59.6433 126.247 62.3993 128.089 65.4324 129.345C68.4656 130.601 71.7165 131.248 74.9995 131.248C78.2826 131.248 81.5335 130.601 84.5666 129.345C87.5997 128.089 90.3557 126.247 92.6772 123.926C94.9986 121.604 96.8401 118.848 98.0965 115.815C99.3529 112.782 99.9995 109.531 99.9995 106.248" stroke="#3B4B53" stroke-width="10.8333" stroke-linecap="round"/>
</svg>
