<svg width="35" height="35" viewBox="0 0 35 35" fill="none" xmlns="http://www.w3.org/2000/svg">
<circle cx="17.5" cy="17.5" r="17.5" fill="#FEB739"/>
<g clip-path="url(#clip0_1700_7706)">
<path d="M24.0238 18.1569L24.71 18.8626L24.71 18.8626L24.0238 18.1569ZM24.0238 11.8137L23.3376 12.5194L23.3376 12.5194L24.0238 11.8137ZM17.5 11.8137L16.8138 12.5195L17.5 13.1867L18.1862 12.5195L17.5 11.8137ZM10.9761 11.8137L11.6623 12.5195L11.6623 12.5195L10.9761 11.8137ZM10.9761 18.1569L11.6638 17.4525L11.6623 17.4511L10.9761 18.1569ZM10.995 18.1751L11.6812 17.4694L11.6761 17.4644L10.995 18.1751ZM17.5 24.5L16.8138 25.2058C17.1958 25.5772 17.8042 25.5772 18.1862 25.2058L17.5 24.5ZM24.71 18.8626C26.9091 16.7244 26.9091 13.2461 24.71 11.1079L23.3376 12.5194C24.7416 13.8845 24.7416 16.086 23.3376 17.4511L24.71 18.8626ZM24.7101 11.1079C22.5265 8.98479 18.9973 8.9849 16.8138 11.108L18.1862 12.5195C19.6056 11.1394 21.9182 11.1393 23.3376 12.5194L24.7101 11.1079ZM18.1862 11.108C16.0026 8.98489 12.4735 8.98488 10.2899 11.108L11.6623 12.5195C13.0818 11.1394 15.3943 11.1394 16.8138 12.5195L18.1862 11.108ZM10.2899 11.108C8.09086 13.2461 8.09085 16.7245 10.2899 18.8626L11.6623 17.4511C10.2584 16.0861 10.2584 13.8846 11.6623 12.5195L10.2899 11.108ZM10.2885 18.8612C10.2951 18.8677 10.3041 18.8765 10.3139 18.8859L11.6761 17.4644C11.6733 17.4617 11.6697 17.4582 11.6638 17.4525L10.2885 18.8612ZM10.3088 18.8809L16.8138 25.2058L18.1862 23.7942L11.6812 17.4694L10.3088 18.8809ZM18.1862 25.2058L24.71 18.8626L23.3376 17.4511L16.8138 23.7942L18.1862 25.2058Z" fill="#F9F9F9"/>
</g>
<defs>
<clipPath id="clip0_1700_7706">
<rect width="21" height="21" fill="white" transform="translate(7 7)"/>
</clipPath>
</defs>
</svg>
