<svg width="25" height="25" viewBox="0 0 25 25" fill="none" xmlns="http://www.w3.org/2000/svg">
<path d="M17.0002 8.74383L21.1044 11.5568L23.3457 6.99994" stroke="#4B86B4" stroke-width="0.829527"/>
<path d="M18.5619 18.4784C17.1873 20.1102 15.322 21.2068 13.2715 21.5887C11.221 21.9706 9.10686 21.615 7.2755 20.5802C5.44415 19.5455 4.00412 17.8929 3.19133 15.8932C2.37854 13.8935 2.24118 11.6653 2.80175 9.57354C3.36232 7.4818 4.58759 5.65058 6.27682 4.37987C7.96606 3.10916 10.0191 2.47431 12.0996 2.57931C14.1801 2.68431 16.1648 3.52294 17.7284 4.95782C19.2921 6.39269 20.342 8.33874 20.7062 10.4771" stroke="#4B86B4" stroke-linecap="round"/>
<path d="M7.61 16.06C7.10333 16.06 6.62333 15.98 6.17 15.82C5.72333 15.6533 5.36333 15.4333 5.09 15.16L5.44 14.59C5.66667 14.8233 5.97 15.0167 6.35 15.17C6.73667 15.3233 7.15667 15.4 7.61 15.4C8.19 15.4 8.63333 15.2733 8.94 15.02C9.25333 14.7667 9.41 14.4267 9.41 14C9.41 13.5733 9.25667 13.2333 8.95 12.98C8.65 12.7267 8.17333 12.6 7.52 12.6H7.02V12.07L9.18 9.36L9.28 9.64H5.38V9H9.88V9.51L7.72 12.22L7.37 11.99H7.64C8.48 11.99 9.10667 12.1767 9.52 12.55C9.94 12.9233 10.15 13.4033 10.15 13.99C10.15 14.3833 10.0567 14.7367 9.87 15.05C9.68333 15.3633 9.4 15.61 9.02 15.79C8.64667 15.97 8.17667 16.06 7.61 16.06ZM13.9545 16.06C13.4145 16.06 12.9345 15.92 12.5145 15.64C12.0945 15.3533 11.7645 14.9467 11.5245 14.42C11.2845 13.8867 11.1645 13.2467 11.1645 12.5C11.1645 11.7533 11.2845 11.1167 11.5245 10.59C11.7645 10.0567 12.0945 9.65 12.5145 9.37C12.9345 9.08333 13.4145 8.94 13.9545 8.94C14.4945 8.94 14.9745 9.08333 15.3945 9.37C15.8145 9.65 16.1445 10.0567 16.3845 10.59C16.6312 11.1167 16.7545 11.7533 16.7545 12.5C16.7545 13.2467 16.6312 13.8867 16.3845 14.42C16.1445 14.9467 15.8145 15.3533 15.3945 15.64C14.9745 15.92 14.4945 16.06 13.9545 16.06ZM13.9545 15.4C14.3679 15.4 14.7279 15.29 15.0345 15.07C15.3412 14.8433 15.5812 14.5167 15.7545 14.09C15.9279 13.6567 16.0145 13.1267 16.0145 12.5C16.0145 11.8733 15.9279 11.3467 15.7545 10.92C15.5812 10.4867 15.3412 10.16 15.0345 9.94C14.7279 9.71333 14.3679 9.6 13.9545 9.6C13.5545 9.6 13.1979 9.71333 12.8845 9.94C12.5712 10.16 12.3279 10.4867 12.1545 10.92C11.9812 11.3467 11.8945 11.8733 11.8945 12.5C11.8945 13.1267 11.9812 13.6567 12.1545 14.09C12.3279 14.5167 12.5712 14.8433 12.8845 15.07C13.1979 15.29 13.5545 15.4 13.9545 15.4Z" fill="#4B86B4"/>
</svg>
