<svg width="150" height="150" viewBox="0 0 150 150" fill="none" xmlns="http://www.w3.org/2000/svg">
<g clip-path="url(#clip0_3241_9252)">
<path d="M75.0017 150.003C116.424 150.003 150.003 116.424 150.003 75.0017C150.003 33.5794 116.424 0 75.0017 0C33.5794 0 0 33.5794 0 75.0017C0 116.424 33.5794 150.003 75.0017 150.003Z" fill="#4B86B4"/>
<path d="M62.6744 92.3204C60.5949 97.7265 58.5189 103.129 56.4394 108.535C54.5166 113.537 49.7097 116.836 44.3524 116.836C35.0173 116.836 28.7474 107.253 32.4884 98.6983L57.7421 40.9283C59.8042 36.2119 64.4613 33.1641 69.6061 33.1641H80.3938C85.5386 33.1641 90.1992 36.2119 92.2578 40.9283L117.512 98.6983C121.253 107.253 114.983 116.836 105.648 116.836H105.17C99.813 116.836 95.0061 113.537 93.0834 108.535L86.8483 92.3204C82.5918 81.2541 66.931 81.2541 62.6744 92.3204Z" fill="white"/>
<path d="M71.4419 92.0175C70.5537 93.4108 69.0141 94.2503 67.3699 94.2503H61.3404C57.373 94.2503 55.0914 89.7429 57.4391 86.5418L64.1549 77.3738C64.5137 76.8827 64.7714 76.3428 64.9212 75.782C65.0605 75.2699 65.0605 74.7196 64.9212 74.2075C64.7679 73.6467 64.5137 73.1068 64.1549 72.6157L57.4391 63.4512C55.0914 60.2501 57.373 55.7427 61.3404 55.7427H67.3699C69.0141 55.7427 70.5537 56.5822 71.4419 57.9755C73.288 60.8527 77.4575 60.9572 79.4569 58.1845L79.7565 57.7561C80.6691 56.4916 82.1355 55.7393 83.6891 55.7393H88.6632C92.6689 55.7393 94.9435 60.3337 92.5087 63.5174L86.0751 71.9434C85.3889 72.8386 85.058 73.9184 85.0928 74.9913C85.0615 76.0641 85.3924 77.1439 86.0751 78.0391L92.5087 86.4652C94.9435 89.6489 92.6689 94.2433 88.6632 94.2433H83.6891C82.132 94.2433 80.6656 93.4944 79.7565 92.2265L79.4569 91.7981C77.4575 89.0254 73.288 89.1299 71.4419 92.007V92.0175Z" fill="#FEB739"/>
</g>
<defs>
<clipPath id="clip0_3241_9252">
<rect width="150" height="150" fill="white"/>
</clipPath>
</defs>
</svg>
