<svg width="25" height="25" viewBox="0 0 25 25" fill="none" xmlns="http://www.w3.org/2000/svg">
<path fill-rule="evenodd" clip-rule="evenodd" d="M14.9148 2.6461C15.0021 2.81542 15.0238 3.03226 15.0672 3.46593C15.1493 4.2868 15.1903 4.69723 15.3621 4.92242C15.58 5.20807 15.9344 5.35487 16.2905 5.30697C16.5712 5.26921 16.8904 5.00801 17.5289 4.48562C17.8662 4.20964 18.0349 4.07165 18.2163 4.01368C18.4468 3.94004 18.6962 3.95248 18.9183 4.04868C19.0931 4.12443 19.2471 4.27852 19.5553 4.58669L20.4488 5.48016C20.757 5.78834 20.9111 5.94243 20.9868 6.11724C21.083 6.33927 21.0954 6.58864 21.0218 6.81914C20.9638 7.00061 20.8258 7.16927 20.5499 7.50659C20.0275 8.14509 19.7663 8.46434 19.7285 8.74505C19.6806 9.10111 19.8274 9.45551 20.113 9.67342C20.3382 9.84521 20.7487 9.88626 21.5696 9.96835C22.0033 10.0117 22.2201 10.0334 22.3894 10.1207C22.6045 10.2317 22.772 10.4168 22.861 10.6418C22.931 10.819 22.931 11.0369 22.931 11.4727V12.7364C22.931 13.1721 22.931 13.39 22.861 13.5671C22.772 13.7922 22.6045 13.9774 22.3893 14.0883C22.2201 14.1756 22.0033 14.1973 21.5697 14.2406L21.5696 14.2406C20.749 14.3227 20.3387 14.3637 20.1136 14.5354C19.8278 14.7533 19.6809 15.1079 19.7289 15.4641C19.7667 15.7447 20.0278 16.0638 20.55 16.7021C20.8259 17.0393 20.9638 17.2079 21.0218 17.3893C21.0955 17.6198 21.0831 17.8693 20.9868 18.0914C20.9111 18.2662 20.757 18.4202 20.449 18.7283L19.5554 19.6218C19.2472 19.93 19.0931 20.0841 18.9183 20.1599C18.6963 20.2561 18.4469 20.2685 18.2164 20.1949C18.0349 20.1369 17.8663 19.9989 17.5289 19.7229L17.5289 19.7229C16.8905 19.2005 16.5712 18.9393 16.2905 18.9016C15.9345 18.8537 15.58 19.0005 15.3621 19.2861C15.1903 19.5113 15.1493 19.9218 15.0672 20.7428C15.0238 21.1767 15.0021 21.3936 14.9147 21.563C14.8038 21.778 14.6188 21.9454 14.3938 22.0344C14.2166 22.1045 13.9986 22.1045 13.5627 22.1045H12.2993C11.8634 22.1045 11.6455 22.1045 11.4683 22.0344C11.2433 21.9455 11.0582 21.7779 10.9473 21.5629C10.8599 21.3936 10.8383 21.1767 10.7949 20.743C10.7128 19.9221 10.6718 19.5117 10.4999 19.2865C10.282 19.0009 9.92766 18.8541 9.5716 18.902C9.29088 18.9397 8.97162 19.2009 8.33311 19.7233L8.33309 19.7234C7.99576 19.9994 7.8271 20.1374 7.64561 20.1953C7.41513 20.269 7.16577 20.2565 6.94375 20.1603C6.76893 20.0846 6.61483 19.9305 6.30664 19.6223L5.4132 18.7288C5.10501 18.4207 4.95091 18.2666 4.87517 18.0917C4.77897 17.8697 4.76653 17.6204 4.84016 17.3899C4.89814 17.2084 5.03614 17.0397 5.31213 16.7024C5.83454 16.0639 6.09574 15.7446 6.1335 15.4639C6.1814 15.1079 6.0346 14.7535 5.74895 14.5356C5.52376 14.3638 5.11333 14.3227 4.29246 14.2406C3.85879 14.1973 3.64196 14.1756 3.47264 14.0883C3.25759 13.9773 3.09005 13.7922 3.00108 13.5672C2.93103 13.39 2.93103 13.1721 2.93103 12.7363V11.4728C2.93103 11.0369 2.93103 10.8189 3.00111 10.6417C3.09008 10.4168 3.25757 10.2317 3.47255 10.1208C3.64191 10.0334 3.8588 10.0117 4.29258 9.96834H4.29258H4.29259C5.11367 9.88623 5.52422 9.84517 5.74945 9.6733C6.03498 9.45541 6.18173 9.10113 6.1339 8.74515C6.09617 8.46436 5.83488 8.14501 5.31231 7.50631C5.03619 7.16884 4.89814 7.0001 4.84017 6.81854C4.7666 6.58814 4.77903 6.33887 4.87516 6.11692C4.95091 5.94203 5.10506 5.78788 5.41336 5.47958L6.30668 4.58626L6.30669 4.58626C6.61488 4.27806 6.76898 4.12397 6.9438 4.04822C7.16581 3.95203 7.41517 3.93959 7.64566 4.01321C7.82715 4.07119 7.99584 4.20921 8.33323 4.48525C8.97164 5.0076 9.29085 5.26877 9.57147 5.30656C9.92764 5.35453 10.2822 5.20768 10.5001 4.92191C10.6718 4.69676 10.7128 4.28644 10.7949 3.4658C10.8383 3.03225 10.8599 2.81548 10.9472 2.6462C11.0581 2.43107 11.2433 2.26347 11.4684 2.1745C11.6456 2.10449 11.8634 2.10449 12.2991 2.10449H13.5628C13.9986 2.10449 14.2166 2.10449 14.3937 2.17454C14.6187 2.26351 14.8039 2.43105 14.9148 2.6461ZM12.931 16.1045C15.1402 16.1045 16.931 14.3136 16.931 12.1045C16.931 9.89535 15.1402 8.10449 12.931 8.10449C10.7219 8.10449 8.93103 9.89535 8.93103 12.1045C8.93103 14.3136 10.7219 16.1045 12.931 16.1045Z" fill="#4B86B4"/>
</svg>
