<svg width="25" height="25" viewBox="0 0 25 25" fill="none" xmlns="http://www.w3.org/2000/svg">
<path d="M3.93103 8.4834C3.93103 7.54059 3.93103 7.06918 4.22392 6.77629C4.51682 6.4834 4.98822 6.4834 5.93103 6.4834H16.8607C17.3846 6.4834 17.6466 6.4834 17.8677 6.60172C18.0888 6.72005 18.2341 6.93803 18.5248 7.374L21.1914 11.374C21.5499 11.9117 21.7292 12.1806 21.7292 12.4834C21.7292 12.7862 21.5499 13.055 21.1914 13.5928L18.5248 17.5928C18.2341 18.0288 18.0888 18.2467 17.8677 18.3651C17.6466 18.4834 17.3846 18.4834 16.8607 18.4834H5.93103C4.98822 18.4834 4.51682 18.4834 4.22392 18.1905C3.93103 17.8976 3.93103 17.4262 3.93103 16.4834V8.4834Z" stroke="#4B86B4" stroke-width="2"/>
<circle cx="15.931" cy="12.4834" r="1" fill="#4B86B4" stroke="#4B86B4" stroke-width="2"/>
</svg>
