<svg width="14" height="14" viewBox="0 0 14 14" fill="none" xmlns="http://www.w3.org/2000/svg">
<path d="M4.95834 7.29199L9.04167 7.29199" stroke="#3B4B53" stroke-linecap="round"/>
<path d="M4.95834 9.04199L7.29167 9.04199" stroke="#3B4B53" stroke-linecap="round"/>
<path d="M3.20834 4.44199C3.20834 3.60191 3.20834 3.18187 3.37183 2.86101C3.51564 2.57876 3.74511 2.34929 4.02735 2.20548C4.34822 2.04199 4.76826 2.04199 5.60834 2.04199H6.88089C7.24778 2.04199 7.43122 2.04199 7.60385 2.08344C7.7569 2.12018 7.90322 2.18079 8.03743 2.26303C8.18881 2.35579 8.31852 2.48551 8.57795 2.74494L10.0887 4.25571C10.3482 4.51514 10.4779 4.64486 10.5706 4.79623C10.6529 4.93044 10.7135 5.07676 10.7502 5.22981C10.7917 5.40244 10.7917 5.58589 10.7917 5.95277V9.55866C10.7917 10.3987 10.7917 10.8188 10.6282 11.1396C10.4844 11.4219 10.2549 11.6514 9.97266 11.7952C9.65179 11.9587 9.23175 11.9587 8.39167 11.9587H5.60834C4.76826 11.9587 4.34822 11.9587 4.02735 11.7952C3.74511 11.6514 3.51564 11.4219 3.37183 11.1396C3.20834 10.8188 3.20834 10.3987 3.20834 9.55866V4.44199Z" stroke="#3B4B53"/>
<path d="M7.29166 2.04199V3.14199C7.29166 3.98207 7.29166 4.40211 7.45515 4.72298C7.59896 5.00522 7.82844 5.23469 8.11068 5.3785C8.43155 5.54199 8.85159 5.54199 9.69166 5.54199H10.7917" stroke="#3B4B53"/>
</svg>
