<svg width="20" height="20" viewBox="0 0 20 20" fill="none" xmlns="http://www.w3.org/2000/svg">
<path d="M17.4558 10.8445L18.1939 11.5193L18.1939 11.5193L17.4558 10.8445ZM17.4558 2.68902L16.7178 3.36374L16.7178 3.36376L17.4558 2.68902ZM10 2.6891L9.26196 3.36384L10 4.17115L10.7381 3.36382L10 2.6891ZM2.54415 2.6891L3.28221 3.36384L3.28221 3.36383L2.54415 2.6891ZM2.54415 10.8445L3.28359 10.1713L3.2822 10.1698L2.54415 10.8445ZM2.56571 10.868L3.30379 10.1933L3.29889 10.188L2.56571 10.868ZM10 19L9.26195 19.6747C9.4514 19.882 9.71924 20 10 20C10.2808 20 10.5486 19.882 10.7381 19.6747L10 19ZM18.1939 11.5193C20.602 8.88511 20.602 4.64838 18.1939 2.01427L16.7178 3.36376C18.4274 5.23379 18.4274 8.29969 16.7178 10.1698L18.1939 11.5193ZM18.1939 2.01429C15.7386 -0.671513 11.7172 -0.671374 9.26195 2.01437L10.7381 3.36382C12.4004 1.54543 15.0555 1.54539 16.7178 3.36374L18.1939 2.01429ZM10.7381 2.01435C8.28268 -0.671387 4.26144 -0.671399 1.8061 2.01436L3.28221 3.36383C4.94459 1.54545 7.59952 1.54544 9.26196 3.36384L10.7381 2.01435ZM1.8061 2.01436C-0.60203 4.64846 -0.602039 8.88522 1.80611 11.5193L3.2822 10.1698C1.5726 8.2998 1.57259 5.23388 3.28221 3.36384L1.8061 2.01436ZM1.80472 11.5178C1.81227 11.5261 1.82204 11.5368 1.83254 11.5481L3.29889 10.188C3.29499 10.1838 3.29038 10.1788 3.28358 10.1713L1.80472 11.5178ZM1.82766 11.5428L9.26195 19.6747L10.7381 18.3253L3.30377 10.1933L1.82766 11.5428ZM10.7381 19.6747L18.1939 11.5193L16.7178 10.1698L9.26196 18.3253L10.7381 19.6747Z" fill="#3B4B53"/>
</svg>
