<svg width="60" height="60" viewBox="0 0 60 60" fill="none" xmlns="http://www.w3.org/2000/svg">
<g clip-path="url(#clip0_1672_7685)">
<rect width="360" height="800" transform="translate(-150 -346)" fill="#F9F9F9"/>
<g filter="url(#filter0_d_1672_7685)">
<rect x="11" y="11" width="38" height="38" rx="19" fill="white"/>
<path fill-rule="evenodd" clip-rule="evenodd" d="M37.87 30.7915C40.0433 28.6784 40.0433 25.2525 37.87 23.1394C35.6968 21.0264 32.1732 21.0265 30 23.1395C27.8267 21.0265 24.3032 21.0265 22.1299 23.1395C19.9567 25.2526 19.9567 28.6785 22.1299 30.7915C22.1375 30.7989 22.1451 30.8063 22.1527 30.8136L30 38.4436L37.87 30.7915Z" fill="#FEB739"/>
<path d="M37.87 30.7915L38.5671 31.5085L38.5671 31.5085L37.87 30.7915ZM37.87 23.1394L37.1729 23.8564L37.1729 23.8564L37.87 23.1394ZM30 23.1395L29.3029 23.8565L30 24.5343L30.6971 23.8565L30 23.1395ZM22.1299 23.1395L22.827 23.8565L22.827 23.8565L22.1299 23.1395ZM22.1299 30.7915L22.8285 30.076L22.827 30.0746L22.1299 30.7915ZM22.1527 30.8136L22.8498 30.0966L22.8446 30.0916L22.1527 30.8136ZM30 38.4436L29.3029 39.1605C29.691 39.5379 30.309 39.5379 30.6971 39.1605L30 38.4436ZM38.5671 31.5085C41.1443 29.0027 41.1443 24.9282 38.5671 22.4225L37.1729 23.8564C38.9423 25.5768 38.9423 28.3541 37.1729 30.0746L38.5671 31.5085ZM38.5671 22.4225C36.0058 19.932 31.8642 19.9321 29.3029 22.4226L30.6971 23.8565C32.4822 22.1208 35.3879 22.1207 37.1729 23.8564L38.5671 22.4225ZM30.6971 22.4225C28.1357 19.9321 23.9942 19.9321 21.4328 22.4226L22.827 23.8565C24.6122 22.1208 27.5177 22.1208 29.3029 23.8565L30.6971 22.4225ZM21.4328 22.4226C18.8557 24.9283 18.8557 29.0028 21.4328 31.5085L22.827 30.0746C21.0577 28.3542 21.0576 25.5769 22.827 23.8565L21.4328 22.4226ZM21.4314 31.5071C21.4393 31.5149 21.4497 31.5249 21.4608 31.5356L22.8446 30.0916C22.8405 30.0877 22.8357 30.083 22.8285 30.076L21.4314 31.5071ZM21.4556 31.5306L29.3029 39.1605L30.6971 37.7266L22.8498 30.0966L21.4556 31.5306ZM30.6971 39.1605L38.5671 31.5085L37.1729 30.0746L29.3029 37.7266L30.6971 39.1605Z" fill="#FEB739"/>
</g>
</g>
<defs>
<filter id="filter0_d_1672_7685" x="-14.3333" y="-9.26667" width="88.6667" height="88.6667" filterUnits="userSpaceOnUse" color-interpolation-filters="sRGB">
<feFlood flood-opacity="0" result="BackgroundImageFix"/>
<feColorMatrix in="SourceAlpha" type="matrix" values="0 0 0 0 0 0 0 0 0 0 0 0 0 0 0 0 0 0 127 0" result="hardAlpha"/>
<feOffset dy="5.06667"/>
<feGaussianBlur stdDeviation="12.6667"/>
<feColorMatrix type="matrix" values="0 0 0 0 0 0 0 0 0 0 0 0 0 0 0 0 0 0 0.25 0"/>
<feBlend mode="normal" in2="BackgroundImageFix" result="effect1_dropShadow_1672_7685"/>
<feBlend mode="normal" in="SourceGraphic" in2="effect1_dropShadow_1672_7685" result="shape"/>
</filter>
<clipPath id="clip0_1672_7685">
<rect width="360" height="800" fill="white" transform="translate(-150 -346)"/>
</clipPath>
</defs>
</svg>
