<svg width="35" height="35" viewBox="0 0 35 35" fill="none" xmlns="http://www.w3.org/2000/svg">
<path d="M17.4997 3.64551C13.8253 3.64551 10.3015 5.10514 7.7033 7.7033C5.10514 10.3015 3.64551 13.8253 3.64551 17.4997C3.64551 21.174 5.10514 24.6979 7.7033 27.296C10.3015 29.8942 13.8253 31.3538 17.4997 31.3538C21.174 31.3538 24.6979 29.8942 27.296 27.296C29.8942 24.6979 31.3538 21.174 31.3538 17.4997C31.3538 13.8253 29.8942 10.3015 27.296 7.7033C24.6979 5.10514 21.174 3.64551 17.4997 3.64551Z" fill="#1877F2"/>
<path d="M19.3755 21.172H22.9608L23.5238 17.5298H19.3748V15.5392C19.3748 14.0262 19.8692 12.6845 21.2845 12.6845H23.5587V9.50607C23.1592 9.45211 22.3141 9.33398 20.7172 9.33398C17.3827 9.33398 15.4278 11.0949 15.4278 15.1068V17.5298H12V21.172H15.4278V31.1827C16.1067 31.2848 16.7943 31.3541 17.5001 31.3541C18.1381 31.3541 18.7608 31.2958 19.3755 31.2126V21.172Z" fill="white"/>
</svg>
