<svg width="200" height="200" viewBox="0 0 200 200" fill="none" xmlns="http://www.w3.org/2000/svg">
<g clip-path="url(#clip0_3234_9022)">
<path d="M100 200C155.228 200 200 155.228 200 100C200 44.7715 155.228 0 100 0C44.7715 0 0 44.7715 0 100C0 155.228 44.7715 200 100 200Z" fill="#19A482"/>
<mask id="mask0_3234_9022" style="mask-type:luminance" maskUnits="userSpaceOnUse" x="0" y="0" width="200" height="200">
<path d="M100 200C155.228 200 200 155.228 200 100C200 44.7715 155.228 0 100 0C44.7715 0 0 44.7715 0 100C0 155.228 44.7715 200 100 200Z" fill="white"/>
</mask>
<g mask="url(#mask0_3234_9022)">
<path d="M187.922 196.067C186.669 180.294 183.984 180.75 184.121 174.727C184.881 140.942 189.391 134.679 183.87 127.753C172.828 113.897 170.89 115.616 164.159 129.406C161.266 135.333 180.557 157.095 160.892 143.999C149.518 136.424 156.247 224.632 159.582 237.174C161.474 244.283 162.702 250.663 162.9 251.704C163.351 254.061 164.106 258.24 164.924 264.46C167.193 281.674 168.517 312.539 166.651 321.272C165.402 327.109 191.235 328.031 191.473 325.407C193.111 307.284 195.343 294.73 193.043 262.642C191.194 236.819 190.098 223.409 187.922 196.065V196.067Z" fill="#121251"/>
<path d="M159.385 29.1301C151.858 41.198 144.607 66.2961 146.096 69.2517C148.613 74.2485 156.774 77.2978 160.859 74.7069C164.979 72.0958 162.178 65.5135 162.143 39.0807C162.135 32.5466 161.973 24.9766 159.385 29.1276V29.1301Z" fill="#1A90E8"/>
<path d="M219.45 216.006C217.987 200.251 218.078 186.473 218.133 180.451C218.442 146.658 222.867 140.337 217.255 133.484C206.028 119.777 170.69 123.556 164.143 137.435C161.33 143.399 165.86 146.932 172.921 169.477C180.431 193.448 176.624 193.658 183.895 213.372C186.83 221.332 190.928 230.726 194.431 243.222C196.416 250.305 197.731 256.667 197.944 257.705C198.425 260.056 199.235 264.224 200.139 270.434C202.636 287.616 204.374 318.46 202.624 327.218C201.454 333.071 227.296 333.648 227.499 331.022C228.895 312.878 230.959 300.296 228.231 268.241C226.038 242.447 221.991 243.32 219.453 216.006H219.45Z" fill="#191960"/>
<path d="M208.646 -18.5763C209.249 -20.9873 195.226 0.327091 186.719 -0.769527C182.211 -1.35203 179.557 -6.55653 178.134 -5.64733C177.1 -4.98632 179.724 0.147278 180.405 5.27834C180.664 7.21832 180.165 11.2502 178.524 17.1791C176.513 24.4476 172.207 26.1014 173.061 27.9097C175.479 33.0332 211.817 23.5612 211.691 14.8389C211.655 12.4988 202.325 6.64595 208.644 -18.5763H208.646Z" fill="#EB8E6C"/>
<path d="M186.719 -0.770134C182.211 -1.35263 179.557 -6.55714 178.136 -5.64794C177.181 -5.03758 179.352 -0.597916 180.223 4.1254C181.142 5.35624 182.393 6.55163 184.095 7.42285C184.916 7.84326 187.489 9.03106 190.657 8.56506C195.629 7.83313 198.6 3.54543 200.785 0.291029C204.825 -5.72391 206.673 -12.1745 207.489 -17.6348C204.012 -13.5573 193.572 0.113745 186.719 -0.770134Z" fill="#C36252"/>
<path d="M211.399 11.718C207.732 8.37753 207.874 7.89127 206.717 7.62028C203.7 6.91368 201.578 9.93255 193.256 16.4008C186.258 21.8358 183.032 23.3756 180.086 22.5475C178.511 22.1043 179.281 15.6816 177.746 15.6562C176.28 15.6335 161.385 22.4842 157.855 31.8016C151.334 49.0132 155.198 85.7335 151.751 118.242C149.543 139.06 147.912 155.094 149.442 158.799C153.78 169.304 221.517 166.182 222.067 159.339C222.396 155.243 222.3 161.035 222.811 132.29C222.941 125.09 223.26 119.579 223.396 117.366C224.027 107.213 224.903 100.878 226.322 89.5653C228.411 72.9033 231.724 64.4799 232.38 52.9919C232.873 44.3558 236.28 36.0767 224.404 23.5757C220.871 19.8553 215.626 15.5752 211.397 11.7206L211.399 11.718Z" fill="#15B0ED"/>
<path d="M226.321 50.9333C218.929 68.1575 222.938 78.7033 215.624 92.8732C211.577 100.714 206.397 105.139 200.218 110.419C186.904 121.793 169.867 122.758 152.124 129.277C151.863 133.053 154.714 129.578 154.507 132.8C162.512 129.495 186.704 129.358 208.841 118.318C220.99 112.26 229.477 63.0037 230.133 51.5183C230.292 48.7425 230.427 45.8579 230.376 42.9834C228.993 45.3109 227.6 47.965 226.324 50.9358L226.321 50.9333Z" fill="#1A90E8"/>
<path d="M178.349 30.2695C177.711 30.0188 176.921 30.5 176.589 31.3434C176.254 32.1892 176.503 33.0782 177.141 33.3315C177.779 33.5822 178.569 33.101 178.901 32.2576C179.235 31.4117 178.987 30.5228 178.349 30.2695Z" fill="#191960"/>
<path d="M174.074 41.1113C173.436 40.858 172.645 41.3417 172.314 42.1851C171.979 43.031 172.227 43.9199 172.866 44.1732C173.504 44.4239 174.294 43.9427 174.626 43.0994C174.96 42.2535 174.712 41.3645 174.074 41.1113Z" fill="#191960"/>
<path d="M196.546 -44.8602C190.928 -46.2556 183.766 -45.2147 179.651 -40.7624C177.386 -38.3134 176.771 -35.6161 175.629 -30.6168C174.677 -26.4481 174.651 -23.1785 174.623 -19.3011C174.596 -15.4237 174.889 -13.2051 175.429 -9.15545C175.804 -6.3316 178.478 0.438061 182.267 2.74527C184.149 3.89254 186.043 4.20405 187.697 4.30536C188.854 4.37627 191.354 4.50543 194.132 3.3303C196.399 2.37044 197.668 1.04589 199.965 -1.35249C200.805 -2.2313 202.558 -4.07758 204.189 -6.62032C208.335 -13.0861 208.92 -19.7367 209.216 -23.5938C209.672 -29.5202 209.9 -32.4833 208.211 -35.8846C204.837 -42.677 197.384 -44.6499 196.546 -44.8602Z" fill="#EB8E6C"/>
<path d="M155.495 64.873H42.8594V127.765H155.495V64.873Z" fill="#7CB7CE"/>
<path d="M155.495 64.873H42.8594V141.482H155.495V64.873Z" fill="#F5BD73"/>
<path d="M80.8789 64.873H42.8594V141.482H80.8789V64.873Z" fill="#F9CE8F"/>
<path d="M140.463 108.74C132.98 121.044 124.954 128.013 122.462 130.09C116.074 135.416 109.543 139.043 103.295 141.482H155.497V64.873H155.424C153.57 78.3161 149.393 94.0563 140.463 108.74Z" fill="#EFB26A"/>
<path d="M206.716 7.62028C203.7 6.91368 201.578 9.93255 193.256 16.4008C186.258 21.8358 183.032 23.3756 180.086 22.5475C178.511 22.1043 177.784 15.9754 176.249 15.95C175.707 15.9424 172.785 22.1068 170.135 24.3026C171.536 23.7859 174.958 21.8662 175.535 22.2613C177.232 23.4238 177.029 27.9672 177.029 27.9672C177.029 27.9672 180.094 26.3565 183.239 25.6854C186.215 25.0497 188.841 26.2172 189.515 26.5414C192.278 27.8735 192.397 29.5805 193.795 29.6793C196.525 29.8743 198.364 23.52 201.355 18.8372C203.052 16.1805 205.696 13.1692 210.027 10.434C207.75 8.24077 207.707 7.85328 206.716 7.62028Z" fill="#1A90E8"/>
<path d="M209.351 5.42515C209.097 4.63497 209.135 4.23229 208.765 3.22937C208.391 2.2138 208.203 1.70474 207.887 1.47428C206.159 0.207974 192.321 14.5577 188.016 19.4786C186.18 21.5756 181.93 21.8314 180.405 21.8314C178.784 21.8314 179.359 23.4674 179.425 23.86C179.618 24.9997 186.111 21.6693 190.619 24.7388C192.587 26.0786 192.516 26.8535 193.545 26.9346C196.867 27.198 197.007 19.0911 204.08 13.765C207.038 11.5389 211.171 9.82428 210.812 8.05906C210.665 7.34233 209.87 7.06374 209.348 5.42515H209.351Z" fill="#31D2F7"/>
<path d="M179.995 10.855C180.155 9.14798 175.702 14.7374 174.674 16.2519C172.06 20.099 169.852 24.1157 170.138 24.3006C170.531 24.5513 175.983 16.8294 176.138 17.9361C176.503 20.57 178.496 24.0853 179.43 23.8624C180.291 23.6573 180.679 22.1681 180.41 21.8338C177.928 18.744 179.683 14.1904 179.998 10.855H179.995Z" fill="#31D2F7"/>
<path d="M178.985 23.6264C178.762 23.5074 178.486 23.5834 178.356 23.8012C176.966 26.1109 175.175 29.2741 173.98 31.5915C170.318 38.6802 168.892 47.5418 168.879 47.6305L168.791 48.1927L169.358 48.2459C169.378 48.2459 171.351 48.4333 173.299 48.5751C173.595 48.5979 173.851 48.3725 173.871 48.0787C173.891 47.785 173.671 47.5292 173.377 47.5089C172.076 47.4127 170.764 47.2987 170.037 47.2354C170.412 45.1941 171.878 37.999 174.932 32.0853C176.11 29.806 177.809 26.5896 179.174 24.2925C179.314 24.0595 179.228 23.7581 178.987 23.6315L178.985 23.6264Z" fill="#198BD8"/>
<path d="M198.493 69.2922C196.08 77.4066 194.041 90.6345 193.917 93.2481C193.831 95.0944 181.955 99.881 171.617 105.316C167.286 107.593 163.72 108.897 160.524 110.067C153.04 112.807 150.698 112.744 146.142 115.358C145.301 115.839 144.174 116.535 142.431 117.006C139.896 117.693 138.815 117.158 134.664 117.05C132.162 116.984 129.505 116.915 126.208 117.554C123.685 118.04 123.399 118.437 121.006 118.706C119.496 118.876 117.516 119.096 115.036 118.711C111.967 118.232 110.703 117.224 109.604 118.025C108.854 118.572 108.606 119.648 108.725 120.436C109.069 122.715 112.628 123.586 113.051 123.685C114.616 124.05 115.001 123.637 118.638 123.604C122.32 123.574 122.839 123.989 123.077 124.29C123.817 125.235 123.234 126.927 122.391 128.73C118.648 136.725 113.772 142.105 113.6 143.888C113.57 144.212 113.77 145.929 114.712 146.296C115.781 146.714 117.878 146.01 117.878 146.01C117.878 146.01 117.837 147.281 118.693 148.284C119.519 149.252 120.669 148.54 122.214 149.583C123.434 150.407 123.141 151.136 124.014 151.534C126.083 152.476 129.943 149.73 129.943 149.73C129.943 149.73 128.821 152.476 129.753 152.676C132.615 153.294 137.475 141.882 142.637 136.941C144.86 134.813 144.939 133.658 146.344 132.309C148.039 130.68 149.928 129.948 152.119 129.282C161.426 126.456 177.062 124.903 202.193 113.6C205.179 112.258 206.428 111.42 207.854 110.153C210.814 107.524 212.177 104.559 212.861 102.996C217.483 92.4554 221.482 76.8647 222.216 74.0256C226.337 58.1259 228.193 56.0872 226.527 54.3954C221.96 49.7556 202.115 57.1179 198.491 69.2972L198.493 69.2922Z" fill="#EB8E6C"/>
<path d="M124.782 136.933C124.584 136.804 124.321 136.857 124.191 137.052C123.024 138.804 121.806 140.552 120.567 142.251C120.2 142.755 119.567 143.447 118.957 144.118C118.539 144.576 118.136 145.017 117.819 145.397C117.662 145.584 117.693 145.863 117.888 146.012C118.07 146.152 118.328 146.124 118.475 145.949C118.782 145.584 119.177 145.149 119.592 144.695C120.218 144.009 120.866 143.297 121.261 142.755C122.507 141.046 123.731 139.291 124.906 137.528C125.037 137.33 124.982 137.065 124.784 136.933H124.782Z" fill="#C36252"/>
<path d="M128.669 139.871C128.457 139.77 128.206 139.858 128.102 140.069C127.051 142.198 125.772 144.204 124.298 146.033C123.779 146.676 122.875 147.552 122.148 148.256C121.993 148.406 121.846 148.548 121.712 148.679C121.543 148.847 121.543 149.12 121.712 149.287C121.879 149.452 122.145 149.452 122.312 149.287C122.444 149.158 122.591 149.016 122.743 148.869C123.488 148.148 124.412 147.251 124.964 146.567C126.479 144.688 127.793 142.629 128.869 140.441C128.976 140.228 128.882 139.967 128.669 139.866V139.871Z" fill="#C36252"/>
<path d="M132.529 143.29C132.255 143.166 129.844 149.287 125.395 151.08C124.875 151.29 124.387 151.417 123.961 151.498C123.979 151.508 123.994 151.516 124.014 151.526C125.924 152.397 129.361 150.125 129.875 149.771C131.136 146.823 133.772 143.855 132.529 143.29Z" fill="#C36252"/>
<path d="M112.129 118.632C111.66 118.443 110.949 118.151 110.227 118.44C110.072 118.501 109.811 118.612 109.616 118.878C109.264 119.364 109.328 120.109 109.697 120.534C109.781 120.631 109.935 120.778 110.581 120.973C111.693 121.307 112.25 121.477 112.706 121.173C113.251 120.808 113.501 119.917 113.185 119.329C113.002 118.99 112.691 118.863 112.129 118.632Z" fill="#FFE8E1"/>
<path d="M227.203 31.0498C225.425 29.6189 222.449 28.6894 219.549 28.5299C212.073 28.1196 206.831 33.5546 206.048 34.3929C203.652 36.9559 202.72 39.453 201.233 43.5786C199.276 49.0085 199.587 50.989 198.144 58.0829C195.771 69.7455 195.17 75.9909 195.17 75.9909C196.482 77.2269 197.576 75.8061 202.669 76.2923C210.457 77.0344 216.68 81.1904 217.673 81.8691C219.954 83.4292 220.421 84.5486 220.659 83.8572C224.936 71.3816 238.349 40.0254 227.205 31.0524L227.203 31.0498Z" fill="#27C3F2"/>
<path d="M197.098 94.2029C195.973 93.5976 195.094 93.1822 194.474 92.9644C194.231 92.8783 193.967 93.0227 193.912 93.2759C193.866 93.4862 193.98 93.6989 194.185 93.7698C194.752 93.9674 195.621 94.3776 196.692 94.9576C198.379 95.8693 199.483 97.1458 200.152 98.1639C200.279 98.3564 200.532 98.4146 200.729 98.2956C200.94 98.1689 200.998 97.8929 200.864 97.6878C199.894 96.2112 198.599 95.0133 197.098 94.2029Z" fill="#C36252"/>
<path d="M208.317 76.7103C201.183 75.1908 197.495 75.5656 195.723 75.7454C195.723 75.7454 195.718 75.7454 195.715 75.7454C195.378 75.7783 195.1 75.4947 195.14 75.1579C195.287 73.9625 195.657 71.8376 196.118 69.1682C196.29 68.1704 196.48 67.0788 196.682 65.9012C197.194 62.9051 197.751 59.8736 198.336 56.8876C198.392 56.604 198.207 56.3279 197.923 56.2722H197.906C197.62 56.2114 197.343 56.3988 197.288 56.6825C196.7 59.6786 196.143 62.7152 195.631 65.7214C195.431 66.899 195.241 67.988 195.069 68.9859C194.355 73.1064 193.962 75.3757 194.011 76.143C194.028 76.414 194.16 76.5812 194.266 76.6724C194.58 76.9383 194.998 76.8952 195.834 76.8116C197.554 76.6369 201.135 76.2722 208.099 77.7588C213.509 78.9112 217.888 82.3555 220.241 84.2069L220.329 84.2778L220.99 83.437L220.902 83.366C218.481 81.4615 213.975 77.9184 208.322 76.7129L208.317 76.7103Z" fill="#198BD8"/>
<path d="M219.81 78.2422C217.627 76.6821 215.269 75.3956 212.795 74.4129C208.449 72.6907 204.609 72.2298 202.15 72.1437C200.279 72.0804 198.392 72.1868 196.535 72.4628C196.242 72.5059 196.042 72.787 196.09 73.0808C196.138 73.3695 196.409 73.5645 196.7 73.5214C198.491 73.2555 200.309 73.1542 202.115 73.215C204.488 73.296 208.198 73.7443 212.4 75.4082C214.793 76.3554 217.072 77.6015 219.182 79.1084C219.42 79.278 219.749 79.2299 219.924 78.9944C220.101 78.7563 220.051 78.4144 219.808 78.2422H219.81Z" fill="#198BD8"/>
</g>
</g>
<defs>
<clipPath id="clip0_3234_9022">
<rect width="200" height="200" fill="white"/>
</clipPath>
</defs>
</svg>
