<svg width="17" height="17" viewBox="0 0 17 17" fill="none" xmlns="http://www.w3.org/2000/svg">
<path d="M8.93103 8.12207C7.83103 8.12207 6.88936 7.7304 6.10603 6.94707C5.3227 6.16374 4.93103 5.22207 4.93103 4.12207C4.93103 3.02207 5.3227 2.0804 6.10603 1.29707C6.88936 0.513737 7.83103 0.12207 8.93103 0.12207C10.031 0.12207 10.9727 0.513737 11.756 1.29707C12.5394 2.0804 12.931 3.02207 12.931 4.12207C12.931 5.22207 12.5394 6.16374 11.756 6.94707C10.9727 7.7304 10.031 8.12207 8.93103 8.12207ZM1.93103 16.1221C1.37875 16.1221 0.93103 15.6744 0.93103 15.1221V13.3221C0.93103 12.7554 1.07703 12.2344 1.36903 11.7591C1.66036 11.2844 2.0477 10.9221 2.53103 10.6721C3.56436 10.1554 4.61436 9.76774 5.68103 9.50907C6.7477 9.25107 7.83103 9.12207 8.93103 9.12207C10.031 9.12207 11.1144 9.25107 12.181 9.50907C13.2477 9.76774 14.2977 10.1554 15.331 10.6721C15.8144 10.9221 16.2017 11.2844 16.493 11.7591C16.785 12.2344 16.931 12.7554 16.931 13.3221V15.1221C16.931 15.6744 16.4833 16.1221 15.931 16.1221H1.93103ZM2.93103 13.3221C2.93103 13.7639 3.2892 14.1221 3.73103 14.1221H14.131C14.5729 14.1221 14.931 13.7639 14.931 13.3221C14.931 13.1387 14.8854 12.9721 14.794 12.8221C14.702 12.6721 14.581 12.5554 14.431 12.4721C13.531 12.0221 12.6227 11.6844 11.706 11.4591C10.7894 11.2344 9.86436 11.1221 8.93103 11.1221C7.9977 11.1221 7.0727 11.2344 6.15603 11.4591C5.23936 11.6844 4.33103 12.0221 3.43103 12.4721C3.28103 12.5554 3.16036 12.6721 3.06903 12.8221C2.97703 12.9721 2.93103 13.1387 2.93103 13.3221ZM8.93103 6.12207C9.48103 6.12207 9.95203 5.92607 10.344 5.53407C10.7354 5.14274 10.931 4.67207 10.931 4.12207C10.931 3.57207 10.7354 3.1014 10.344 2.71007C9.95203 2.31807 9.48103 2.12207 8.93103 2.12207C8.38103 2.12207 7.91036 2.31807 7.51903 2.71007C7.12703 3.1014 6.93103 3.57207 6.93103 4.12207C6.93103 4.67207 7.12703 5.14274 7.51903 5.53407C7.91036 5.92607 8.38103 6.12207 8.93103 6.12207Z" fill="#F9F9F9"/>
</svg>
