<svg width="200" height="200" viewBox="0 0 200 200" fill="none" xmlns="http://www.w3.org/2000/svg">
<path d="M100 200C155.228 200 200 155.228 200 100C200 44.7715 155.228 0 100 0C44.7715 0 0 44.7715 0 100C0 155.228 44.7715 200 100 200Z" fill="#FEB739"/>
<mask id="mask0_3234_8925" style="mask-type:luminance" maskUnits="userSpaceOnUse" x="0" y="0" width="200" height="200">
<path d="M100 200C155.228 200 200 155.228 200 100C200 44.7715 155.228 0 100 0C44.7715 0 0 44.7715 0 100C0 155.228 44.7715 200 100 200Z" fill="white"/>
</mask>
<g mask="url(#mask0_3234_8925)">
<path d="M166.406 141.995L176.073 147.004L181.082 137.337L171.415 132.328L166.406 141.995Z" fill="#2D2DAA"/>
<path d="M166.405 141.994L176.072 147.003L178.404 142.503L168.737 137.494L166.405 141.994Z" fill="#20208E"/>
<path d="M173.187 148.44C174.107 149.149 175.419 148.205 178.63 148.205C178.63 148.205 180.659 148.205 183.156 148.825C187.157 149.823 267.281 197.444 272.433 200.12C292.719 210.654 298.488 194.222 280.033 185.449C274.791 182.957 189.829 144.664 186.706 141.969C184.759 140.29 183.589 138.631 183.589 138.631C181.74 136.008 181.753 134.392 180.643 134.05C180.203 133.913 172.823 148.161 173.187 148.443V148.44Z" fill="#4A62C6"/>
<path d="M173.187 148.44C174.107 149.149 175.419 148.205 178.63 148.205C178.63 148.205 180.659 148.205 183.156 148.825C187.157 149.823 267.281 197.444 272.433 200.12C292.719 210.654 298.488 194.222 280.033 185.449C274.791 182.957 189.829 144.664 186.706 141.969C184.759 140.29 183.589 138.631 183.589 138.631C181.74 136.008 181.753 134.392 180.643 134.05C180.203 133.913 172.823 148.161 173.187 148.443V148.44Z" fill="#4A62C6"/>
<path d="M178.397 144.761C178.397 144.761 180.334 144.756 182.717 145.346C186.537 146.291 262.973 191.561 267.889 194.104C281.753 201.274 288.525 195.269 284.779 188.221C297.219 197.189 290.731 209.619 272.435 200.119C267.284 197.445 187.16 149.821 183.158 148.824C180.661 148.201 178.632 148.203 178.632 148.203C175.424 148.203 174.109 149.148 173.19 148.439C173.081 148.355 173.663 147.023 174.547 145.199C175.391 145.083 176.573 144.761 178.399 144.759L178.397 144.761Z" fill="#3552AF"/>
<path d="M161.494 142.101L164.779 143.803C165.883 144.375 167.246 143.945 167.818 142.838L172.891 133.047C173.463 131.942 173.033 130.58 171.926 130.008L168.641 128.306L161.497 142.098L161.494 142.101Z" fill="#4545CE"/>
<path d="M170.333 137.984L167.821 142.834C167.248 143.938 165.888 144.371 164.782 143.799L161.497 142.097L164.009 137.247L167.294 138.949C168.398 139.521 169.761 139.091 170.333 137.984Z" fill="#3535BC"/>
<path d="M131.664 83.5911L135.921 75.3744C136.29 74.6615 137.168 74.3831 137.88 74.7524L187.545 100.485C188.258 100.854 188.536 101.732 188.167 102.445L183.91 110.661C183.54 111.374 182.663 111.653 181.95 111.283L132.286 85.5506C131.573 85.1813 131.294 84.3039 131.664 83.5911Z" fill="#4A62C6"/>
<path d="M103.302 138.336L99.7132 145.262C99.1592 146.331 99.5769 147.647 100.646 148.201L149.018 173.264C150.087 173.818 151.403 173.4 151.957 172.331L155.546 165.405C156.1 164.336 155.682 163.02 154.613 162.466L106.241 137.403C105.172 136.849 103.856 137.267 103.302 138.336Z" fill="#4A62C6"/>
<path d="M138.521 75.0832L151.024 81.5616C149.955 81.0069 148.638 81.4248 148.086 82.4936L144.498 89.4203C143.943 90.489 144.361 91.806 145.43 92.3581L132.926 85.8797C131.857 85.325 131.44 84.0106 131.994 82.9418L135.583 76.0152C136.138 74.9464 137.452 74.5285 138.521 75.0832Z" fill="#3957B5"/>
<path d="M106.238 137.397L118.741 143.875C117.672 143.32 116.355 143.738 115.803 144.807L112.214 151.734C111.66 152.802 112.078 154.119 113.146 154.672L100.643 148.193C99.5742 147.639 99.1563 146.324 99.711 145.255L103.3 138.329C103.854 137.26 105.169 136.842 106.238 137.397Z" fill="#3957B5"/>
<path d="M128.831 96.1616L175.266 120.219L174.555 117.767C174.056 116.05 174.914 114.391 176.606 113.809L179.02 112.978L132.584 88.9209L133.296 91.3725C133.795 93.0896 132.936 94.7484 131.245 95.3309L128.831 96.1616Z" fill="#3845B8"/>
<path d="M132.729 89.5737L178.397 113.233C179.276 113.689 180.357 113.345 180.81 112.466L181.537 111.06L132.688 85.752L131.961 87.1576C131.506 88.0364 131.85 89.1178 132.729 89.5711V89.5737Z" fill="#3E91E5"/>
<path d="M112.273 128.12L158.708 152.177L156.295 153.008C154.603 153.591 153.744 155.249 154.243 156.967L154.955 159.418L108.519 135.361L110.933 134.53C112.625 133.948 113.483 132.289 112.984 130.572L112.273 128.12Z" fill="#3845B8"/>
<path d="M133.293 91.3695L132.582 88.918L142.915 94.2719L143.627 96.7235C144.125 98.4406 143.267 100.099 141.575 100.682L139.162 101.513L128.828 96.1587L131.242 95.328C132.934 94.7455 133.792 93.0866 133.293 91.3695Z" fill="#213793"/>
<path d="M112.984 130.569L112.273 128.117L122.606 133.471L123.317 135.923C123.816 137.64 122.958 139.299 121.266 139.881L118.852 140.712L108.519 135.358L110.933 134.527C112.625 133.945 113.483 132.286 112.984 130.569Z" fill="#213793"/>
<path d="M108.932 134.995L155.018 158.87C155.781 159.265 156.079 160.205 155.684 160.967L154.849 162.58L106 137.272L106.835 135.659C107.23 134.897 108.17 134.598 108.932 134.993V134.995Z" fill="#3E91E5"/>
<path d="M114.551 126.637L158.609 149.465L173.001 121.689L128.942 98.861L114.551 126.637Z" fill="white"/>
<path d="M114.551 126.643L128.25 133.741L142.642 105.965L128.943 98.8675L114.551 126.643Z" fill="white"/>
<path d="M112.64 124.471L111.17 127.309C110.982 127.672 111.124 128.118 111.486 128.306L159.021 152.935C159.384 153.123 159.83 152.982 160.018 152.619L161.488 149.781C161.676 149.418 161.535 148.972 161.172 148.784L113.637 124.155C113.274 123.967 112.828 124.109 112.64 124.471Z" fill="#59A1F7"/>
<path d="M127.359 96.0633L126.229 98.2446C125.947 98.7885 126.16 99.458 126.704 99.7398L173.582 124.029C174.126 124.311 174.795 124.098 175.077 123.554L176.207 121.373C176.489 120.829 176.277 120.16 175.733 119.878L128.854 95.5887C128.31 95.3069 127.641 95.5194 127.359 96.0633Z" fill="#59A1F7"/>
<path d="M131.962 87.1605L132.689 85.7549L145.549 92.4182L143.997 95.4117L132.727 89.5715C131.848 89.1157 131.506 88.0368 131.959 87.1579L131.962 87.1605Z" fill="#3081D8"/>
<path d="M106 137.272L106.836 135.659C107.231 134.897 108.17 134.598 108.933 134.993L120.413 140.939L118.86 143.933L106 137.27V137.272Z" fill="#3081D8"/>
<path d="M111.812 128.467C111.268 128.186 111.055 127.515 111.336 126.971L112.466 124.793C112.747 124.248 113.418 124.035 113.962 124.316L125.838 130.468L123.688 134.619L111.812 128.467Z" fill="#3E91E5"/>
<path d="M126.699 99.7349C126.154 99.4538 125.942 98.7827 126.223 98.2382L127.352 96.0601C127.633 95.5156 128.305 95.3029 128.849 95.584L140.725 101.736L138.574 105.887L126.699 99.7349Z" fill="#3E91E5"/>
<path d="M161.066 115.439L173.195 121.722C173.552 121.907 173.995 121.765 174.183 121.408C174.368 121.051 174.226 120.608 173.869 120.42L161.74 114.137C161.383 113.952 160.94 114.094 160.752 114.451C160.567 114.808 160.709 115.251 161.066 115.439Z" fill="#69B4FF"/>
<path d="M166.19 105.548L178.318 111.831C178.675 112.016 179.119 111.874 179.306 111.517C179.491 111.16 179.349 110.717 178.992 110.53L166.863 104.246C166.506 104.061 166.063 104.203 165.876 104.56C165.691 104.917 165.833 105.361 166.19 105.548Z" fill="#4DA8F4"/>
<path d="M141.096 153.985L153.225 160.269C153.582 160.454 154.025 160.312 154.213 159.955C154.398 159.598 154.256 159.155 153.899 158.967L141.77 152.684C141.413 152.499 140.97 152.641 140.782 152.998C140.597 153.355 140.739 153.798 141.096 153.985Z" fill="#4DA8F4"/>
<path d="M146.308 143.924L158.437 150.207C158.794 150.392 159.237 150.25 159.425 149.893C159.61 149.536 159.468 149.093 159.111 148.906L146.982 142.622C146.625 142.437 146.182 142.579 145.994 142.936C145.81 143.293 145.951 143.737 146.308 143.924Z" fill="#69B4FF"/>
<path d="M178.068 106.823C179.661 107.648 181.636 107.02 182.462 105.427L183.12 104.153C183.946 102.56 183.318 100.585 181.725 99.7593C180.132 98.9336 178.156 99.5617 177.331 101.155L176.672 102.429C175.846 104.022 176.475 105.997 178.068 106.823Z" fill="#5371D3"/>
<path d="M145.984 168.75C147.577 169.576 149.553 168.948 150.379 167.355L151.037 166.081C151.863 164.488 151.235 162.513 149.642 161.687C148.049 160.861 146.073 161.489 145.247 163.082L144.589 164.356C143.763 165.949 144.391 167.925 145.984 168.75Z" fill="#5371D3"/>
<path d="M81.6789 178.7H186.531L192.083 185.384H76.1274L81.6789 178.7Z" fill="#213793"/>
<path d="M80.9826 202.777H187.228C191.419 202.777 194.816 199.38 194.816 195.19V191.467C194.816 187.276 191.419 183.879 187.228 183.879H80.9826C76.792 183.879 73.3949 187.276 73.3949 191.467V195.19C73.3949 199.38 76.792 202.777 80.9826 202.777Z" fill="#4A62C6"/>
<path d="M186.531 178.7H81.6789V177.528C81.6789 174.889 83.8215 172.746 86.4605 172.746H181.75C184.389 172.746 186.531 174.889 186.531 177.528V178.7Z" fill="#4A62C6"/>
<path d="M76.672 183.877H108.39C106.582 183.877 105.113 185.343 105.113 187.154V199.501C105.113 201.309 106.58 202.778 108.39 202.778H76.672C74.8637 202.778 73.3948 201.311 73.3948 199.501V187.154C73.3948 185.346 74.8612 183.877 76.672 183.877Z" fill="#3756BC"/>
<path d="M85.6857 172.746H117.404C115.193 172.746 113.4 174.539 113.4 176.75V178.7H81.6816V176.75C81.6816 174.539 83.4747 172.746 85.6857 172.746Z" fill="#3756BC"/>
<path d="M184.992 199.101H186.572C188.35 199.101 189.791 197.659 189.791 195.882V190.713C189.791 188.935 188.35 187.494 186.572 187.494H184.992C183.214 187.494 181.773 188.935 181.773 190.713V195.882C181.773 197.659 183.214 199.101 184.992 199.101Z" fill="#5371D3"/>
<path d="M90.6952 88.0565C90.0646 86.9852 89.7506 86.4508 89.2972 85.843C88.5248 84.8071 87.8435 84.1588 85.8959 82.4189C83.9965 80.7195 83.0468 79.8711 82.4516 79.3798C80.038 77.3917 78.8325 76.3964 77.1508 75.5378C76.2847 75.0946 74.7322 74.3171 72.5618 73.9245C70.7104 73.5902 69.2035 73.6789 68.0917 73.7878C62.0616 74.3753 57.5966 74.8135 54.9348 77.0168C47.456 83.2141 52.7441 104.622 60.4103 106.724C62.1933 107.213 69.396 108.107 71.8222 108.36C72.3845 108.419 73.5191 108.53 74.641 109.277C75.6617 109.958 75.6287 110.47 76.8089 111.579C77.8549 112.565 79.0148 113.659 80.39 113.464C81.4056 113.322 82.4009 112.496 82.6694 111.488C82.7758 111.096 82.8619 110.328 81.2385 107.907C80.1925 106.347 79.1617 104.81 77.204 103.239C75.7073 102.039 75.3274 102.153 73.3291 100.54C72.6479 99.9901 71.7893 99.2937 70.8624 98.2983C69.6493 96.9941 67.3598 94.1525 67.9195 93.4661C68.3855 92.8938 70.6496 94.041 73.2557 95.3631C76.2999 96.9054 78.0297 97.7842 79.7746 99.6406C80.4762 100.388 80.1748 100.223 82.6593 103.295C84.8272 105.975 85.435 106.57 86.3594 106.656C87.6409 106.775 89.1124 105.883 89.5176 104.688C89.629 104.359 89.7886 103.624 88.3019 100.937C87.4687 99.4304 86.6177 98.2122 84.8905 95.9531C83.3608 93.9524 82.5985 92.952 82.0894 92.405C81.7197 92.0073 80.1216 90.313 77.3028 88.33C73.975 85.9899 71.8425 85.2883 71.9337 85.0655C72.0552 84.7666 76.0846 85.6075 79.8709 88.0489C80.6079 88.5225 82.2059 89.5684 83.8699 91.3489C85.4426 93.0305 87.1217 95.4188 87.4332 95.8645C88.8414 97.8779 89.1883 98.6656 90.2799 99.0277C91.2372 99.3468 92.6099 99.2835 93.471 98.4275C94.2991 97.6044 94.2713 96.4293 94.2586 95.8873C94.2409 95.1579 94.0636 94.7071 92.9974 92.5215C91.9489 90.3738 91.412 89.2747 90.6952 88.0565Z" fill="#EF8C78"/>
<path d="M21.5374 121.9C19.5822 123.445 23.4748 131.638 30.2344 140.2C36.9939 148.763 44.1029 154.059 46.0581 152.517C48.0133 150.972 44.0751 143.174 37.3181 134.611C30.5585 126.048 23.4951 120.357 21.5374 121.902V121.9Z" fill="#101E2B"/>
<path d="M40.5471 126.418C40.5471 126.418 35.4034 119.299 31.7438 117.579C31.0929 117.273 30.4876 117.495 30.2419 117.688C29.4214 118.336 29.2567 119.549 29.0896 120.033C27.6055 124.293 38.9718 141.14 46.5924 141.17C47.1521 141.17 48.8009 141.18 49.2922 140.269C49.8798 139.182 48.502 137.404 47.6283 136.257C45.1792 133.043 42.9809 129.644 40.5446 126.42L40.5471 126.418Z" fill="#52A0CC"/>
<path d="M92.0577 96.5443C91.3765 96.6785 90.3432 96.5316 89.3402 95.0045C82.5225 84.6385 74.3903 80.1811 67.3319 81.5538C66.8178 81.6526 68.735 82.0527 71.6247 83.4558C72.9365 84.094 74.4485 84.9424 76.077 86.0922C77.2597 86.5709 78.5792 87.2167 79.8708 88.0499C80.6078 88.5235 82.2059 89.5695 83.8698 91.3499C85.4426 93.0316 87.1217 95.4198 87.4332 95.8656C88.8413 97.879 89.1883 98.6666 90.2798 99.0288C91.2372 99.3479 92.6098 99.2846 93.4709 98.4286C94.2991 97.6055 94.2712 96.4303 94.2586 95.8883C94.2484 95.4299 94.1725 95.083 93.8559 94.3435C93.4735 95.5616 92.8352 96.3949 92.0577 96.5468V96.5443Z" fill="#E57B6A"/>
<path d="M81.3752 110.166C80.3647 110.915 79.1111 110.518 78.678 110.384C77.0647 109.875 76.2011 108.492 75.8972 108.071C73.1138 104.209 62.0742 104.467 61.5145 106.453C61.479 106.582 61.4765 106.752 61.5728 106.972C64.2852 107.471 69.7657 108.145 71.8222 108.36C72.3845 108.418 73.5191 108.53 74.641 109.277C75.6616 109.958 75.6287 110.47 76.8089 111.579C77.8549 112.564 79.0148 113.658 80.39 113.463C81.4056 113.321 82.4009 112.496 82.6694 111.488C82.7504 111.181 82.8213 110.647 82.0818 109.282C81.9324 109.604 81.7095 109.915 81.3752 110.163V110.166Z" fill="#E57B6A"/>
<path d="M87.8436 103.832C87.2991 104.214 86.4178 104.498 85.6656 104.186C84.7868 103.821 82.2314 99.6275 78.8883 96.292C74.6234 92.0347 67.0788 90.158 66.5191 91.1736C66.3621 91.4573 66.6938 92.0803 68.102 93.3517C68.8212 93.1187 70.9005 94.1697 73.2558 95.3651C76.3 96.9074 78.0298 97.7863 79.7748 99.6427C80.4763 100.39 80.1749 100.225 82.6594 103.297C84.8273 105.977 85.4351 106.572 86.3595 106.658C87.641 106.777 89.1125 105.886 89.5177 104.69C89.6114 104.414 89.7355 103.862 88.92 102.135C88.7731 102.831 88.4008 103.442 87.8462 103.832H87.8436Z" fill="#E57B6A"/>
<path d="M89.0922 69.3709C86.5495 68.2895 84.5462 67.6766 83.2292 67.2511C82.1782 66.9092 82.9962 67.1523 78.3641 65.5087C73.3698 63.7384 73.7674 63.9359 72.8709 63.5611C71.6856 63.0672 70.4294 62.7532 69.2568 62.2264C68.7832 62.0137 68.2413 61.7528 67.4916 61.7579C66.5469 61.7655 65.8403 62.1935 65.463 62.429C63.3407 63.7536 61.4995 65.3238 61.4792 65.3415C59.1163 67.3575 59.0707 66.7142 56.2367 69.0163C54.2714 70.6119 54.3448 70.8778 52.6227 72.1011C51.5767 72.8431 51.2069 72.99 49.0998 74.4159C46.7065 76.0367 46.319 76.4318 46.0581 77.0472C45.658 77.9944 46.0885 78.197 45.696 80.1244C45.5466 80.8563 45.3136 81.5426 44.8501 82.8849C44.3613 84.3057 43.9561 85.339 43.8928 85.5036C42.976 87.8716 43.1077 90.66 42.9861 93.1977C42.8113 96.875 42.1301 99.5393 40.8866 104.394C40.4054 106.276 39.9242 108.13 38.9922 110.544C38.1083 112.83 37.3713 114.938 35.9125 116.812C33.7953 119.537 31.4298 120.823 29.0314 122.244C25.1667 124.529 21.6236 127.322 17.817 129.7C10.5814 134.218 8.92506 135.677 4.58923 138.668L26.2734 157.594C29.7051 153.157 33.7395 148.168 36.7761 145.098C40.0153 141.826 43.6623 138.79 43.6623 138.79C45.3693 137.369 46.2228 136.66 47.2105 135.989C49.966 134.12 51.5488 133.697 54.1701 131.541C55.7732 130.224 56.257 129.5 56.5406 128.799C56.8648 127.993 61.5248 122.556 64.1739 119.458C66.1746 117.121 67.5701 115.49 68.8364 112.985C69.6848 111.308 70.6118 109.477 70.9081 106.988C71.5818 101.33 68.5097 96.371 67.9677 95.5226C67.1801 94.2918 66.0151 92.8254 64.9869 90.1991C64.7539 89.6039 64.3714 88.6162 64.065 87.2612C63.214 83.4978 64.1486 82.2163 63.1938 79.747C62.8595 78.8834 62.6594 77.9767 62.3352 77.1105C62.0288 76.2976 61.8641 75.9607 62.0237 75.6112C62.282 75.0465 63.0241 75.2592 64.2752 74.7071C64.807 74.4716 64.8222 74.3677 66.7242 72.9469C67.8284 72.1238 68.3831 71.711 68.5376 71.6325C70.0875 70.8525 71.8224 71.8123 73.2989 72.0631C77.037 72.6962 81.5298 73.4585 85.739 75.7379C86.3697 76.0798 87.6588 76.8142 89.1555 76.5306C89.4164 76.4799 90.9208 76.1659 91.7059 74.7502C92.4277 73.4509 92.1567 71.9238 91.5033 70.9563C91.0398 70.27 90.4396 69.9458 89.0897 69.3709H89.0922Z" fill="#FBA78D"/>
<path d="M91.4955 70.9414C91.5386 71.2403 91.5158 71.5366 91.3917 71.805C90.8421 72.9751 88.6413 72.927 86.7317 72.8662C83.9636 72.775 83.2722 72.2052 77.3104 70.8781C72.3997 69.7865 73.4203 70.2956 72.3541 69.9056C71.3233 69.5282 70.2748 69.0166 69.1909 69.4345C68.6666 69.6371 68.6033 69.8803 67.7827 70.635C67.2332 71.139 65.8883 72.3774 64.2903 72.9548C62.5884 73.5703 61.8134 73.0004 61.398 73.4917C61.1043 73.8412 61.1017 74.5985 62.0337 76.2776C61.9527 76.0041 61.9375 75.8091 62.0261 75.6141C62.2844 75.0493 63.0265 75.262 64.2776 74.7099C64.8095 74.4744 64.8247 74.3706 66.7266 72.9498C67.8309 72.1267 68.3855 71.7139 68.54 71.6354C70.0899 70.8553 71.8248 71.8152 73.3013 72.0659C77.0394 72.699 81.5323 73.4614 85.7415 75.7407C86.3721 76.0826 87.6612 76.8171 89.1579 76.5334C89.4188 76.4828 90.9232 76.1687 91.7083 74.753C92.4301 73.4538 92.1591 71.9266 91.5057 70.9591C91.5031 70.9541 91.4981 70.949 91.4955 70.9439V70.9414Z" fill="#EF8C78"/>
<path d="M90.94 16.2026L63.4786 89.6514L91.7959 100.239L119.257 26.79L90.94 16.2026Z" fill="#5B9AD8"/>
<path d="M81.905 87.4245C84.0506 87.4181 85.7848 85.6736 85.7785 83.528C85.7721 81.3823 84.0276 79.6481 81.8819 79.6545C79.7363 79.6609 78.0021 81.4054 78.0085 83.551C78.0148 85.6966 79.7594 87.4309 81.905 87.4245Z" fill="#D1E8F2"/>
<path d="M102.275 36.4946C104.266 35.6943 105.231 33.4317 104.431 31.4409C103.631 29.4501 101.368 28.485 99.3772 29.2853C97.3864 30.0856 96.4214 32.3482 97.2216 34.339C98.0219 36.3298 100.285 37.2949 102.275 36.4946Z" fill="#D1E8F2"/>
<path d="M66.1768 88.4173L90.5607 97.5322L116.548 28.0172L92.1638 18.9023L66.1768 88.4199V88.4173ZM113.777 28.5338L88.8107 95.3238L68.95 87.8982L93.9139 21.1108L113.775 28.5364L113.777 28.5338Z" fill="#D1E8F2"/>
<path d="M103.559 62.782C105.874 56.5916 102.291 49.5322 95.5566 47.0144C88.8225 44.4966 81.4871 47.4739 79.1726 53.6643C76.8581 59.8547 80.4409 66.9141 87.175 69.4319C93.9092 71.9497 101.245 68.9724 103.559 62.782Z" fill="#D1E8F2"/>
<path d="M102.575 62.4147C104.686 56.7667 101.38 50.3117 95.1894 47.9972C88.999 45.6827 82.2688 48.3851 80.1571 54.0331C78.0454 59.6811 81.3518 66.136 87.5422 68.4505C93.7327 70.765 100.463 68.0627 102.575 62.4147Z" fill="#D1E8F2"/>
<path d="M101.069 61.0865L98.6931 60.1975C98.9514 59.2529 99.0021 58.3588 98.8476 57.5357C98.688 56.6949 98.3411 55.9655 97.8168 55.3678C97.2926 54.7701 96.6468 54.3244 95.8946 54.0433C95.2943 53.8179 94.6916 53.7216 94.104 53.7546C93.5165 53.7875 92.9567 53.942 92.4401 54.2155C91.9462 54.4688 91.5132 54.8056 91.1459 55.2209C90.7914 55.6236 90.3532 56.1859 89.8442 56.8874L85.9161 55.4185C86.4631 54.7727 87.1647 54.4865 87.9979 54.5701C88.7906 54.6435 89.3199 54.3396 89.5706 53.671C89.7023 53.3164 89.6922 52.9619 89.5352 52.6174C89.3782 52.2755 89.1249 52.0349 88.783 51.9083C88.4816 51.7969 88.1169 51.7538 87.6965 51.7817C87.2786 51.8095 86.8405 51.9108 86.3973 52.0805C85.8148 52.2907 85.3108 52.6149 84.9031 53.0378C84.5105 53.4481 84.1458 53.985 83.8166 54.6334L82.8187 54.2611C82.102 53.9926 81.8107 54.3117 81.6917 54.6283C81.5752 54.9398 81.5904 55.3678 82.3249 55.6414L83.3024 56.0061C82.9302 57.3838 82.9681 58.5792 83.419 59.5568C83.8748 60.5521 84.6827 61.2713 85.8173 61.6968C86.6885 62.021 87.4813 62.1046 88.1752 61.9425C88.8691 61.7804 89.4845 61.4537 90.0088 60.97C90.5178 60.5014 91.0573 59.8759 91.6119 59.1136L96.0237 60.7623C95.7603 61.1042 95.4742 61.36 95.1728 61.517C94.8486 61.6892 94.5219 61.7855 94.2003 61.8108C93.8736 61.8361 93.405 61.8361 92.8099 61.8108C92.5186 61.7956 92.2552 61.869 92.0323 62.0286C91.8095 62.1881 91.6373 62.4211 91.5233 62.7276C91.3815 63.11 91.3941 63.4823 91.5613 63.8369C91.7284 64.1914 91.9792 64.432 92.3084 64.5561C92.7389 64.7182 93.2176 64.7891 93.7343 64.7714C94.2484 64.7537 94.7904 64.627 95.3475 64.394C95.9022 64.1636 96.434 63.8065 96.9253 63.3329C97.404 62.8745 97.832 62.2819 98.1967 61.5702L100.78 62.5351C101.097 62.6541 101.345 62.6896 101.537 62.644C101.74 62.5984 101.892 62.4439 101.988 62.1856C102.094 61.9045 102.061 61.6791 101.892 61.517C101.735 61.3676 101.466 61.2232 101.069 61.0763V61.0865ZM87.8054 59.0629C87.4534 59.2402 87.0254 59.2377 86.5315 59.0528C86.0123 58.8578 85.6755 58.5665 85.5311 58.1816C85.3893 57.8067 85.3336 57.3357 85.364 56.781L88.9274 58.1132C88.5247 58.5691 88.1473 58.8882 87.8054 59.0629ZM96.6442 59.4327L92.5287 57.8954C92.9694 57.3483 93.4 56.9608 93.8102 56.743C94.2306 56.5202 94.7194 56.5126 95.264 56.7152C95.773 56.9051 96.1605 57.2496 96.4138 57.7384C96.6594 58.2094 96.7354 58.7793 96.6417 59.4327H96.6442Z" fill="#5B9AD8"/>
<path d="M104.284 16.6152L62.9518 83.252L88.6427 99.1872L129.975 32.5504L104.284 16.6152Z" fill="#7BC6EF"/>
<path d="M78.9188 78.8273C77.7892 80.6508 78.349 83.0441 80.1724 84.1762C81.9959 85.3057 84.3892 84.746 85.5213 82.9226C86.6508 81.0991 86.0911 78.7058 84.2677 77.5737C82.4442 76.4442 80.0509 77.0039 78.9188 78.8273Z" fill="#DCEFF9"/>
<path d="M114.372 36.2624C115.104 34.2454 114.062 32.0171 112.045 31.2853C110.028 30.5536 107.8 31.5955 107.068 33.6125C106.336 35.6295 107.378 37.8578 109.395 38.5896C111.412 39.3213 113.641 38.2794 114.372 36.2624Z" fill="#DCEFF9"/>
<path d="M65.8455 82.5787L87.9678 96.3029L127.092 33.2359L104.969 19.5117L65.8455 82.5787ZM124.27 33.2005L86.6838 93.7931L68.6643 82.6142L106.253 22.0215L124.273 33.2005H124.27Z" fill="#DCEFF9"/>
<path d="M107.525 64.763C111.008 59.1468 108.88 51.5218 102.77 47.7322C96.6605 43.9426 88.8836 45.4235 85.4 51.0398C81.9164 56.6561 84.0452 64.281 90.1548 68.0706C96.2643 71.8602 104.041 70.3793 107.525 64.763Z" fill="#DCEFF9"/>
<path d="M106.632 64.2082C109.81 59.084 107.834 52.106 102.217 48.6224C96.6012 45.1387 89.4717 46.4687 86.2933 51.5929C83.1149 56.7171 85.0912 63.6951 90.7075 67.1787C96.3238 70.6623 103.453 69.3324 106.632 64.2082Z" fill="#DCEFF9"/>
<path d="M105.422 62.6249L103.267 61.2877C103.705 60.4114 103.931 59.5453 103.941 58.7095C103.951 57.8535 103.753 57.0709 103.356 56.3821C102.958 55.6932 102.414 55.131 101.732 54.708C101.188 54.3712 100.618 54.1559 100.036 54.0723C99.4531 53.9888 98.8731 54.0318 98.3134 54.199C97.7816 54.3484 97.2877 54.5966 96.847 54.9309C96.4216 55.2576 95.8821 55.7211 95.2439 56.3112L91.6805 54.1002C92.3441 53.5734 93.0861 53.4316 93.8889 53.6772C94.6538 53.9026 95.2312 53.7102 95.6086 53.1023C95.8087 52.7807 95.8669 52.4312 95.7808 52.064C95.6947 51.6967 95.4946 51.4131 95.1831 51.2206C94.9096 51.0509 94.5601 50.937 94.1422 50.8838C93.7269 50.8306 93.2786 50.8433 92.8075 50.9218C92.1946 51.0155 91.6375 51.2307 91.1563 51.5676C90.6903 51.8918 90.2268 52.3476 89.7785 52.92L88.8744 52.3578C88.2235 51.9551 87.8765 52.2109 87.6967 52.4971C87.522 52.7782 87.4536 53.2011 88.1171 53.6139L89.0035 54.1635C88.3679 55.4425 88.1729 56.6201 88.421 57.6686C88.6743 58.7349 89.3227 59.5985 90.3534 60.2367C91.1436 60.7255 91.9059 60.9636 92.6176 60.9382C93.3292 60.9154 93.9978 60.7154 94.6057 60.3456C95.1958 59.986 95.8467 59.4795 96.5431 58.8387L100.545 61.3207C100.218 61.6043 99.8887 61.7968 99.562 61.8956C99.21 61.9994 98.8706 62.0323 98.5515 61.9918C98.2248 61.9513 97.7664 61.8601 97.1864 61.7208C96.9027 61.6499 96.6318 61.6702 96.381 61.7816C96.1303 61.893 95.9176 62.0906 95.7453 62.3666C95.5301 62.7136 95.4693 63.0808 95.563 63.4632C95.6567 63.8431 95.8568 64.1293 96.1556 64.3142C96.5456 64.5573 97.0015 64.7219 97.5106 64.8055C98.0196 64.8891 98.5768 64.8714 99.1669 64.7523C99.757 64.6333 100.347 64.3876 100.922 64.0229C101.482 63.6658 102.016 63.1695 102.515 62.5439L104.858 63.9976C105.144 64.1749 105.379 64.2585 105.579 64.2534C105.787 64.2483 105.964 64.1268 106.111 63.8938C106.271 63.638 106.281 63.4126 106.147 63.2201C106.023 63.0428 105.787 62.8478 105.428 62.6249H105.422ZM92.8126 58.0384C92.4327 58.1448 92.0123 58.0561 91.5665 57.7801C91.0955 57.4888 90.8245 57.1343 90.7561 56.729C90.6928 56.334 90.7283 55.8629 90.865 55.3234L94.0991 57.3293C93.6154 57.699 93.1823 57.9371 92.8126 58.0409V58.0384ZM101.408 60.1354L97.6752 57.8206C98.2146 57.3698 98.7136 57.0735 99.1593 56.9418C99.6152 56.805 100.096 56.8937 100.59 57.2001C101.051 57.4863 101.365 57.9016 101.517 58.431C101.664 58.94 101.629 59.5149 101.408 60.1379V60.1354Z" fill="#7BC6EF"/>
<path d="M123.176 26.1835L62.7919 76.209L82.0786 99.4895L142.463 49.464L123.176 26.1835Z" fill="#7BC6EF"/>
<path d="M79.3342 77.0953C77.6829 78.4629 77.4524 80.912 78.82 82.5632C80.1877 84.2145 82.6367 84.4449 84.2879 83.0773C85.9392 81.7097 86.1697 79.2607 84.8021 77.6094C83.4345 75.9582 80.9854 75.7277 79.3342 77.0953Z" fill="#FEFFE6"/>
<path d="M120.965 42.6051C119.314 43.9727 119.083 46.4217 120.451 48.073C121.819 49.7242 124.268 49.9547 125.919 48.5871C127.57 47.2195 127.801 44.7705 126.433 43.1192C125.065 41.4679 122.616 41.2375 120.965 42.6051Z" fill="white"/>
<path d="M65.7493 76.4891L82.3581 96.5372L139.509 49.1927L122.9 29.1445L65.7493 76.4891ZM81.9377 93.7488L68.411 77.4211L123.32 31.9329L136.847 48.2607L81.9377 93.7488Z" fill="white"/>
<path d="M110.933 72.8629C116.022 68.6466 116.43 60.7406 111.843 55.2043C107.257 49.6679 99.4128 48.5978 94.3235 52.814C89.2341 57.0303 88.8266 64.9363 93.4131 70.4727C97.9997 76.009 105.844 77.0792 110.933 72.8629Z" fill="white"/>
<path d="M110.263 72.0557C114.906 68.2088 115.252 60.9646 111.036 55.8753C106.82 50.7859 99.6376 49.7787 94.9942 53.6255C90.3508 57.4723 90.0045 64.7165 94.2208 69.8059C98.437 74.8952 105.619 75.9025 110.263 72.0557Z" fill="white"/>
<path d="M107.228 60.3361C106.702 60.0702 106.139 59.9283 105.557 59.9081C105.005 59.8802 104.458 59.9587 103.933 60.136C103.424 60.3082 102.766 60.5767 101.973 60.9338L99.2987 57.7047C100.094 57.416 100.844 57.5198 101.527 58.0061C102.181 58.4645 102.789 58.4645 103.341 58.0086C103.632 57.7655 103.799 57.454 103.835 57.0791C103.87 56.7043 103.769 56.37 103.536 56.0889C103.331 55.8407 103.034 55.6229 102.657 55.438C102.28 55.2557 101.852 55.124 101.381 55.0505C100.77 54.9442 100.172 54.972 99.6077 55.1366C99.0632 55.2962 98.4782 55.5798 97.8729 55.98L97.1941 55.1594C96.7053 54.5693 96.295 54.701 96.0342 54.9163C95.7784 55.129 95.5783 55.5064 96.0772 56.1092L96.7433 56.912C95.7353 57.9225 95.1731 58.9761 95.0743 60.0474C94.9756 61.1389 95.3149 62.1646 96.0874 63.0966C96.68 63.8108 97.3283 64.2793 98.0122 64.482C98.6934 64.6871 99.3924 64.7099 100.084 64.5529C100.757 64.4009 101.538 64.1274 102.399 63.7424L105.402 67.3691C105.002 67.5337 104.627 67.6123 104.288 67.5996C103.923 67.5869 103.589 67.5084 103.3 67.3691C103.004 67.2273 102.599 66.9943 102.095 66.6777C101.849 66.5182 101.586 66.4523 101.312 66.4776C101.039 66.503 100.775 66.622 100.522 66.8297C100.208 67.0905 100.033 67.4198 100 67.8098C99.9699 68.1998 100.066 68.5341 100.291 68.8051C100.585 69.1597 100.965 69.4611 101.421 69.7017C101.877 69.9423 102.409 70.1018 103.006 70.1778C103.604 70.2538 104.242 70.2082 104.903 70.0436C105.547 69.884 106.213 69.5826 106.884 69.147L108.644 71.2719C108.859 71.5327 109.057 71.6872 109.247 71.7455C109.444 71.8063 109.652 71.7455 109.865 71.5733C110.098 71.3808 110.181 71.1706 110.113 70.9452C110.052 70.7375 109.89 70.4792 109.619 70.1525L108.001 68.1998C108.695 67.5084 109.186 66.7588 109.46 65.9686C109.741 65.1607 109.804 64.3553 109.647 63.5753C109.49 62.7952 109.151 62.0886 108.639 61.4707C108.231 60.9768 107.758 60.5944 107.231 60.3285L107.228 60.3361ZM99.1214 61.7999C98.7289 61.7797 98.3591 61.5644 98.0223 61.1566C97.6677 60.7312 97.5234 60.3082 97.5892 59.903C97.6525 59.5079 97.8399 59.0723 98.1413 58.6063L100.568 61.5365C99.9926 61.7315 99.5064 61.8227 99.1214 61.8025V61.7999ZM107.249 64.9404C107.226 65.4722 107.008 66.0041 106.603 66.5232L103.802 63.1397C104.455 62.8839 105.022 62.7623 105.488 62.7775C105.962 62.7927 106.393 63.0282 106.762 63.4765C107.109 63.8944 107.274 64.3857 107.251 64.9378L107.249 64.9404Z" fill="#7BC6EF"/>
<path d="M62.3378 77.1105C62.2466 76.8673 61.345 74.3524 61.2614 74.4031C61.1196 74.4917 61.4691 75.0059 61.2184 76.685C61.1652 77.0319 61.1297 76.9458 60.7271 78.3818C60.5548 78.9972 60.3548 79.7038 60.1902 80.4636C60.0407 81.1449 59.8305 82.1174 59.8229 82.7607C59.8052 84.2068 61.2108 88.1957 63.0267 90.199C63.599 90.8296 63.9207 88.6338 64.7767 89.6266C64.5589 89.039 64.2955 88.2489 64.0726 87.2586C63.2217 83.4952 64.1562 82.2137 63.2014 79.7444C62.8671 78.8807 62.6645 77.9741 62.3429 77.1079L62.3378 77.1105Z" fill="#EF8C78"/>
<path d="M82.9278 65.394C80.6231 64.8267 78.6122 66.9034 77.9943 67.5441C77.118 68.4508 73.975 73.2906 73.2406 74.7874C72.7746 75.7371 72.8404 75.8891 72.0857 77.9684C71.8096 78.7307 71.0727 80.7542 70.4319 82.0636C69.8418 83.2691 68.9605 84.6418 66.4203 87.1491C63.6749 89.8615 61.7375 91.1911 59.3872 93.05C54.8944 96.6058 52.6479 98.3837 51.5336 100.121C46.8711 107.4 52.8404 124.7 58.7389 123.401C63.6445 122.319 71.3563 111.409 72.2858 106.078C72.4428 105.174 72.9873 101.256 74.6689 98.2647C74.8412 97.9608 75.3325 97.1123 75.9251 95.8764C76.4089 94.8659 84.6018 75.3851 85.4224 73.1995C86.281 70.9125 86.2506 70.1426 86.2151 69.783C86.053 68.0963 84.926 65.8878 82.9278 65.3965V65.394Z" fill="#FBA78D"/>
<path d="M84.227 64.0188C83.3128 63.8922 82.6138 64.2467 82.1908 64.462C81.2107 64.9609 80.7194 65.6726 79.7342 67.0985C78.944 68.2432 78.8073 68.7421 78.7515 69.0967C78.6958 69.4487 78.5768 70.1832 78.9693 70.8442C79.1289 71.1101 79.2935 71.2393 80.532 71.9383C82.1959 72.8804 82.477 72.9766 82.8771 72.9944C83.5711 73.0248 84.1029 72.7867 84.2777 72.7031C84.5765 72.5588 84.9514 72.3131 85.3971 71.761C87.0458 69.7222 86.8584 67.3492 86.8584 67.3492C86.8027 66.6451 86.7368 65.8018 86.0885 65.047C85.934 64.8698 85.2933 64.1632 84.227 64.0163V64.0188Z" fill="#FFEFE1"/>
<path d="M80.7979 70.3421C80.0508 70.2586 79.4101 70.4637 78.9111 70.7322C78.9289 70.7701 78.9491 70.8056 78.9719 70.8436C79.1315 71.1095 79.2961 71.2387 80.5345 71.9377C82.1985 72.8798 82.4796 72.976 82.8797 72.9938C83.095 73.0039 83.2925 72.9836 83.4724 72.9558C83.3837 72.31 83.1178 71.7148 82.6771 71.2513C81.9832 70.5219 81.1044 70.3776 80.8005 70.3447L80.7979 70.3421Z" fill="white"/>
<path d="M84.227 64.0188C83.3127 63.8922 82.6137 64.2467 82.1908 64.462C81.5779 64.7735 81.1575 65.1686 80.6864 65.7688C81.431 65.3358 82.5276 64.928 83.7661 65.2015C85.1362 65.5029 86.2835 66.554 86.8482 67.9595C86.8736 67.5822 86.8558 67.3543 86.8558 67.3543C86.8001 66.6502 86.7343 65.8068 86.0859 65.0521C85.9314 64.8748 85.2907 64.1682 84.2245 64.0213L84.227 64.0188Z" fill="white"/>
<path d="M41.9223 136.118C35.5351 139.233 31.5918 143.295 25.8428 149.219C24.3334 150.774 22.9936 152.261 21.7906 153.679L26.2734 157.592C29.705 153.155 33.7395 148.165 36.7761 145.096C40.0153 141.824 43.6622 138.787 43.6622 138.787C45.3692 137.366 46.2227 136.657 47.2104 135.986C49.9659 134.117 51.4044 133.504 54.17 131.539C56.2366 130.072 58.5059 126.453 58.6122 126.094C56.5304 128.041 54.2789 129.498 52.6505 130.511C47.7321 133.573 44.2802 134.963 41.9173 136.115L41.9223 136.118Z" fill="#EF8C78"/>
<path d="M49.1301 140.516C47.0382 141.757 42.9177 138.318 36.0847 130.28C27.8689 120.618 30.242 117.688 30.242 117.688L20.2888 125.721C20.2888 125.721 24.455 140.453 38.8148 149.191C39.6025 149.669 49.662 140.2 49.1301 140.514V140.516Z" fill="#94D6EA"/>
<path d="M49.1302 140.516C47.9044 141.243 45.9847 140.362 43.2318 137.897C41.8059 139.351 40.2813 140.823 38.6427 142.297C37.1763 143.614 35.72 144.844 34.2841 145.994C35.6669 147.119 37.1738 148.195 38.8124 149.193C39.6 149.672 49.6595 140.202 49.1277 140.516H49.1302Z" fill="#85CCE5"/>
<path d="M29.4341 137.55C19.2353 124.532 21.5374 121.898 21.5374 121.898C21.5374 121.898 1.72231 136.408 -12.8376 147.146L0.620628 189.104L46.048 152.523C45.8783 152.654 42.7961 154.61 29.4316 137.552L29.4341 137.55Z" fill="#364353"/>
<path d="M46.0506 152.521C45.9341 152.612 44.2271 153.724 37.9462 147.41C36.3051 148.861 10.6118 170.551 -2.03857 180.81L-0.184706 186.587L1.79073 188.162L46.0506 152.521Z" fill="#293949"/>
<path d="M62.7936 90.0057C62.6721 89.8106 62.4188 89.7524 62.2238 89.874C61.2057 90.5172 60.2028 91.201 59.2353 91.9102C57.2346 93.3766 55.3199 94.9974 53.542 96.7348C53.3799 96.8943 53.3774 97.1577 53.5395 97.3198C53.699 97.4794 53.9574 97.4819 54.1195 97.3224C55.8695 95.6128 57.7512 94.0173 59.7216 92.5737C60.6739 91.8773 61.6616 91.2036 62.6619 90.5704C62.8544 90.4489 62.9127 90.1981 62.7936 90.0057Z" fill="#E5806E"/>
<path d="M77.0901 79.5485C76.4848 79.3914 75.8618 79.3281 75.2312 79.356C74.9931 79.3661 74.8108 79.5763 74.8386 79.8144C74.864 80.0322 75.0539 80.1892 75.2717 80.1791C75.8187 80.1538 76.3582 80.2095 76.8824 80.3462C78.0854 80.6577 78.9465 81.3162 79.5113 81.9038C79.6633 82.0608 79.9089 82.076 80.0761 81.9342C80.2584 81.7797 80.2711 81.5062 80.1065 81.334C79.4632 80.6628 78.4729 79.9081 77.0876 79.5485H77.0901Z" fill="#E5806E"/>
<path d="M79.177 82.7465C78.0601 82.511 77.0167 82.0982 76.0695 81.5182C75.7884 81.346 75.5149 81.1586 75.2515 80.956C75.0767 80.8217 74.826 80.8471 74.6842 81.0168C74.5347 81.1966 74.5626 81.465 74.7475 81.6069C75.0337 81.8272 75.3325 82.0323 75.639 82.2197C76.6672 82.8504 77.7967 83.2961 79.0073 83.5519C79.2353 83.6 79.4581 83.4481 79.4987 83.2176C79.5366 82.9998 79.3948 82.7921 79.177 82.7465Z" fill="#E5806E"/>
</g>
</svg>
