<svg width="25" height="25" viewBox="0 0 25 25" fill="none" xmlns="http://www.w3.org/2000/svg">
<g clip-path="url(#clip0_1315_7519)">
<path fill-rule="evenodd" clip-rule="evenodd" d="M12.0333 3.02959C12.2244 2.64248 12.7764 2.64248 12.9675 3.02959L15.4406 8.04073C15.5164 8.19446 15.6631 8.301 15.8328 8.32565L21.3629 9.12923C21.7901 9.1913 21.9606 9.71629 21.6515 10.0176L17.6499 13.9182C17.5272 14.0379 17.4711 14.2103 17.5001 14.3793L18.4448 19.887C18.5177 20.3125 18.0711 20.637 17.689 20.4361L12.7428 17.8356C12.591 17.7558 12.4098 17.7558 12.258 17.8356L7.31173 20.4361C6.92964 20.637 6.48305 20.3125 6.55603 19.887L7.50069 14.3793C7.52967 14.2103 7.47366 14.0379 7.3509 13.9182L3.34926 10.0176C3.04014 9.71629 3.21072 9.1913 3.63792 9.12923L9.16804 8.32565C9.33769 8.301 9.48433 8.19446 9.5602 8.04073L12.0333 3.02959Z" stroke="#FEB739" stroke-width="2" stroke-linecap="round"/>
</g>
<defs>
<clipPath id="clip0_1315_7519">
<rect width="25" height="25" fill="white"/>
</clipPath>
</defs>
</svg>
