<svg width="230" height="203" viewBox="0 0 230 203" fill="none" xmlns="http://www.w3.org/2000/svg">
<path d="M35.3527 181.326H19.0699C18.69 181.326 18.3552 181.556 18.2202 181.911L15.5714 188.788C15.4365 189.137 15.0966 189.372 14.7218 189.372H0.912884C0.253175 189.372 -0.18663 188.698 0.0782525 188.093L19.4597 143.763C19.6046 143.433 19.9345 143.218 20.2943 143.218H34.3981C34.7629 143.218 35.0878 143.433 35.2327 143.763L54.6142 188.093C54.8791 188.698 54.4342 189.372 53.7795 189.372H39.7108C39.3309 189.372 38.9961 189.142 38.8611 188.788L36.2123 181.911C36.0774 181.561 35.7375 181.326 35.3627 181.326H35.3527ZM31.2145 168.876L28.0609 160.715C27.761 159.935 26.6565 159.935 26.3566 160.715L23.203 168.876C22.9731 169.476 23.4129 170.116 24.0527 170.116H30.3599C30.9996 170.116 31.4444 169.471 31.2095 168.876H31.2145Z" fill="#FEB739"/>
<path d="M95.9859 154.213V188.457C95.9859 188.962 95.5761 189.372 95.0713 189.372H82.7217C82.217 189.372 81.8071 188.962 81.8071 188.457V187.968C81.8071 187.203 80.9375 186.793 80.3328 187.253C79.3782 187.978 78.3337 188.562 77.1942 189.007C75.435 189.687 73.5658 190.027 71.5916 190.027C67.0187 190.027 63.3503 188.632 60.5815 185.839C57.8127 183.05 56.4283 178.837 56.4283 173.209V154.208C56.4283 153.703 56.8382 153.293 57.3429 153.293H70.4222C70.9269 153.293 71.3368 153.703 71.3368 154.208V170.635C71.3368 173.099 71.7316 174.853 72.5212 175.913C73.3109 176.968 74.4754 177.497 76.0147 177.497C77.4641 177.497 78.6735 176.918 79.6431 175.748C80.6077 174.584 81.0924 172.749 81.0924 170.24V154.208C81.0924 153.703 81.5023 153.293 82.007 153.293H95.0863C95.591 153.293 96.0009 153.703 96.0009 154.208L95.9859 154.213Z" fill="#FEB739"/>
<path d="M125.063 188.947L121.115 182.785C120.765 182.24 119.98 182.22 119.605 182.745L115.122 188.987C114.952 189.227 114.673 189.367 114.383 189.367H100.539C99.7842 189.367 99.3544 188.502 99.8142 187.902L111.929 172.039C112.174 171.72 112.179 171.275 111.939 170.95L100.139 154.752C99.6992 154.147 100.129 153.303 100.879 153.303H115.412C115.717 153.303 116.002 153.453 116.172 153.708L120.305 159.855C120.66 160.385 121.44 160.395 121.809 159.875L126.178 153.693C126.347 153.453 126.627 153.308 126.922 153.308H140.246C141.001 153.308 141.431 154.167 140.976 154.772L129.236 170.305C128.991 170.625 128.991 171.07 129.226 171.395L141.346 187.922C141.786 188.527 141.356 189.377 140.611 189.377H125.833C125.523 189.377 125.233 189.217 125.063 188.957V188.947Z" fill="#FEB739"/>
<path d="M177.92 154.917C180.579 156.432 182.688 158.611 184.252 161.444C185.811 164.278 186.591 167.567 186.591 171.3C186.591 175.033 185.811 178.332 184.252 181.191C182.693 184.049 180.579 186.233 177.92 187.753C175.261 189.267 172.347 190.027 169.184 190.027C165.635 190.027 162.821 189.257 160.732 187.713C160.138 187.273 159.293 187.713 159.293 188.452C159.293 188.957 158.883 189.367 158.378 189.367H146.029C145.524 189.367 145.114 188.957 145.114 188.452V141.348C145.114 140.843 145.524 140.434 146.029 140.434H159.108C159.613 140.434 160.023 140.843 160.023 141.348V153.838C160.023 154.572 160.837 154.992 161.452 154.587C163.436 153.288 166.015 152.638 169.189 152.638C172.362 152.638 175.266 153.398 177.925 154.912L177.92 154.917ZM169.843 176.548C170.943 175.293 171.493 173.549 171.493 171.305C171.493 169.061 170.943 167.327 169.843 166.097C168.744 164.868 167.339 164.253 165.625 164.253C163.911 164.253 162.502 164.868 161.407 166.097C160.307 167.327 159.758 169.066 159.758 171.305C159.758 173.544 160.307 175.293 161.407 176.548C162.507 177.802 163.911 178.427 165.625 178.427C167.339 178.427 168.744 177.802 169.843 176.548Z" fill="#4B86B4"/>
<path d="M229.087 153.298C229.732 153.298 230.177 153.953 229.932 154.552L215.603 190.092C213.714 194.795 211.36 198.093 208.546 199.982C205.732 201.872 202.284 202.816 198.196 202.816C196.172 202.816 194.143 202.521 192.098 201.926C190.399 201.432 189 200.812 187.895 200.062C187.515 199.807 187.386 199.313 187.585 198.903L191.744 190.312C191.979 189.822 192.583 189.657 193.048 189.937C193.573 190.252 194.138 190.522 194.742 190.746C195.687 191.096 196.596 191.276 197.481 191.276C198.816 191.276 199.885 190.951 200.69 190.297C200.995 190.047 201.084 189.617 200.935 189.252L186.531 154.557C186.281 153.958 186.721 153.293 187.376 153.293H200.68C201.055 153.293 201.394 153.523 201.529 153.878L207.911 170.425C208.211 171.2 209.311 171.205 209.611 170.43L216.108 153.873C216.243 153.523 216.583 153.293 216.957 153.293H229.092L229.087 153.298Z" fill="#4B86B4"/>
<path d="M114.997 132.541C151.598 132.541 181.268 102.871 181.268 66.2707C181.268 29.6704 151.598 0 114.997 0C78.3972 0 48.7267 29.6704 48.7267 66.2707C48.7267 102.871 78.3972 132.541 114.997 132.541Z" fill="#4B86B4"/>
<path d="M104.107 81.5734C102.273 86.3513 100.434 91.1242 98.5997 95.9021C96.9004 100.32 92.6523 103.239 87.9194 103.239C79.668 103.239 74.1305 94.7726 77.434 87.2159L99.7492 36.1685C101.568 32.0003 105.687 29.3115 110.235 29.3115H119.765C124.313 29.3115 128.427 32.0053 130.251 36.1685L152.566 87.2159C155.869 94.7776 150.332 103.239 142.08 103.239H141.661C136.928 103.239 132.68 100.325 130.98 95.9021L125.468 81.5734C121.704 71.7928 107.871 71.7928 104.107 81.5734Z" fill="#F9F9F9"/>
<path d="M111.854 81.3087C111.069 82.5431 109.71 83.2828 108.255 83.2828H102.928C99.4243 83.2828 97.4052 79.2995 99.4793 76.4708L105.412 68.3694C105.727 67.9346 105.956 67.4598 106.091 66.965C106.216 66.5102 106.216 66.0254 106.091 65.5756C105.956 65.0808 105.732 64.601 105.412 64.1712L99.4793 56.0698C97.4052 53.2411 99.4243 49.2578 102.928 49.2578H108.255C109.71 49.2578 111.069 49.9975 111.854 51.2319C113.483 53.7758 117.166 53.8658 118.936 51.4169L119.201 51.037C120.005 49.9175 121.3 49.2578 122.679 49.2578H127.072C130.611 49.2578 132.62 53.316 130.471 56.1298L124.788 63.5715C124.183 64.3611 123.888 65.3157 123.918 66.2653C123.888 67.2149 124.183 68.1695 124.788 68.9591L130.471 76.4008C132.62 79.2146 130.611 83.2728 127.072 83.2728H122.679C121.305 83.2728 120.01 82.6081 119.201 81.4936L118.936 81.1137C117.171 78.6648 113.488 78.7548 111.854 81.2987V81.3087Z" fill="#FEB739"/>
</svg>
