<svg width="150" height="150" viewBox="0 0 150 150" fill="none" xmlns="http://www.w3.org/2000/svg">
<g clip-path="url(#clip0_3260_9175)">
<path d="M75.0017 150.003C116.424 150.003 150.003 116.424 150.003 75.0017C150.003 33.5794 116.424 0 75.0017 0C33.5794 0 0 33.5794 0 75.0017C0 116.424 33.5794 150.003 75.0017 150.003Z" fill="#2A4D69"/>
<path d="M62.6744 92.3204C60.5949 97.7265 58.5189 103.129 56.4394 108.535C54.5166 113.537 49.7097 116.836 44.3525 116.836C35.0173 116.836 28.7474 107.253 32.4884 98.6983L57.7421 40.9283C59.8042 36.2119 64.4614 33.1641 69.6062 33.1641H80.3938C85.5386 33.1641 90.1992 36.2119 92.2578 40.9283L117.512 98.6983C121.253 107.253 114.983 116.836 105.648 116.836H105.17C99.8131 116.836 95.0062 113.537 93.0834 108.535L86.8483 92.3204C82.5918 81.2541 66.931 81.2541 62.6744 92.3204Z" fill="white"/>
<path d="M71.4418 92.0175C70.5536 93.4108 69.014 94.2503 67.3699 94.2503H61.3404C57.3729 94.2503 55.0914 89.7429 57.4391 86.5418L64.1548 77.3738C64.5136 76.8827 64.7714 76.3428 64.9212 75.782C65.0605 75.2699 65.0605 74.7196 64.9212 74.2075C64.7679 73.6467 64.5136 73.1068 64.1548 72.6157L57.4391 63.4512C55.0914 60.2501 57.3729 55.7427 61.3404 55.7427H67.3699C69.014 55.7427 70.5536 56.5822 71.4418 57.9755C73.288 60.8527 77.4574 60.9572 79.4568 58.1845L79.7564 57.7561C80.669 56.4916 82.1355 55.7393 83.689 55.7393H88.6631C92.6689 55.7393 94.9435 60.3337 92.5086 63.5174L86.0751 71.9434C85.3889 72.8386 85.0579 73.9184 85.0928 74.9913C85.0614 76.0641 85.3923 77.1439 86.0751 78.0391L92.5086 86.4652C94.9435 89.6489 92.6689 94.2433 88.6631 94.2433H83.689C82.132 94.2433 80.6655 93.4944 79.7564 92.2265L79.4568 91.7981C77.4574 89.0254 73.288 89.1299 71.4418 92.0071V92.0175Z" fill="#FEB739"/>
</g>
<defs>
<clipPath id="clip0_3260_9175">
<rect width="150" height="150" fill="white"/>
</clipPath>
</defs>
</svg>
