<svg width="101" height="91" viewBox="0 0 101 91" fill="none" xmlns="http://www.w3.org/2000/svg">
<path d="M5.95889 14.2203L3.18508 12.8069L5.95889 14.2203ZM8.82553 86.4111L11.0258 88.6134H11.0258L8.82553 86.4111ZM67.4307 72.5102V75.6233V72.5102ZM87.1179 70.4743L85.7046 67.7005L87.1179 70.4743ZM95.2808 62.3114L92.507 60.8981V60.8981L95.2808 62.3114ZM95.2808 14.2203L92.507 15.6336V15.6336L95.2808 14.2203ZM87.1179 6.05734L85.7046 8.83116V8.83116L87.1179 6.05734ZM14.1218 6.05734L12.7085 3.28353L14.1218 6.05734ZM20.9158 74.3318L18.7155 72.1295L20.9158 74.3318ZM25.3164 72.5102V75.6233V72.5102ZM7.03616 33.9075C7.03616 28.6256 7.03858 24.8514 7.2803 21.8928C7.51905 18.9706 7.97566 17.1194 8.73271 15.6336L3.18508 12.8069C1.90627 15.3167 1.34495 18.0786 1.07473 21.3858C0.807491 24.6567 0.809912 28.7283 0.809912 33.9075H7.03616ZM7.03616 72.45V33.9075H0.809912V72.45H7.03616ZM0.930319 72.5704V84.4291H7.15656V72.5704H0.930319ZM0.930319 84.4291C0.930319 89.6974 7.29888 92.337 11.0258 88.6134L6.62522 84.2088C6.6433 84.1908 6.70913 84.1451 6.80316 84.1289C6.8802 84.1155 6.93375 84.1287 6.96445 84.1415C6.99515 84.1542 7.04233 84.1827 7.08736 84.2467C7.14232 84.3247 7.15656 84.4035 7.15656 84.4291H0.930319ZM11.0258 88.6134L23.1161 76.5341L18.7155 72.1295L6.62522 84.2088L11.0258 88.6134ZM67.4307 69.3971L25.3164 69.397L25.3164 75.6233L67.4307 75.6233V69.3971ZM85.7046 67.7005C84.2188 68.4576 82.3676 68.9142 79.4454 69.1529C76.4868 69.3946 72.7126 69.3971 67.4307 69.3971V75.6233C72.6099 75.6233 76.6815 75.6257 79.9524 75.3585C83.2596 75.0883 86.0214 74.5269 88.5313 73.2481L85.7046 67.7005ZM92.507 60.8981C91.0147 63.8269 88.6335 66.2082 85.7046 67.7005L88.5313 73.2481C92.6317 71.1589 95.9654 67.8251 98.0546 63.7247L92.507 60.8981ZM94.2036 42.6242C94.2036 47.9061 94.2012 51.6803 93.9594 54.6389C93.7207 57.5611 93.2641 59.4123 92.507 60.8981L98.0546 63.7247C99.3335 61.2149 99.8948 58.4531 100.165 55.1459C100.432 51.875 100.43 47.8034 100.43 42.6242H94.2036ZM94.2036 33.9075V42.6242H100.43V33.9075H94.2036ZM92.507 15.6336C93.2641 17.1194 93.7207 18.9706 93.9594 21.8928C94.2012 24.8514 94.2036 28.6255 94.2036 33.9075H100.43C100.43 28.7283 100.432 24.6567 100.165 21.3858C99.8948 18.0786 99.3335 15.3167 98.0546 12.8069L92.507 15.6336ZM85.7046 8.83116C88.6335 10.3235 91.0147 12.7047 92.507 15.6336L98.0546 12.8069C95.9654 8.70652 92.6317 5.37279 88.5313 3.28353L85.7046 8.83116ZM67.4307 7.13461C72.7126 7.13461 76.4868 7.13703 79.4454 7.37875C82.3676 7.6175 84.2188 8.07411 85.7046 8.83116L88.5313 3.28353C86.0214 2.00472 83.2596 1.4434 79.9524 1.17318C76.6815 0.905941 72.6099 0.908362 67.4307 0.908362V7.13461ZM33.809 7.13461H67.4307V0.908362H33.809V7.13461ZM15.5351 8.83116C17.0209 8.07411 18.8722 7.6175 21.7944 7.37875C24.7529 7.13703 28.5271 7.13461 33.809 7.13461V0.908362C28.6298 0.908362 24.5582 0.905941 21.2873 1.17318C17.9801 1.4434 15.2183 2.00472 12.7085 3.28353L15.5351 8.83116ZM8.73271 15.6336C10.225 12.7047 12.6063 10.3235 15.5351 8.83116L12.7085 3.28353C8.60807 5.37279 5.27434 8.70652 3.18508 12.8069L8.73271 15.6336ZM23.1161 76.5341C23.6999 75.9509 24.4913 75.6233 25.3164 75.6233L25.3164 69.397C22.8409 69.397 20.4667 70.3799 18.7155 72.1295L23.1161 76.5341ZM3.98344 75.6233C2.29728 75.6234 0.930319 74.2565 0.930319 72.5704H7.15656C7.15656 70.8177 5.7357 69.3969 3.98304 69.397L3.98344 75.6233ZM0.809912 72.45C0.809912 74.2026 2.23078 75.6234 3.98344 75.6233L3.98304 69.397C5.6692 69.3969 7.03616 70.7638 7.03616 72.45H0.809912Z" fill="#3B4B53"/>
<path d="M28.971 28.9258L72.5942 28.9258" stroke="#3B4B53" stroke-width="6.22624" stroke-linecap="round" stroke-linejoin="round"/>
<path d="M28.971 47.6055L60.1304 47.6055" stroke="#3B4B53" stroke-width="6.22624" stroke-linecap="round" stroke-linejoin="round"/>
</svg>
